<svg width="437" height="85" viewBox="0 0 437 85" fill="none" xmlns="http://www.w3.org/2000/svg">
<path d="M16.7734 60.7982V49.4185H41.9335V36.4002H16.7734V25.2937H45.9886V11.8201H0V74.2717H46.4494V60.7982H16.7734Z" fill="#3A3391"/>
<path d="M100.306 61.2534C99.2004 61.6175 98.7396 61.7086 98.0023 61.7086C96.8964 61.7086 96.2512 60.9803 96.2512 59.3416V48.3261C96.2512 36.5823 89.0626 29.2083 74.6854 29.2083C62.5201 29.2083 54.3177 34.7615 53.4883 45.3219H68.0498C68.4184 42.8638 70.6303 41.0431 73.9481 41.0431C78.3719 41.0431 80.3073 43.4101 80.3073 46.7785V47.8709H77.7268C65.6536 47.8709 52.198 50.4199 52.198 62.5279C52.198 70.084 57.8199 74.7269 67.4968 74.7269C76.0679 74.7269 79.57 70.9944 81.1367 68.0812H82.0584C84.2702 72.8151 88.5097 74.7269 93.4864 74.7269C96.6199 74.7269 99.2004 74.2717 101.136 73.6344L100.306 61.2534ZM72.6579 63.2562C69.8009 63.2562 67.9576 62.1637 67.9576 59.9789C67.9576 56.9746 71.6441 55.6091 76.8052 55.6091H80.3073V58.1581C80.3073 61.3444 77.0816 63.2562 72.6579 63.2562Z" fill="#3A3391"/>
<path d="M134.272 29.2083C128.466 29.2083 124.872 32.3946 122.844 36.9464L122.568 29.6634H106.439V74.2717H123.028V52.8779C123.95 47.9619 128.282 45.1398 133.996 45.1398C135.655 45.1398 136.208 45.2308 137.314 45.686V29.5724C136.761 29.2993 135.102 29.2083 134.272 29.2083Z" fill="#3A3391"/>
<path d="M173.749 29.2083C166.929 29.2083 162.505 31.9394 160.109 36.1271L159.648 29.6634H143.52V74.2717H160.109V50.1468C160.109 46.5053 162.597 43.5011 166.468 43.5011C170.616 43.5011 172.459 46.4143 172.459 50.4199V74.2717H189.048V46.4143C189.048 37.2195 184.163 29.2083 173.749 29.2083Z" fill="#3A3391"/>
<path d="M261.413 55.9732C261.413 49.6916 258.556 45.3219 254.317 42.5907C257.819 39.8596 260.215 35.945 260.215 30.5738C260.123 18.5569 250.538 10.9098 237.636 11.0008C223.627 11.0918 214.595 19.5583 214.595 32.8498H231.461C231.461 27.8427 234.041 25.3847 237.544 25.3847C240.401 25.3847 243.165 27.0234 243.258 31.029C243.165 34.5795 241.414 37.0375 237.636 37.0375H231V48.8723H237.636C241.875 48.8723 244.364 51.0572 244.456 55.0628C244.456 58.4312 241.967 60.5251 237.636 60.5251C233.212 60.5251 230.447 58.4312 230.447 53.1511L213.582 53.06C213.582 67.0798 223.166 75 236.991 75C250.446 75 261.506 67.3529 261.413 55.9732Z" fill="#3A3391"/>
<path d="M289.339 74.2717H300.767L329.061 11.0008H317.817L289.339 74.2717ZM284.731 47.1426C295.79 47.1426 302.426 40.4969 302.426 29.2993C302.426 18.1017 295.79 11.365 284.731 11.365C273.672 11.365 267.036 18.1017 267.036 29.2993C267.036 40.4969 273.672 47.1426 284.731 47.1426ZM284.731 36.5823C281.137 36.5823 279.109 34.0332 279.109 29.2993C279.109 24.5654 281.137 21.9253 284.731 21.9253C288.325 21.9253 290.353 24.5654 290.353 29.2993C290.353 34.0332 288.325 36.5823 284.731 36.5823ZM333.484 74.7269C344.544 74.7269 351.179 68.1722 351.179 56.8836C351.179 45.686 344.544 38.9492 333.484 38.9492C322.425 38.9492 315.789 45.686 315.789 56.8836C315.789 68.1722 322.425 74.7269 333.484 74.7269ZM333.484 64.1666C329.89 64.1666 327.863 61.6175 327.863 56.8836C327.863 52.2407 329.89 49.5096 333.484 49.5096C337.079 49.5096 339.106 52.2407 339.106 56.8836C339.106 61.6175 337.079 64.1666 333.484 64.1666Z" fill="#3A3391"/>
</svg>
