<svg width="283" height="266" viewBox="0 0 283 266" fill="none" xmlns="http://www.w3.org/2000/svg">
<g clip-path="url(#clip0_10906_7139)">
<rect width="283" height="277" rx="16" fill="#F9F8FF"/>
<circle cx="30" cy="30" r="6" fill="#CED9E8"/>
<circle cx="50" cy="30" r="6" fill="#CED9E8"/>
<circle cx="70" cy="30" r="6" fill="#CED9E8"/>
<g filter="url(#filter0_dd_10906_7139)">
<g clip-path="url(#clip1_10906_7139)">
<rect x="39.4536" y="47.5886" width="262.212" height="153.831" rx="13.3967" transform="rotate(2.51533 39.4536 47.5886)" fill="#22B94C"/>
<circle cx="48.4341" cy="53.0111" r="32.6545" transform="rotate(2.51533 48.4341 53.0111)" fill="url(#paint0_linear_10906_7139)"/>
<g clip-path="url(#clip2_10906_7139)">
<rect x="54.7495" y="80.9459" width="27.6307" height="21.7697" rx="3.34918" transform="rotate(2.51533 54.7495 80.9459)" fill="url(#paint1_linear_10906_7139)"/>
<path d="M73.784 89.1157C72.8775 89.0759 71.9648 89.4794 71.503 90.2947C71.0422 91.1084 70.8135 91.8197 70.7942 92.5373C70.775 93.2532 70.965 93.9546 71.306 94.7466C71.6946 95.6491 72.5995 96.1875 73.5587 96.2297L81.7206 96.5882C83.222 96.6542 84.4927 95.4905 84.5586 93.989L84.6321 92.3161C84.6981 90.8146 83.5344 89.544 82.0329 89.478L73.784 89.1157Z" fill="url(#paint2_linear_10906_7139)" stroke="black" stroke-width="0.418647"/>
<path d="M62.6777 88.6278C63.5842 88.6676 64.4581 89.1496 64.8466 90.0024C65.2342 90.8533 65.3997 91.5819 65.3559 92.2984C65.3123 93.0132 65.0616 93.6953 64.6525 94.4543C64.1862 95.3193 63.2375 95.7763 62.2784 95.7341L54.1164 95.3756C52.615 95.3096 51.4513 94.039 51.5173 92.5376L51.5908 90.8646C51.6567 89.3632 52.9274 88.1995 54.4288 88.2654L62.6777 88.6278Z" fill="url(#paint3_linear_10906_7139)" stroke="black" stroke-width="0.418647"/>
<mask id="path-10-inside-1_10906_7139" fill="white">
<path fill-rule="evenodd" clip-rule="evenodd" d="M71.6848 90.3979C72.0388 89.7729 72.6929 89.4077 73.3996 89.3355C72.8906 84.9221 70.9763 81.6589 68.5522 81.5524C66.128 81.446 63.9349 84.5287 63.0409 88.8805C63.7386 89.0144 64.3581 89.4355 64.6559 90.0891C65.4121 91.7491 65.2715 92.8645 64.468 94.355C64.1186 95.0032 63.4661 95.4056 62.7477 95.5039C63.2542 99.9245 65.17 103.195 67.5968 103.301C70.0235 103.408 72.2186 100.318 73.1108 95.9591C72.4038 95.7981 71.7891 95.3401 71.4979 94.6637C70.8283 93.1086 70.786 91.9851 71.6848 90.3979Z"/>
</mask>
<path fill-rule="evenodd" clip-rule="evenodd" d="M71.6848 90.3979C72.0388 89.7729 72.6929 89.4077 73.3996 89.3355C72.8906 84.9221 70.9763 81.6589 68.5522 81.5524C66.128 81.446 63.9349 84.5287 63.0409 88.8805C63.7386 89.0144 64.3581 89.4355 64.6559 90.0891C65.4121 91.7491 65.2715 92.8645 64.468 94.355C64.1186 95.0032 63.4661 95.4056 62.7477 95.5039C63.2542 99.9245 65.17 103.195 67.5968 103.301C70.0235 103.408 72.2186 100.318 73.1108 95.9591C72.4038 95.7981 71.7891 95.3401 71.4979 94.6637C70.8283 93.1086 70.786 91.9851 71.6848 90.3979Z" fill="url(#paint4_linear_10906_7139)"/>
<path d="M73.3996 89.3355L73.4421 89.752L73.864 89.7089L73.8154 89.2876L73.3996 89.3355ZM71.6848 90.3979L71.3206 90.1916L71.6848 90.3979ZM63.0409 88.8805L62.6308 88.7963L62.5455 89.2118L62.962 89.2917L63.0409 88.8805ZM64.6559 90.0891L65.0369 89.9156L64.6559 90.0891ZM64.468 94.355L64.0995 94.1563L64.468 94.355ZM62.7477 95.5039L62.691 95.0891L62.2852 95.1446L62.3318 95.5516L62.7477 95.5039ZM73.1108 95.9591L73.521 96.043L73.6031 95.6418L73.2038 95.5509L73.1108 95.9591ZM71.4979 94.6637L71.1134 94.8293L71.4979 94.6637ZM73.357 88.9191C72.5388 89.0026 71.7522 89.4294 71.3206 90.1916L72.0491 90.6042C72.3254 90.1164 72.8469 89.8128 73.4421 89.752L73.357 88.9191ZM68.5338 81.9707C69.5481 82.0153 70.5272 82.7246 71.337 84.0474C72.142 85.3626 72.734 87.2189 72.9837 89.3835L73.8154 89.2876C73.5561 87.0388 72.9365 85.0568 72.0511 83.6103C71.1705 82.1716 69.9803 81.1961 68.5705 81.1342L68.5338 81.9707ZM63.451 88.9648C63.8895 86.8304 64.642 85.0331 65.5593 83.7937C66.4819 82.5469 67.5194 81.9261 68.5338 81.9707L68.5705 81.1342C67.1607 81.0723 65.8896 81.9397 64.8862 83.2956C63.8774 84.6588 63.0864 86.5789 62.6308 88.7963L63.451 88.9648ZM65.0369 89.9156C64.6737 89.1185 63.9275 88.6244 63.1198 88.4694L62.962 89.2917C63.5496 89.4044 64.0425 89.7526 64.2749 90.2627L65.0369 89.9156ZM64.8366 94.5536C65.2531 93.7809 65.5185 93.0682 65.5647 92.3111C65.6111 91.5508 65.4341 90.7875 65.0369 89.9156L64.2749 90.2627C64.6339 91.0507 64.7647 91.6751 64.729 92.2601C64.6931 92.8484 64.4864 93.4386 64.0995 94.1563L64.8366 94.5536ZM62.8045 95.9187C63.6381 95.8046 64.4159 95.3341 64.8366 94.5536L64.0995 94.1563C63.8214 94.6723 63.2942 95.0066 62.691 95.0891L62.8045 95.9187ZM67.6151 102.883C66.5997 102.838 65.6196 102.127 64.8094 100.802C64.0039 99.4842 63.4121 97.6244 63.1637 95.4562L62.3318 95.5516C62.5899 97.804 63.2092 99.7895 64.0949 101.239C64.9759 102.68 66.1671 103.657 67.5784 103.719L67.6151 102.883ZM72.7007 95.8751C72.2631 98.0132 71.5105 99.814 70.5926 101.056C69.6692 102.305 68.6306 102.928 67.6151 102.883L67.5784 103.719C68.9897 103.781 70.262 102.912 71.2659 101.554C72.2754 100.188 73.0664 98.2642 73.521 96.043L72.7007 95.8751ZM71.1134 94.8293C71.464 95.6437 72.1976 96.1805 73.0179 96.3673L73.2038 95.5509C72.6101 95.4157 72.1142 95.0365 71.8824 94.4982L71.1134 94.8293ZM71.3206 90.1916C70.8484 91.0253 70.6051 91.7701 70.5847 92.5316C70.5643 93.2898 70.7662 94.023 71.1134 94.8293L71.8824 94.4982C71.56 93.7493 71.4059 93.1432 71.4217 92.5541C71.4374 91.9682 71.6224 91.3576 72.0491 90.6042L71.3206 90.1916Z" fill="black" mask="url(#path-10-inside-1_10906_7139)"/>
<circle cx="68.4052" cy="84.8985" r="0.837295" transform="rotate(2.51533 68.4052 84.8985)" fill="black"/>
</g>
<path d="M97.8106 100.342C99.3094 98.5851 100.175 96.3763 100.269 94.0691C100.363 91.7619 99.6799 89.4899 98.329 87.6172M93.7073 97.1974C94.5484 96.3107 95.0472 95.1541 95.1146 93.9338C95.182 92.7134 94.8137 91.5089 94.0753 90.5349M97.6903 94.0386C97.6103 95.6257 97.0433 97.1496 96.0664 98.403C96.0642 98.4059 96.06 98.4064 96.057 98.4042V98.4042C96.0541 98.4019 96.0536 98.3977 96.0559 98.3948C97.031 97.1436 97.5971 95.6223 97.6769 94.0379C97.7568 92.4535 97.3465 90.883 96.5021 89.5401C96.5001 89.537 96.5011 89.5329 96.5042 89.5309V89.5309C96.5073 89.529 96.5114 89.5299 96.5134 89.533C97.3593 90.8782 97.7702 92.4514 97.6903 94.0386ZM92.5352 93.872C92.4881 94.4155 92.2697 94.9301 91.9115 95.3416C91.9112 95.342 91.9106 95.3421 91.9102 95.3417V95.3417C91.9098 95.3414 91.9097 95.3408 91.9101 95.3404C92.268 94.9291 92.4862 94.415 92.5333 93.8718C92.5803 93.3287 92.4539 92.7846 92.1721 92.318C92.1718 92.3175 92.1719 92.3169 92.1724 92.3166V92.3166C92.1728 92.3164 92.1734 92.3165 92.1737 92.317C92.4557 92.784 92.5823 93.3285 92.5352 93.872Z" stroke="white" stroke-width="1.03105" stroke-linecap="round"/>
<circle cx="241.935" cy="182.499" r="13.1176" transform="rotate(2.51533 241.935 182.499)" fill="#E40613"/>
<circle cx="255.039" cy="183.075" r="13.1176" transform="rotate(2.51533 255.039 183.075)" fill="url(#paint5_linear_10906_7139)"/>
<path d="M53.1948 184.339C52.6795 184.317 52.2353 184.203 51.8621 183.999C51.4889 183.795 51.2059 183.521 51.0131 183.177C50.8204 182.834 50.7337 182.441 50.7531 181.999L51.6364 182.038C51.6244 182.313 51.6768 182.57 51.7937 182.809C51.9108 183.043 52.0867 183.235 52.3215 183.386C52.5632 183.53 52.8647 183.611 53.2261 183.627C53.7012 183.647 54.0743 183.55 54.3453 183.334C54.6162 183.118 54.7592 182.839 54.7742 182.498C54.7866 182.217 54.7362 181.99 54.6231 181.817C54.5103 181.638 54.3525 181.49 54.1497 181.374C53.9537 181.258 53.7236 181.154 53.4594 181.062C53.202 180.97 52.9316 180.868 52.6482 180.755C52.1144 180.544 51.7231 180.295 51.4741 180.01C51.2255 179.717 51.111 179.347 51.1307 178.898C51.1405 178.523 51.242 178.196 51.4354 177.916C51.629 177.629 51.8933 177.413 52.2282 177.267C52.5702 177.114 52.9687 177.048 53.4237 177.068C53.8721 177.088 54.2565 177.188 54.5771 177.37C54.9043 177.552 55.1518 177.794 55.3196 178.097C55.494 178.399 55.5763 178.738 55.5666 179.113L54.6832 179.074C54.6918 178.88 54.65 178.687 54.5578 178.496C54.466 178.297 54.3189 178.133 54.1168 178.004C53.9213 177.874 53.6697 177.803 53.3618 177.789C52.9807 177.766 52.6619 177.849 52.4055 178.039C52.1558 178.229 52.0231 178.502 52.0075 178.856C51.9943 179.157 52.0678 179.392 52.2281 179.56C52.395 179.728 52.63 179.873 52.9331 179.993C53.2366 180.107 53.5861 180.24 53.9817 180.391C54.311 180.526 54.606 180.68 54.8666 180.852C55.1272 181.025 55.3256 181.241 55.4616 181.502C55.6044 181.763 55.6671 182.091 55.6497 182.486C55.635 182.821 55.5341 183.135 55.3468 183.428C55.1599 183.715 54.885 183.944 54.5221 184.116C54.1659 184.288 53.7235 184.363 53.1948 184.339ZM58.682 184.46C58.227 184.44 57.8738 184.314 57.6225 184.081C57.3712 183.849 57.2582 183.445 57.2835 182.87L57.4039 180.129L56.5406 180.091L56.5719 179.379L57.4352 179.417L57.5981 178.227L58.3309 178.259L58.2784 179.454L59.7439 179.518L59.7126 180.231L58.2471 180.166L58.1267 182.907C58.1129 183.221 58.167 183.438 58.2892 183.557C58.4116 183.67 58.6335 183.733 58.9547 183.748L59.4766 183.77L59.4449 184.493L58.682 184.46ZM62.6923 184.757C62.2172 184.736 61.8003 184.61 61.4417 184.38C61.0833 184.143 60.8056 183.825 60.6085 183.428C60.4181 183.031 60.3345 182.568 60.3577 182.039C60.3807 181.517 60.5044 181.067 60.7289 180.688C60.9537 180.302 61.2548 180.01 61.6323 179.812C62.0167 179.608 62.4532 179.516 62.9417 179.538C63.4235 179.559 63.8336 179.688 64.1719 179.924C64.5171 180.153 64.7756 180.45 64.9474 180.813C65.1192 181.175 65.1962 181.561 65.1782 181.969C65.175 182.043 65.1684 182.116 65.1585 182.19C65.1553 182.263 65.1516 182.347 65.1475 182.441L61.1825 182.266C61.1858 182.649 61.2589 182.97 61.4016 183.231C61.5513 183.486 61.7405 183.682 61.9691 183.82C62.2045 183.957 62.456 184.032 62.7236 184.044C63.0716 184.059 63.3662 183.992 63.6075 183.841C63.8488 183.691 64.029 183.481 64.1481 183.211L64.9813 183.248C64.8271 183.704 64.5526 184.077 64.1576 184.368C63.7697 184.653 63.2812 184.782 62.6923 184.757ZM62.8903 180.25C62.4888 180.232 62.1254 180.34 61.8 180.574C61.4815 180.801 61.2886 181.148 61.2212 181.614L64.353 181.752C64.3526 181.303 64.2142 180.945 63.9376 180.678C63.661 180.411 63.3119 180.268 62.8903 180.25ZM67.4135 184.843L65.7451 179.782L66.6284 179.82L67.941 184.052L69.6297 179.952L70.493 179.99L68.3871 184.886L67.4135 184.843ZM73.1909 185.218C72.7158 185.197 72.2989 185.071 71.9403 184.841C71.5819 184.604 71.3042 184.287 71.1071 183.889C70.9167 183.492 70.8331 183.029 70.8563 182.5C70.8793 181.978 71.003 181.528 71.2275 181.149C71.4523 180.763 71.7534 180.471 72.1309 180.273C72.5153 180.069 72.9518 179.977 73.4403 179.999C73.9221 180.02 74.3322 180.149 74.6704 180.385C75.0157 180.615 75.2742 180.911 75.446 181.274C75.6178 181.637 75.6947 182.022 75.6768 182.43C75.6736 182.504 75.667 182.578 75.6571 182.651C75.6538 182.724 75.6502 182.808 75.646 182.902L71.6811 182.728C71.6844 183.11 71.7574 183.432 71.9002 183.693C72.0499 183.947 72.2391 184.143 72.4677 184.281C72.703 184.419 72.9545 184.493 73.2222 184.505C73.5702 184.52 73.8648 184.453 74.1061 184.302C74.3474 184.152 74.5276 183.942 74.6467 183.673L75.4798 183.709C75.3257 184.165 75.0512 184.538 74.6562 184.83C74.2682 185.114 73.7798 185.244 73.1909 185.218ZM73.3889 180.711C72.9874 180.693 72.6239 180.801 72.2985 181.035C71.9801 181.262 71.7872 181.609 71.7198 182.076L74.8516 182.213C74.8512 181.764 74.7127 181.406 74.4362 181.139C74.1596 180.872 73.8105 180.729 73.3889 180.711ZM79.3292 185.367L79.6467 178.139L80.4898 178.176L80.2989 182.523L82.4288 180.514L83.4627 180.56L81.1556 182.711L83.525 185.551L82.451 185.504L80.2857 182.824L80.1724 185.404L79.3292 185.367ZM85.9991 185.78C85.5842 185.762 85.2426 185.677 84.9744 185.524C84.7062 185.372 84.5104 185.175 84.3868 184.935C84.2633 184.695 84.2075 184.438 84.2196 184.163C84.2419 183.655 84.4532 183.272 84.8534 183.015C85.2535 182.757 85.7882 182.643 86.4574 182.673L87.8025 182.732L87.8051 182.672C87.8242 182.237 87.7249 181.904 87.5071 181.673C87.2895 181.435 86.99 181.308 86.6086 181.291C86.2807 181.277 85.9926 181.348 85.7444 181.505C85.5031 181.655 85.3454 181.886 85.2714 182.198L84.4081 182.16C84.4575 181.8 84.5913 181.501 84.8096 181.263C85.0346 181.025 85.3072 180.849 85.6273 180.735C85.9477 180.615 86.2852 180.563 86.6399 180.579C87.3359 180.609 87.8496 180.82 88.1811 181.21C88.5196 181.593 88.6754 182.093 88.6483 182.709L88.5138 185.77L87.761 185.737L87.75 184.842C87.5972 185.116 87.3791 185.348 87.0959 185.537C86.8197 185.719 86.4541 185.8 85.9991 185.78ZM86.1609 185.073C86.4821 185.088 86.7601 185.016 86.995 184.859C87.2366 184.702 87.4234 184.492 87.5557 184.23C87.6879 183.967 87.7604 183.689 87.7734 183.394L87.7738 183.384L86.499 183.328C86.0038 183.307 85.6487 183.378 85.4336 183.543C85.2255 183.701 85.1158 183.908 85.1047 184.162C85.0932 184.423 85.1776 184.638 85.3579 184.807C85.5452 184.969 85.8129 185.058 86.1609 185.073ZM89.7787 185.826L89.9975 180.847L90.7603 180.88L90.7713 181.776C90.9457 181.469 91.1875 181.231 91.4965 181.064C91.8056 180.896 92.1509 180.821 92.5323 180.838C93.1212 180.863 93.5817 181.065 93.9138 181.441C94.2529 181.812 94.4061 182.368 94.3735 183.111L94.2456 186.022L93.4024 185.985L93.5263 183.164C93.5719 182.127 93.1664 181.59 92.3098 181.552C91.8815 181.533 91.5166 181.675 91.215 181.977C90.9205 182.272 90.7605 182.708 90.7353 183.283L90.6219 185.863L89.7787 185.826ZM97.3346 186.278C96.7457 186.252 96.2851 186.055 95.9527 185.685C95.6206 185.308 95.4709 184.748 95.5035 184.005L95.6314 181.094L96.4745 181.131L96.3506 183.952C96.3051 184.989 96.7072 185.527 97.5571 185.564C97.9921 185.583 98.3568 185.445 98.6514 185.149C98.953 184.848 99.1164 184.409 99.1417 183.833L99.255 181.254L100.098 181.291L99.8795 186.269L99.1166 186.236L99.0956 185.34C98.9279 185.648 98.6862 185.885 98.3704 186.052C98.0613 186.22 97.7161 186.295 97.3346 186.278Z" fill="white"/>
<path d="M225.751 81.2864C225.806 80.0182 225.129 79.0159 223.941 78.5715C224.525 78.111 224.852 77.4665 224.887 76.668C224.957 75.071 223.771 73.8581 221.908 73.7763L218.291 73.6174L217.837 83.9506L222.268 84.1452C224.288 84.234 225.674 83.0243 225.751 81.2864ZM221.687 75.2255C222.705 75.2702 223.262 75.8123 223.224 76.6734C223.186 77.5345 222.583 78.057 221.565 78.0123L219.733 77.9318L219.856 75.145L221.687 75.2255ZM224.078 81.1658C224.034 82.1522 223.334 82.7332 222.191 82.683L219.53 82.5661L219.671 79.3565L222.332 79.4735C223.475 79.5237 224.121 80.1795 224.078 81.1658Z" fill="white"/>
<path d="M225.765 80.44C225.623 82.6141 227.434 84.5918 229.644 84.6418C231.88 84.7871 233.858 82.9759 233.907 80.7976C234.049 78.6234 232.237 76.6615 229.996 76.6101C227.79 76.4818 225.815 78.2304 225.765 80.44ZM232.215 80.739C232.154 82.1324 231.072 83.183 229.71 83.1231C228.364 83.064 227.377 81.9539 227.44 80.5292C227.503 79.1045 228.584 78.0539 229.946 78.1138C231.277 78.1722 232.278 79.3143 232.215 80.739Z" fill="white"/>
<path d="M241.225 80.1622C241.306 78.3304 240.279 77.0618 238.479 76.9827C237.524 76.9408 236.743 77.2202 236.137 77.8053L236.17 77.0538L234.635 76.9864L234.298 84.6737L235.942 84.7459L236.143 80.1586C236.189 79.1096 236.957 78.4061 237.975 78.4508C238.977 78.4948 239.619 79.2446 239.572 80.3092L239.37 84.8965L241.014 84.9687L241.225 80.1622Z" fill="white"/>
<path d="M248.289 80.6294C248.38 78.5628 247.177 77.3648 245.283 77.2816C243.952 77.2231 242.786 77.7053 241.97 78.7832L242.882 79.7958C243.558 79.0568 244.201 78.7086 245.062 78.7464C246.111 78.7925 246.68 79.3979 246.633 80.4626L246.611 80.9636L244.435 80.868C242.697 80.7916 241.564 81.6046 241.505 82.9354C241.447 84.2661 242.472 85.2053 244.085 85.2762C245.134 85.3222 245.995 84.9993 246.588 84.3508L246.55 85.2119L248.085 85.2793L248.289 80.6294ZM246.553 82.2943C246.507 83.3433 245.596 84.072 244.485 84.0231C243.686 83.9881 243.155 83.5882 243.183 82.9463C243.211 82.3201 243.71 82.0283 244.586 82.0668L246.559 82.1534L246.553 82.2943Z" fill="white"/>
<path d="M251.373 76.3099C251.417 75.3236 251.933 75.0011 252.935 75.0452C253.123 75.0534 253.341 75.0787 253.59 75.121L253.652 73.7276C253.358 73.6206 253.016 73.5585 252.593 73.5399C250.902 73.4656 249.815 74.2963 249.736 76.0968L249.668 77.6468L248.572 77.5986L248.509 79.0234L249.605 79.0715L249.33 85.334L250.974 85.4062L251.249 79.1437L253.065 79.2235L253.128 77.7988L251.311 77.719L251.373 76.3099ZM254.324 85.5534L255.968 85.6256L256.306 77.9384L254.662 77.8662L254.324 85.5534ZM254.49 74.988C254.464 75.5986 254.944 76.0903 255.57 76.1178C256.181 76.1446 256.702 75.6969 256.729 75.0863C256.756 74.4757 256.276 73.9684 255.666 73.9416C255.039 73.9141 254.517 74.3774 254.49 74.988Z" fill="white"/>
<path d="M263.39 74.1868L263.171 79.1812C262.623 78.4512 261.717 78.0035 260.652 77.9568C258.525 77.8163 256.769 79.5745 256.718 81.8154C256.618 84.0855 258.139 85.8935 260.299 85.9885C261.442 86.0387 262.449 85.6123 263.048 84.8386L263 85.9345L264.534 86.0019L265.05 74.2597L263.39 74.1868ZM263.074 82.0946C263.001 83.7698 261.853 84.5508 260.647 84.4978C259.285 84.438 258.329 83.345 258.394 81.8733C258.459 80.4016 259.553 79.4144 260.868 79.4722C262.058 79.5244 263.147 80.435 263.074 82.0946Z" fill="white"/>
<path d="M272.653 83.0487C272.747 82.6921 272.809 82.3497 272.823 82.0209C272.911 80.0169 271.459 78.4315 269.424 78.3421C267.25 78.1995 265.32 79.9815 265.27 82.1911C265.171 84.4612 266.879 86.2775 269.228 86.3807C270.402 86.4322 271.437 86.0699 272.351 85.2786L271.617 84.117C270.902 84.6973 270.137 84.9618 269.339 84.9267C268.023 84.8689 267.071 84.0584 266.922 82.797L272.653 83.0487ZM267.01 81.5145C267.311 80.3826 268.22 79.6853 269.3 79.7328C270.38 79.7802 271.226 80.5233 271.19 81.6982L267.01 81.5145Z" fill="white"/>
<circle cx="205.487" cy="78.105" r="1.98861" transform="rotate(2.51533 205.487 78.105)" stroke="white" stroke-width="1.32574"/>
<circle cx="205.487" cy="78.1055" r="4.64009" transform="rotate(2.51533 205.487 78.1055)" stroke="white" stroke-width="1.32574"/>
<path d="M212.773 78.4243C212.596 82.4474 209.192 85.5656 205.168 85.3888C201.145 85.2121 198.027 81.8074 198.204 77.7843C198.381 73.7612 201.785 70.643 205.808 70.8198C209.832 70.9965 212.95 74.4012 212.773 78.4243Z" stroke="white" stroke-width="1.32574"/>
</g>
</g>
<g clip-path="url(#clip3_10906_7139)">
<rect x="13.8042" y="81.7296" width="262.212" height="153.831" rx="13.3967" transform="rotate(2.51533 13.8042 81.7296)" fill="url(#paint6_linear_10906_7139)"/>
<circle cx="22.7852" cy="87.1522" r="32.6545" transform="rotate(2.51533 22.7852 87.1522)" fill="url(#paint7_linear_10906_7139)"/>
<g clip-path="url(#clip4_10906_7139)">
<rect x="29.1011" y="115.087" width="27.6307" height="21.7697" rx="3.34918" transform="rotate(2.51533 29.1011 115.087)" fill="url(#paint8_linear_10906_7139)"/>
<path d="M48.1341 123.257C47.2276 123.217 46.3149 123.621 45.8531 124.436C45.3923 125.25 45.1636 125.961 45.1443 126.678C45.1251 127.394 45.3151 128.096 45.656 128.888C46.0447 129.79 46.9496 130.329 47.9088 130.371L56.0707 130.729C57.5721 130.795 58.8428 129.632 58.9087 128.13L58.9822 126.457C59.0482 124.956 57.8845 123.685 56.383 123.619L48.1341 123.257Z" fill="url(#paint9_linear_10906_7139)" stroke="black" stroke-width="0.418647"/>
<path d="M37.0283 122.769C37.9348 122.809 38.8087 123.291 39.1971 124.144C39.5848 124.995 39.7503 125.723 39.7065 126.44C39.6629 127.154 39.4122 127.837 39.0031 128.596C38.5368 129.461 37.5881 129.918 36.6289 129.875L28.467 129.517C26.9656 129.451 25.8019 128.18 25.8679 126.679L25.9414 125.006C26.0073 123.504 27.2779 122.341 28.7794 122.407L37.0283 122.769Z" fill="url(#paint10_linear_10906_7139)" stroke="black" stroke-width="0.418647"/>
<mask id="path-26-inside-2_10906_7139" fill="white">
<path fill-rule="evenodd" clip-rule="evenodd" d="M46.0364 124.54C46.3902 123.915 47.0441 123.55 47.7507 123.477C47.2418 119.064 45.3275 115.8 42.9032 115.694C40.4791 115.587 38.286 118.67 37.392 123.022C38.0898 123.156 38.7094 123.577 39.0072 124.231C39.7634 125.891 39.6228 127.006 38.8194 128.496C38.4699 129.145 37.8173 129.547 37.0988 129.645C37.6053 134.066 39.5211 137.336 41.9478 137.443C44.3746 137.549 46.5696 134.46 47.4619 130.101C46.7551 129.94 46.1406 129.482 45.8495 128.806C45.1798 127.25 45.1375 126.127 46.0364 124.54Z"/>
</mask>
<path fill-rule="evenodd" clip-rule="evenodd" d="M46.0364 124.54C46.3902 123.915 47.0441 123.55 47.7507 123.477C47.2418 119.064 45.3275 115.8 42.9032 115.694C40.4791 115.587 38.286 118.67 37.392 123.022C38.0898 123.156 38.7094 123.577 39.0072 124.231C39.7634 125.891 39.6228 127.006 38.8194 128.496C38.4699 129.145 37.8173 129.547 37.0988 129.645C37.6053 134.066 39.5211 137.336 41.9478 137.443C44.3746 137.549 46.5696 134.46 47.4619 130.101C46.7551 129.94 46.1406 129.482 45.8495 128.806C45.1798 127.25 45.1375 126.127 46.0364 124.54Z" fill="url(#paint11_linear_10906_7139)"/>
<path d="M47.7507 123.477L47.7933 123.894L48.2151 123.851L48.1666 123.429L47.7507 123.477ZM46.0364 124.54L45.6721 124.333L46.0364 124.54ZM37.392 123.022L36.9819 122.938L36.8966 123.353L37.3132 123.433L37.392 123.022ZM39.0072 124.231L38.6262 124.404L38.6262 124.404L39.0072 124.231ZM38.8194 128.496L39.1879 128.695L39.1879 128.695L38.8194 128.496ZM37.0988 129.645L37.0421 129.231L36.6363 129.286L36.6829 129.693L37.0988 129.645ZM47.4619 130.101L47.872 130.185L47.9541 129.784L47.5549 129.693L47.4619 130.101ZM45.8495 128.806L45.4649 128.971L45.4649 128.971L45.8495 128.806ZM47.7081 123.061C46.8901 123.145 46.1036 123.571 45.6721 124.333L46.4007 124.746C46.6768 124.258 47.1982 123.955 47.7933 123.894L47.7081 123.061ZM42.8849 116.112C43.8992 116.157 44.8783 116.866 45.6881 118.189C46.4931 119.504 47.0852 121.361 47.3348 123.525L48.1666 123.429C47.9072 121.181 47.2877 119.198 46.4023 117.752C45.5216 116.313 44.3315 115.338 42.9216 115.276L42.8849 116.112ZM37.8021 123.106C38.2406 120.972 38.9931 119.175 39.9103 117.935C40.833 116.688 41.8705 116.068 42.8849 116.112L42.9216 115.276C41.5118 115.214 40.2407 116.081 39.2373 117.437C38.2285 118.8 37.4375 120.72 36.9819 122.938L37.8021 123.106ZM39.3882 124.057C39.025 123.26 38.2787 122.766 37.4709 122.611L37.3132 123.433C37.9008 123.546 38.3938 123.894 38.6262 124.404L39.3882 124.057ZM39.1879 128.695C39.6044 127.922 39.8698 127.21 39.916 126.453C39.9624 125.692 39.7854 124.929 39.3882 124.057L38.6262 124.404C38.9852 125.192 39.116 125.817 39.0803 126.402C39.0444 126.99 38.8377 127.58 38.4508 128.298L39.1879 128.695ZM37.1555 130.06C37.9892 129.946 38.7671 129.476 39.1879 128.695L38.4508 128.298C38.1727 128.814 37.6454 129.148 37.0421 129.231L37.1555 130.06ZM41.9662 137.024C40.9508 136.98 39.9707 136.269 39.1604 134.943C38.355 133.626 37.7632 131.766 37.5147 129.598L36.6829 129.693C36.941 131.945 37.5603 133.931 38.446 135.38C39.327 136.821 40.5181 137.799 41.9295 137.861L41.9662 137.024ZM47.0517 130.017C46.6141 132.155 45.8615 133.956 44.9436 135.198C44.0203 136.447 42.9816 137.069 41.9662 137.024L41.9295 137.861C43.3408 137.923 44.613 137.054 45.617 135.695C46.6264 134.329 47.4174 132.406 47.872 130.185L47.0517 130.017ZM45.4649 128.971C45.8155 129.785 46.5488 130.322 47.3689 130.509L47.5549 129.693C46.9614 129.557 46.4657 129.178 46.234 128.64L45.4649 128.971ZM45.6721 124.333C45.1999 125.167 44.9567 125.912 44.9362 126.673C44.9159 127.432 45.1178 128.165 45.4649 128.971L46.234 128.64C45.9115 127.891 45.7574 127.285 45.7732 126.696C45.789 126.11 45.974 125.499 46.4007 124.746L45.6721 124.333Z" fill="black" mask="url(#path-26-inside-2_10906_7139)"/>
<circle cx="42.7558" cy="119.04" r="0.837295" transform="rotate(2.51533 42.7558 119.04)" fill="black"/>
</g>
<path d="M72.1612 134.483C73.66 132.726 74.5257 130.518 74.6197 128.21C74.7137 125.903 74.0305 123.631 72.6796 121.758M68.0578 131.339C68.899 130.452 69.3978 129.295 69.4652 128.075C69.5326 126.855 69.1643 125.65 68.4259 124.676M72.0408 128.18C71.9609 129.767 71.3938 131.291 70.417 132.544C70.4147 132.547 70.4105 132.548 70.4076 132.545V132.545C70.4047 132.543 70.4042 132.539 70.4065 132.536C71.3816 131.285 71.9477 129.764 72.0275 128.179C72.1074 126.595 71.6971 125.024 70.8527 123.681C70.8507 123.678 70.8517 123.674 70.8548 123.672V123.672C70.8579 123.67 70.862 123.671 70.864 123.674C71.7099 125.019 72.1208 126.593 72.0408 128.18ZM66.8858 128.013C66.8386 128.557 66.6203 129.071 66.2621 129.483C66.2618 129.483 66.2612 129.483 66.2608 129.483V129.483C66.2604 129.483 66.2603 129.482 66.2607 129.482C66.6186 129.07 66.8368 128.556 66.8838 128.013C66.9309 127.47 66.8044 126.926 66.5226 126.459C66.5224 126.459 66.5225 126.458 66.523 126.458V126.458C66.5234 126.458 66.524 126.458 66.5243 126.458C66.8063 126.925 66.9329 127.47 66.8858 128.013Z" stroke="white" stroke-width="1.03105" stroke-linecap="round"/>
<circle cx="216.557" cy="216.652" r="13.1176" transform="rotate(2.51533 216.557 216.652)" fill="#E40613"/>
<circle cx="229.661" cy="217.228" r="13.1176" transform="rotate(2.51533 229.661 217.228)" fill="url(#paint12_linear_10906_7139)"/>
<path d="M28.3288 218.515C27.673 218.486 27.1041 218.31 26.6222 217.987C26.1405 217.658 25.7744 217.216 25.5238 216.662C25.2735 216.101 25.1641 215.463 25.1956 214.747C25.227 214.03 25.392 213.404 25.6905 212.867C25.9957 212.331 26.4093 211.92 26.9314 211.635C27.4602 211.349 28.0726 211.222 28.7685 211.253C29.5582 211.287 30.2056 211.507 30.7108 211.911C31.2227 212.316 31.5409 212.856 31.6654 213.532L30.6918 213.489C30.6166 213.064 30.4071 212.719 30.0633 212.456C29.7262 212.193 29.2833 212.05 28.7346 212.026C28.2193 212.003 27.7658 212.1 27.3741 212.318C26.9826 212.529 26.6704 212.843 26.4375 213.262C26.2112 213.681 26.085 214.189 26.0588 214.784C26.0327 215.38 26.1139 215.897 26.3026 216.334C26.4912 216.771 26.7644 217.115 27.1222 217.366C27.4802 217.609 27.9035 217.742 28.392 217.763C29.1415 217.796 29.7165 217.604 30.1171 217.185C30.5179 216.76 30.7619 216.168 30.8489 215.407L28.8213 215.318L28.8504 214.656L31.7413 214.783L31.5763 218.537L30.8034 218.503L30.7839 217.345C30.5117 217.742 30.1867 218.043 29.8089 218.248C29.4312 218.453 28.9378 218.542 28.3288 218.515ZM35.0927 218.812C34.6176 218.791 34.2007 218.665 33.842 218.435C33.4837 218.198 33.206 217.881 33.0089 217.483C32.8185 217.086 32.7349 216.623 32.7581 216.095C32.781 215.573 32.9048 215.122 33.1293 214.743C33.354 214.357 33.6552 214.065 34.0326 213.868C34.4171 213.663 34.8536 213.572 35.3421 213.593C35.8239 213.614 36.2339 213.743 36.5722 213.979C36.9175 214.209 37.176 214.505 37.3478 214.868C37.5196 215.231 37.5965 215.616 37.5786 216.025C37.5754 216.098 37.5688 216.172 37.5588 216.245C37.5556 216.319 37.5519 216.402 37.5478 216.496L33.5829 216.322C33.5862 216.704 33.6592 217.026 33.802 217.287C33.9517 217.542 34.1409 217.738 34.3695 217.875C34.6048 218.013 34.8563 218.088 35.124 218.099C35.472 218.115 35.7666 218.047 36.0079 217.897C36.2492 217.746 36.4294 217.536 36.5485 217.267L37.3816 217.303C37.2275 217.759 36.953 218.133 36.558 218.424C36.17 218.708 35.6816 218.838 35.0927 218.812ZM35.2907 214.305C34.8892 214.287 34.5257 214.395 34.2003 214.629C33.8819 214.857 33.689 215.203 33.6216 215.67L36.7534 215.807C36.753 215.358 36.6145 215 36.3379 214.733C36.0614 214.466 35.7123 214.323 35.2907 214.305ZM40.8377 219.064C40.3693 219.044 39.9524 218.918 39.5871 218.688C39.2217 218.457 38.9372 218.143 38.7334 217.745C38.5366 217.341 38.4498 216.874 38.473 216.346C38.4962 215.817 38.6268 215.363 38.8647 214.985C39.1029 214.6 39.414 214.308 39.7982 214.111C40.189 213.913 40.6187 213.825 41.0871 213.846C41.5555 213.866 41.9724 213.992 42.3378 214.222C42.7031 214.453 42.9842 214.77 43.181 215.175C43.3847 215.572 43.475 216.036 43.4518 216.564C43.4286 217.093 43.2979 217.55 43.0597 217.935C42.8218 218.313 42.5074 218.601 42.1166 218.799C41.7325 218.996 41.3062 219.085 40.8377 219.064ZM40.8695 218.342C41.1572 218.354 41.428 218.296 41.6818 218.166C41.9355 218.036 42.1456 217.834 42.3118 217.56C42.4781 217.286 42.5703 216.941 42.5885 216.526C42.6068 216.111 42.5451 215.76 42.4035 215.472C42.2687 215.185 42.0805 214.965 41.8391 214.814C41.5976 214.662 41.3364 214.581 41.0553 214.568C40.7676 214.556 40.4968 214.614 40.2431 214.744C39.9893 214.873 39.7793 215.075 39.613 215.35C39.4467 215.624 39.3545 215.969 39.3363 216.383C39.3181 216.798 39.3797 217.15 39.5213 217.438C39.6629 217.725 39.851 217.945 40.0857 218.096C40.3272 218.247 40.5884 218.329 40.8695 218.342ZM44.5148 219.105L44.7335 214.126L45.4964 214.16L45.5248 215.117C45.6931 214.795 45.9388 214.545 46.2618 214.365C46.5849 214.184 46.9773 214.104 47.439 214.125L47.4002 215.008L47.1693 214.998C46.8749 214.985 46.6015 215.026 46.3492 215.123C46.0972 215.212 45.8922 215.377 45.7341 215.619C45.576 215.86 45.4874 216.198 45.4682 216.633L45.358 219.142L44.5148 219.105ZM50.08 217.781C49.7989 217.768 49.5429 217.72 49.3119 217.636L48.7893 218.086C48.8606 218.143 48.9488 218.194 49.0541 218.239C49.1664 218.277 49.3256 218.317 49.5315 218.36C49.7378 218.396 50.0276 218.439 50.4009 218.489C51.068 218.565 51.5397 218.74 51.816 219.014C52.0923 219.287 52.2212 219.635 52.2027 220.056C52.19 220.344 52.0977 220.615 51.9256 220.869C51.7602 221.123 51.5099 221.327 51.1746 221.48C50.8461 221.633 50.4275 221.698 49.9189 221.676C49.4706 221.656 49.075 221.578 48.7324 221.443C48.3894 221.314 48.1261 221.124 47.9427 220.875C47.7589 220.632 47.6749 220.33 47.6908 219.969C47.699 219.781 47.7582 219.58 47.8683 219.363C47.9781 219.153 48.1744 218.958 48.4573 218.775C48.3127 218.709 48.1884 218.64 48.0842 218.568C47.9871 218.49 47.8969 218.406 47.8138 218.315L47.8239 218.084L48.7142 217.278C48.334 216.926 48.156 216.476 48.1801 215.927C48.1945 215.599 48.2846 215.305 48.4502 215.044C48.6159 214.783 48.8494 214.582 49.1506 214.441C49.4521 214.293 49.8136 214.229 50.2352 214.247C50.5229 214.26 50.7822 214.312 51.0129 214.402L52.8498 214.483L52.822 215.115L51.8867 215.114C52.0684 215.404 52.1512 215.733 52.135 216.101C52.1206 216.429 52.0273 216.723 51.8549 216.984C51.6892 217.245 51.4556 217.449 51.1541 217.597C50.8596 217.738 50.5016 217.799 50.08 217.781ZM50.1104 217.088C50.4651 217.104 50.7501 217.026 50.9655 216.854C51.1879 216.676 51.3067 216.413 51.322 216.065C51.337 215.724 51.2414 215.458 51.0352 215.268C50.8359 215.072 50.559 214.966 50.2043 214.95C49.843 214.934 49.5511 215.015 49.3287 215.193C49.1133 215.365 48.9981 215.621 48.9832 215.962C48.9679 216.31 49.0598 216.583 49.2591 216.779C49.4653 216.969 49.749 217.072 50.1104 217.088ZM48.5174 219.925C48.5027 220.259 48.6324 220.513 48.9064 220.686C49.1801 220.866 49.5278 220.965 49.9493 220.983C50.3642 221.001 50.6995 220.926 50.955 220.756C51.2172 220.586 51.355 220.351 51.3682 220.05C51.3776 219.836 51.2988 219.645 51.1319 219.476C50.9647 219.315 50.6474 219.21 50.1802 219.163C49.8133 219.12 49.4969 219.073 49.231 219.021C48.9501 219.156 48.7626 219.305 48.6682 219.469C48.5736 219.639 48.5233 219.791 48.5174 219.925ZM55.6193 219.714C55.1442 219.693 54.7273 219.567 54.3687 219.337C54.0103 219.1 53.7326 218.783 53.5355 218.385C53.3451 217.988 53.2615 217.525 53.2847 216.996C53.3077 216.474 53.4314 216.024 53.6559 215.645C53.8807 215.259 54.1818 214.967 54.5593 214.769C54.9437 214.565 55.3802 214.473 55.8687 214.495C56.3505 214.516 56.7606 214.645 57.0988 214.881C57.4441 215.111 57.7026 215.407 57.8744 215.77C58.0462 216.133 58.1232 216.518 58.1052 216.926C58.102 217 58.0954 217.073 58.0855 217.147C58.0823 217.22 58.0786 217.304 58.0745 217.398L54.1095 217.224C54.1128 217.606 54.1859 217.928 54.3286 218.189C54.4783 218.443 54.6675 218.639 54.8961 218.777C55.1315 218.914 55.383 218.989 55.6506 219.001C55.9986 219.016 56.2932 218.949 56.5345 218.798C56.7758 218.648 56.956 218.438 57.0751 218.168L57.9083 218.205C57.7541 218.661 57.4796 219.034 57.0846 219.325C56.6967 219.61 56.2082 219.74 55.6193 219.714ZM55.8173 215.207C55.4158 215.189 55.0523 215.297 54.727 215.531C54.4085 215.758 54.2156 216.105 54.1482 216.572L57.28 216.709C57.2796 216.26 57.1412 215.902 56.8646 215.635C56.588 215.368 56.2389 215.225 55.8173 215.207ZM64.8841 220.121C64.1949 220.09 63.6059 219.914 63.1172 219.59C62.6355 219.261 62.2694 218.819 62.0189 218.265C61.7686 217.704 61.6593 217.062 61.6911 216.34C61.7226 215.624 61.8874 215.001 62.1855 214.471C62.484 213.934 62.8876 213.523 63.3963 213.237C63.9118 212.951 64.5141 212.823 65.2034 212.853C66.0064 212.889 66.6503 213.111 67.1352 213.521C67.627 213.925 67.928 214.475 68.0383 215.17L67.1048 215.129C67.0168 214.69 66.8113 214.332 66.4881 214.056C66.172 213.774 65.7329 213.621 65.1707 213.596C64.6688 213.574 64.2254 213.672 63.8403 213.89C63.4556 214.101 63.15 214.419 62.9234 214.845C62.7038 215.264 62.5808 215.775 62.5544 216.378C62.5279 216.98 62.6055 217.503 62.7871 217.947C62.9758 218.384 63.2523 218.728 63.6168 218.979C63.9815 219.223 64.4149 219.356 64.9167 219.378C65.4789 219.403 65.9295 219.295 66.2685 219.055C66.6146 218.809 66.8506 218.474 66.9765 218.05L67.91 218.091C67.7398 218.761 67.392 219.275 66.8666 219.634C66.348 219.994 65.6871 220.156 64.8841 220.121ZM71.2454 220.4C70.7769 220.38 70.3601 220.254 69.9947 220.023C69.6294 219.793 69.3448 219.479 69.141 219.081C68.9442 218.676 68.8574 218.21 68.8807 217.681C68.9039 217.153 69.0344 216.699 69.2723 216.321C69.5105 215.936 69.8217 215.644 70.2058 215.447C70.5967 215.249 71.0263 215.161 71.4947 215.181C71.9632 215.202 72.3801 215.327 72.7454 215.558C73.1107 215.789 73.3918 216.106 73.5886 216.51C73.7924 216.908 73.8827 217.371 73.8594 217.9C73.8362 218.429 73.7055 218.886 73.4673 219.271C73.2295 219.649 72.9151 219.937 72.5243 220.134C72.1401 220.332 71.7138 220.421 71.2454 220.4ZM71.2771 219.677C71.5649 219.69 71.8356 219.632 72.0894 219.502C72.3432 219.372 72.5532 219.17 72.7195 218.896C72.8857 218.622 72.978 218.277 72.9962 217.862C73.0144 217.447 72.9527 217.096 72.8112 216.808C72.6763 216.521 72.4882 216.301 72.2467 216.15C72.0053 215.998 71.7441 215.916 71.463 215.904C71.1752 215.891 70.9045 215.95 70.6507 216.08C70.3969 216.209 70.1869 216.411 70.0207 216.685C69.8544 216.96 69.7622 217.304 69.7439 217.719C69.7257 218.134 69.7874 218.486 69.9289 218.773C70.0705 219.061 70.2587 219.281 70.4934 219.432C70.7348 219.583 70.9961 219.665 71.2771 219.677ZM74.9225 220.441L75.24 213.214L76.0831 213.251L75.7657 220.478L74.9225 220.441ZM77.1477 220.539L77.4652 213.311L78.3083 213.348L77.9909 220.576L77.1477 220.539ZM80.152 214.576C79.9847 214.569 79.8465 214.509 79.7375 214.397C79.6354 214.278 79.588 214.136 79.5954 213.968C79.6024 213.808 79.6619 213.676 79.7736 213.574C79.8921 213.472 80.035 213.424 80.2023 213.432C80.3629 213.439 80.4977 213.498 80.6068 213.61C80.7158 213.722 80.7668 213.859 80.7598 214.019C80.7524 214.187 80.6894 214.325 80.5706 214.433C80.4522 214.536 80.3126 214.583 80.152 214.576ZM79.4632 220.64L79.6819 215.662L80.5251 215.699L80.3064 220.677L79.4632 220.64ZM81.7745 220.742L81.9932 215.763L82.7561 215.797L82.767 216.692C82.9415 216.385 83.1832 216.147 83.4923 215.98C83.8013 215.812 84.1466 215.737 84.528 215.754C85.1169 215.78 85.5774 215.981 85.9095 216.358C86.2486 216.728 86.4018 217.284 86.3692 218.027L86.2413 220.938L85.3982 220.901L85.5221 218.08C85.5676 217.043 85.1621 216.506 84.3056 216.468C83.8773 216.449 83.5124 216.591 83.2108 216.893C82.9162 217.188 82.7563 217.624 82.731 218.199L82.6177 220.779L81.7745 220.742ZM89.4207 221.199C88.8251 221.172 88.3366 221 87.955 220.682C87.5734 220.363 87.3604 219.945 87.3161 219.427L88.1794 219.464C88.2215 219.728 88.3487 219.961 88.561 220.165C88.7803 220.362 89.0806 220.47 89.4621 220.486C89.8167 220.502 90.081 220.44 90.2547 220.3C90.4288 220.153 90.5204 219.976 90.5295 219.769C90.5427 219.468 90.4411 219.262 90.2247 219.152C90.015 219.042 89.7144 218.939 89.3231 218.841C89.0578 218.776 88.7935 218.687 88.5303 218.575C88.267 218.463 88.049 218.312 87.8762 218.124C87.7038 217.928 87.6242 217.68 87.6374 217.379C87.6565 216.944 87.8327 216.596 88.166 216.336C88.5062 216.069 88.9541 215.948 89.5095 215.973C90.0381 215.996 90.4639 216.149 90.7867 216.431C91.1166 216.707 91.2975 217.09 91.3296 217.581L90.4964 217.545C90.4741 217.289 90.3724 217.087 90.1912 216.938C90.017 216.783 89.776 216.698 89.4681 216.685C89.167 216.672 88.93 216.725 88.7571 216.845C88.5909 216.965 88.5033 217.129 88.4942 217.336C88.4853 217.537 88.5822 217.699 88.7846 217.822C88.9937 217.945 89.2772 218.054 89.6351 218.151C89.94 218.231 90.2274 218.327 90.4973 218.44C90.7743 218.546 90.9955 218.7 91.161 218.901C91.3334 219.097 91.4117 219.375 91.3958 219.736C91.3828 220.185 91.1959 220.549 90.8349 220.828C90.481 221.101 90.0096 221.224 89.4207 221.199Z" fill="white"/>
<path d="M200.354 115.883C200.409 114.615 199.732 113.612 198.544 113.168C199.128 112.708 199.455 112.063 199.49 111.265C199.56 109.668 198.374 108.455 196.511 108.373L192.894 108.214L192.44 118.547L196.871 118.742C198.891 118.831 200.277 117.621 200.354 115.883ZM196.29 109.822C197.308 109.867 197.865 110.409 197.827 111.27C197.789 112.131 197.186 112.654 196.168 112.609L194.336 112.528L194.459 109.742L196.29 109.822ZM198.681 115.762C198.637 116.749 197.937 117.33 196.794 117.28L194.133 117.163L194.274 113.953L196.935 114.07C198.078 114.12 198.724 114.776 198.681 115.762Z" fill="white"/>
<path d="M200.368 115.037C200.226 117.211 202.037 119.188 204.247 119.238C206.483 119.384 208.461 117.572 208.51 115.394C208.652 113.22 206.84 111.258 204.599 111.207C202.393 111.078 200.418 112.827 200.368 115.037ZM206.818 115.336C206.757 116.729 205.675 117.78 204.313 117.72C202.967 117.661 201.98 116.551 202.043 115.126C202.106 113.701 203.187 112.651 204.549 112.71C205.88 112.769 206.881 113.911 206.818 115.336Z" fill="white"/>
<path d="M215.828 114.759C215.909 112.927 214.882 111.658 213.082 111.579C212.127 111.537 211.346 111.817 210.74 112.402L210.773 111.65L209.238 111.583L208.901 119.27L210.545 119.342L210.746 114.755C210.792 113.706 211.56 113.003 212.578 113.047C213.58 113.091 214.222 113.841 214.175 114.906L213.973 119.493L215.617 119.565L215.828 114.759Z" fill="white"/>
<path d="M222.892 115.226C222.983 113.159 221.78 111.961 219.886 111.878C218.555 111.82 217.389 112.302 216.573 113.38L217.485 114.392C218.161 113.653 218.804 113.305 219.665 113.343C220.714 113.389 221.283 113.994 221.236 115.059L221.214 115.56L219.038 115.465C217.3 115.388 216.167 116.201 216.108 117.532C216.05 118.863 217.075 119.802 218.688 119.873C219.737 119.919 220.598 119.596 221.191 118.947L221.153 119.808L222.688 119.876L222.892 115.226ZM221.156 116.891C221.11 117.94 220.199 118.669 219.088 118.62C218.289 118.585 217.758 118.185 217.786 117.543C217.814 116.917 218.313 116.625 219.19 116.663L221.162 116.75L221.156 116.891Z" fill="white"/>
<path d="M225.976 110.906C226.02 109.92 226.536 109.598 227.538 109.642C227.726 109.65 227.944 109.675 228.193 109.718L228.255 108.324C227.961 108.217 227.619 108.155 227.196 108.136C225.505 108.062 224.418 108.893 224.339 110.693L224.271 112.243L223.175 112.195L223.112 113.62L224.208 113.668L223.933 119.931L225.577 120.003L225.852 113.74L227.668 113.82L227.731 112.395L225.915 112.316L225.976 110.906ZM228.927 120.15L230.571 120.222L230.909 112.535L229.265 112.463L228.927 120.15ZM229.093 109.585C229.067 110.195 229.547 110.687 230.173 110.714C230.784 110.741 231.305 110.293 231.332 109.683C231.359 109.072 230.879 108.565 230.269 108.538C229.643 108.511 229.12 108.974 229.093 109.585Z" fill="white"/>
<path d="M237.993 108.783L237.774 113.778C237.226 113.048 236.32 112.6 235.255 112.553C233.128 112.413 231.372 114.171 231.321 116.412C231.221 118.682 232.742 120.49 234.902 120.585C236.045 120.635 237.052 120.209 237.651 119.435L237.603 120.531L239.137 120.598L239.653 108.856L237.993 108.783ZM237.677 116.691C237.604 118.366 236.456 119.147 235.25 119.094C233.888 119.035 232.932 117.942 232.997 116.47C233.062 114.998 234.156 114.011 235.471 114.069C236.661 114.121 237.75 115.032 237.677 116.691Z" fill="white"/>
<path d="M247.256 117.645C247.35 117.289 247.412 116.946 247.426 116.617C247.514 114.613 246.062 113.028 244.027 112.939C241.853 112.796 239.923 114.578 239.873 116.788C239.774 119.058 241.482 120.874 243.831 120.977C245.005 121.029 246.04 120.666 246.954 119.875L246.22 118.714C245.505 119.294 244.74 119.558 243.942 119.523C242.626 119.465 241.674 118.655 241.525 117.394L247.256 117.645ZM241.613 116.111C241.914 114.979 242.823 114.282 243.903 114.329C244.983 114.377 245.829 115.12 245.793 116.295L241.613 116.111Z" fill="white"/>
<circle cx="180.09" cy="112.702" r="1.98861" transform="rotate(2.51533 180.09 112.702)" stroke="white" stroke-width="1.32574"/>
<circle cx="180.091" cy="112.702" r="4.64009" transform="rotate(2.51533 180.091 112.702)" stroke="white" stroke-width="1.32574"/>
<path d="M187.376 113.022C187.199 117.045 183.795 120.163 179.771 119.986C175.748 119.809 172.63 116.405 172.807 112.382C172.984 108.358 176.388 105.24 180.411 105.417C184.435 105.594 187.553 108.998 187.376 113.022Z" stroke="white" stroke-width="1.32574"/>
</g>
<g filter="url(#filter1_dd_10906_7139)">
<g clip-path="url(#clip5_10906_7139)">
<rect x="-8.64258" y="122.036" width="262.212" height="153.831" rx="13.3967" transform="rotate(2.36868 -8.64258 122.036)" fill="#D7D1F0"/>
<circle cx="0.351714" cy="127.436" r="32.6545" transform="rotate(2.36868 0.351714 127.436)" fill="url(#paint13_linear_10906_7139)"/>
<g clip-path="url(#clip6_10906_7139)">
<rect x="6.73926" y="155.355" width="27.6307" height="21.7697" rx="3.34918" transform="rotate(2.36868 6.73926 155.355)" fill="url(#paint14_linear_10906_7139)"/>
<path d="M25.7945 163.476C24.8879 163.438 23.9762 163.844 23.5165 164.661C23.0578 165.476 22.8309 166.187 22.8135 166.905C22.7961 167.621 22.9878 168.322 23.3309 169.113C23.7218 170.015 24.6281 170.551 25.5874 170.59L33.7502 170.928C35.2518 170.99 36.5194 169.823 36.5815 168.322L36.6508 166.648C36.7129 165.147 35.5459 163.879 34.0443 163.817L25.7945 163.476Z" fill="url(#paint15_linear_10906_7139)" stroke="black" stroke-width="0.418647"/>
<path d="M14.6866 163.016C15.5933 163.054 16.4684 163.534 16.859 164.385C17.2489 165.235 17.4162 165.964 17.3743 166.68C17.3325 167.395 17.0835 168.078 16.6763 168.838C16.2123 169.704 15.2648 170.163 14.3055 170.124L6.14269 169.786C4.64109 169.724 3.47416 168.456 3.53627 166.955L3.60548 165.282C3.66759 163.78 4.93523 162.613 6.43683 162.675L14.6866 163.016Z" fill="url(#paint16_linear_10906_7139)" stroke="black" stroke-width="0.418647"/>
<mask id="path-42-inside-3_10906_7139" fill="white">
<path fill-rule="evenodd" clip-rule="evenodd" d="M23.6979 164.764C24.0503 164.138 24.7036 163.771 25.4103 163.697C24.8901 159.285 22.9674 156.027 20.543 155.927C18.1185 155.826 15.9334 158.915 15.0505 163.269C15.7485 163.401 16.3691 163.82 16.6685 164.473C17.429 166.131 17.2912 167.247 16.4916 168.739C16.1439 169.388 15.4924 169.793 14.7743 169.893C15.2921 174.312 17.2162 177.577 19.6432 177.678C22.0702 177.778 24.2574 174.683 25.1384 170.322C24.4309 170.163 23.8149 169.706 23.5219 169.03C22.8483 167.477 22.8031 166.354 23.6979 164.764Z"/>
</mask>
<path fill-rule="evenodd" clip-rule="evenodd" d="M23.6979 164.764C24.0503 164.138 24.7036 163.771 25.4103 163.697C24.8901 159.285 22.9674 156.027 20.543 155.927C18.1185 155.826 15.9334 158.915 15.0505 163.269C15.7485 163.401 16.3691 163.82 16.6685 164.473C17.429 166.131 17.2912 167.247 16.4916 168.739C16.1439 169.388 15.4924 169.793 14.7743 169.893C15.2921 174.312 17.2162 177.577 19.6432 177.678C22.0702 177.778 24.2574 174.683 25.1384 170.322C24.4309 170.163 23.8149 169.706 23.5219 169.03C22.8483 167.477 22.8031 166.354 23.6979 164.764Z" fill="url(#paint17_linear_10906_7139)"/>
<path d="M25.4103 163.697L25.4538 164.114L25.8757 164.07L25.8261 163.648L25.4103 163.697ZM23.6979 164.764L24.0628 164.969L23.6979 164.764ZM15.0505 163.269L14.6402 163.185L14.5559 163.601L14.9727 163.68L15.0505 163.269ZM16.6685 164.473L16.288 164.648L16.6685 164.473ZM16.4916 168.739L16.8606 168.937L16.4916 168.739ZM14.7743 169.893L14.7164 169.478L14.3108 169.535L14.3585 169.941L14.7743 169.893ZM25.1384 170.322L25.5488 170.405L25.6299 170.003L25.2303 169.913L25.1384 170.322ZM23.5219 169.03L23.1378 169.197L23.5219 169.03ZM25.3667 163.281C24.5486 163.367 23.7629 163.795 23.3331 164.559L24.0628 164.969C24.3378 164.481 24.8587 164.176 25.4538 164.114L25.3667 163.281ZM20.5257 156.345C21.5401 156.387 22.5211 157.094 23.3342 158.414C24.1426 159.728 24.7394 161.582 24.9945 163.746L25.8261 163.648C25.561 161.4 24.9363 159.42 24.0472 157.975C23.1629 156.539 21.9703 155.567 20.5603 155.508L20.5257 156.345ZM15.4608 163.352C15.8938 161.216 16.6418 159.417 17.5558 158.175C18.4753 156.926 19.5112 156.303 20.5257 156.345L20.5603 155.508C19.1503 155.45 17.8814 156.321 16.8815 157.679C15.8762 159.045 15.0901 160.967 14.6402 163.185L15.4608 163.352ZM17.0491 164.299C16.6839 163.502 15.9365 163.01 15.1284 162.857L14.9727 163.68C15.5605 163.791 16.0543 164.138 16.288 164.648L17.0491 164.299ZM16.8606 168.937C17.2752 168.163 17.5388 167.45 17.583 166.693C17.6275 165.932 17.4485 165.169 17.0491 164.299L16.288 164.648C16.649 165.435 16.7814 166.059 16.7472 166.644C16.7128 167.232 16.5076 167.823 16.1226 168.542L16.8606 168.937ZM14.8321 170.307C15.6654 170.191 16.4419 169.719 16.8606 168.937L16.1226 168.542C15.8458 169.058 15.3195 169.394 14.7164 169.478L14.8321 170.307ZM19.6605 177.259C18.645 177.217 17.6631 176.509 16.8494 175.186C16.0406 173.87 15.444 172.012 15.1901 169.844L14.3585 169.941C14.6223 172.193 15.2467 174.177 16.1361 175.624C17.0208 177.063 18.2144 178.037 19.6259 178.096L19.6605 177.259ZM24.7281 170.239C24.2959 172.378 23.5479 174.181 22.6332 175.425C21.7131 176.677 20.6761 177.301 19.6605 177.259L19.6259 178.096C21.0374 178.154 22.3074 177.282 23.3079 175.921C24.3138 174.552 25.0999 172.627 25.5488 170.405L24.7281 170.239ZM23.1378 169.197C23.4906 170.011 24.2257 170.546 25.0466 170.73L25.2303 169.913C24.6361 169.78 24.1392 169.402 23.906 168.864L23.1378 169.197ZM23.3331 164.559C22.8631 165.394 22.6217 166.139 22.6032 166.901C22.5848 167.659 22.7886 168.392 23.1378 169.197L23.906 168.864C23.5816 168.116 23.426 167.51 23.4403 166.921C23.4545 166.335 23.638 165.724 24.0628 164.969L23.3331 164.559Z" fill="black" mask="url(#path-42-inside-3_10906_7139)"/>
<circle cx="20.405" cy="159.272" r="0.837295" transform="rotate(2.36868 20.405 159.272)" fill="black"/>
</g>
<path d="M49.8493 174.64C51.3436 172.88 52.2037 170.669 52.2918 168.361C52.3798 166.054 51.6908 163.784 50.3351 161.914M45.7379 171.506C46.5768 170.617 47.0726 169.46 47.1369 168.239C47.2012 167.019 46.8297 165.815 46.0889 164.843M49.7128 168.337C49.6369 169.925 49.0738 171.45 48.1001 172.706C48.0979 172.709 48.0937 172.709 48.0908 172.707V172.707C48.0879 172.705 48.0873 172.701 48.0896 172.698C49.0615 171.444 49.6237 169.921 49.6995 168.337C49.7753 166.752 49.361 165.183 48.5131 163.842C48.5112 163.839 48.5121 163.835 48.5152 163.833V163.833C48.5183 163.831 48.5224 163.832 48.5244 163.835C49.3737 165.178 49.7887 166.75 49.7128 168.337ZM44.5573 168.184C44.5116 168.728 44.2945 169.243 43.9374 169.655C43.9371 169.655 43.9365 169.656 43.9361 169.655V169.655C43.9357 169.655 43.9356 169.654 43.936 169.654C44.2928 169.242 44.5097 168.727 44.5554 168.184C44.6011 167.64 44.4732 167.097 44.1902 166.631C44.1899 166.63 44.1901 166.63 44.1905 166.629V166.629C44.191 166.629 44.1916 166.629 44.1919 166.63C44.4751 167.096 44.603 167.64 44.5573 168.184Z" stroke="white" stroke-width="1.03105" stroke-linecap="round"/>
<circle cx="194.183" cy="256.428" r="13.1176" transform="rotate(2.36868 194.183 256.428)" fill="#E40613"/>
<circle cx="207.289" cy="256.97" r="13.1176" transform="rotate(2.36868 207.289 256.97)" fill="url(#paint18_linear_10906_7139)"/>
<path d="M5.44855 258.752C4.93321 258.73 4.48868 258.618 4.11495 258.415C3.74122 258.212 3.45754 257.939 3.26392 257.595C3.07029 257.252 2.98261 256.86 3.00088 256.418L3.88431 256.454C3.87296 256.729 3.92602 256.986 4.04349 257.225C4.16123 257.458 4.33767 257.65 4.57279 257.8C4.81488 257.944 5.11663 258.024 5.47803 258.039C5.95321 258.059 6.32601 257.96 6.59643 257.743C6.86686 257.526 7.00913 257.247 7.02325 256.906C7.03488 256.625 6.98392 256.398 6.87037 256.226C6.7571 256.047 6.59894 255.9 6.3959 255.784C6.19955 255.669 5.96919 255.565 5.7048 255.474C5.44711 255.383 5.17645 255.281 4.89282 255.169C4.35847 254.959 3.96646 254.711 3.7168 254.426C3.46741 254.134 3.35199 253.764 3.37054 253.316C3.37935 252.941 3.48006 252.613 3.67267 252.333C3.86555 252.046 4.12928 251.829 4.46386 251.682C4.80542 251.528 5.20374 251.461 5.65884 251.48C6.10725 251.498 6.49196 251.598 6.81298 251.779C7.14069 251.96 7.38881 252.202 7.55733 252.503C7.73254 252.806 7.81574 253.144 7.80693 253.519L6.9235 253.483C6.93153 253.289 6.88923 253.096 6.79659 252.904C6.70423 252.706 6.5568 252.543 6.35431 252.413C6.15852 252.285 5.90669 252.214 5.59883 252.201C5.21762 252.179 4.89906 252.263 4.64312 252.453C4.39388 252.644 4.26193 252.917 4.24725 253.272C4.2348 253.573 4.3089 253.807 4.46957 253.975C4.63694 254.143 4.87234 254.286 5.17577 254.406C5.47948 254.519 5.82934 254.651 6.22536 254.802C6.55501 254.936 6.85037 255.089 7.11143 255.261C7.37249 255.432 7.57138 255.648 7.7081 255.909C7.85151 256.169 7.91505 256.497 7.89871 256.892C7.88487 257.227 7.78472 257.541 7.59825 257.835C7.41206 258.122 7.13774 258.352 6.77528 258.525C6.41951 258.698 5.97726 258.773 5.44855 258.752ZM10.9361 258.858C10.481 258.839 10.1275 258.714 9.87559 258.482C9.62371 258.251 9.50968 257.847 9.53348 257.271L9.64685 254.531L8.7835 254.495L8.81298 253.782L9.67633 253.818L9.83618 252.628L10.569 252.658L10.5196 253.853L11.9853 253.913L11.9558 254.626L10.4901 254.566L10.3768 257.306C10.3637 257.621 10.4185 257.838 10.5409 257.957C10.6636 258.069 10.8856 258.132 11.2069 258.145L11.7289 258.167L11.699 258.889L10.9361 258.858ZM14.9471 259.145C14.4719 259.125 14.0547 259 13.6955 258.771C13.3365 258.535 13.058 258.218 12.8599 257.821C12.6685 257.425 12.5837 256.962 12.6056 256.433C12.6272 255.911 12.7497 255.46 12.9733 255.081C13.1971 254.694 13.4974 254.402 13.8744 254.203C14.2583 253.997 14.6946 253.905 15.1831 253.925C15.665 253.945 16.0754 254.073 16.4143 254.308C16.7601 254.537 17.0194 254.832 17.1921 255.195C17.3648 255.557 17.4428 255.943 17.4259 256.351C17.4228 256.425 17.4164 256.498 17.4067 256.571C17.4036 256.645 17.4002 256.729 17.3963 256.822L13.4309 256.658C13.4352 257.041 13.5091 257.362 13.6525 257.623C13.8029 257.877 13.9926 258.073 14.2215 258.209C14.4572 258.347 14.7089 258.421 14.9766 258.432C15.3246 258.446 15.6191 258.378 15.86 258.227C16.1008 258.076 16.2805 257.866 16.3989 257.596L17.2322 257.63C17.0792 258.086 16.8056 258.46 16.4114 258.753C16.0242 259.038 15.5361 259.169 14.9471 259.145ZM15.1336 254.637C14.732 254.62 14.3688 254.729 14.044 254.964C13.7262 255.192 13.5342 255.54 13.468 256.006L16.6001 256.136C16.5986 255.686 16.4592 255.329 16.1819 255.063C15.9047 254.796 15.5552 254.654 15.1336 254.637ZM19.6684 259.219L17.9871 254.162L18.8705 254.198L20.194 258.426L21.8722 254.322L22.7355 254.358L20.6422 259.259L19.6684 259.219ZM25.4468 259.579C24.9717 259.559 24.5545 259.435 24.1952 259.205C23.8363 258.969 23.5577 258.653 23.3596 258.256C23.1682 257.859 23.0834 257.396 23.1053 256.867C23.1269 256.345 23.2495 255.895 23.473 255.515C23.6968 255.129 23.9972 254.836 24.3741 254.637C24.7581 254.432 25.1943 254.339 25.6829 254.359C26.1647 254.379 26.5751 254.507 26.914 254.742C27.2598 254.971 27.5191 255.267 27.6918 255.629C27.8646 255.992 27.9425 256.377 27.9256 256.785C27.9225 256.859 27.9162 256.932 27.9064 257.006C27.9034 257.079 27.8999 257.163 27.896 257.257L23.9307 257.093C23.9349 257.475 24.0088 257.796 24.1522 258.057C24.3026 258.311 24.4923 258.507 24.7213 258.644C24.9569 258.781 25.2086 258.855 25.4763 258.866C25.8243 258.88 26.1188 258.812 26.3597 258.661C26.6006 258.51 26.7802 258.3 26.8987 258.03L27.7319 258.064C27.5789 258.521 27.3054 258.895 26.9111 259.187C26.5239 259.473 26.0358 259.603 25.4468 259.579ZM25.6333 255.071C25.2317 255.055 24.8686 255.164 24.5438 255.398C24.2259 255.627 24.0339 255.974 23.9677 256.44L27.0998 256.57C27.0983 256.121 26.9589 255.763 26.6816 255.497C26.4044 255.231 26.0549 255.089 25.6333 255.071ZM31.5855 259.712L31.8845 252.484L32.7277 252.519L32.5479 256.866L34.6726 254.852L35.7066 254.895L33.405 257.052L35.7818 259.886L34.7076 259.841L32.5355 257.167L32.4287 259.747L31.5855 259.712ZM38.2564 260.109C37.8414 260.092 37.4997 260.007 37.2311 259.855C36.9625 259.703 36.7661 259.507 36.642 259.268C36.5178 259.028 36.4614 258.771 36.4728 258.496C36.4938 257.988 36.7041 257.604 37.1036 257.346C37.5031 257.088 38.0375 256.972 38.7068 257L40.052 257.056L40.0545 256.995C40.0725 256.56 39.9723 256.228 39.7539 255.997C39.5357 255.76 39.2359 255.634 38.8544 255.618C38.5265 255.605 38.2386 255.677 37.9907 255.834C37.7499 255.985 37.5928 256.216 37.5195 256.528L36.6562 256.493C36.7046 256.133 36.8377 255.833 37.0554 255.594C37.2798 255.355 37.5519 255.179 37.8717 255.065C38.1918 254.944 38.5292 254.891 38.8839 254.905C39.58 254.934 40.0942 255.143 40.4267 255.532C40.7662 255.915 40.9232 256.414 40.8978 257.03L40.7711 260.092L40.0182 260.061L40.005 259.165C39.8528 259.441 39.6353 259.673 39.3526 259.862C39.0769 260.045 38.7115 260.128 38.2564 260.109ZM38.4164 259.401C38.7376 259.415 39.0155 259.342 39.25 259.184C39.4911 259.027 39.6775 258.817 39.809 258.554C39.9406 258.291 40.0124 258.013 40.0246 257.718L40.025 257.708L38.7501 257.655C38.2548 257.635 37.8998 257.707 37.6852 257.873C37.4775 258.032 37.3684 258.238 37.3578 258.493C37.3471 258.754 37.432 258.968 37.6128 259.137C37.8005 259.299 38.0684 259.387 38.4164 259.401ZM42.0362 260.144L42.2421 255.165L43.0051 255.197L43.0183 256.092C43.192 255.784 43.4331 255.546 43.7418 255.378C44.0504 255.21 44.3955 255.133 44.7769 255.149C45.3659 255.174 45.8269 255.374 46.16 255.749C46.5 256.119 46.6547 256.675 46.6239 257.418L46.5035 260.329L45.6602 260.294L45.7769 257.473C45.8198 256.436 45.413 255.9 44.5563 255.864C44.128 255.846 43.7634 255.989 43.4626 256.292C43.1688 256.588 43.01 257.024 42.9862 257.599L42.8794 260.179L42.0362 260.144ZM49.5932 260.578C49.0042 260.553 48.5431 260.357 48.2097 259.987C47.8767 259.612 47.7255 259.052 47.7562 258.309L47.8767 255.398L48.7199 255.433L48.6032 258.254C48.5603 259.291 48.9639 259.828 49.8138 259.863C50.2489 259.881 50.6133 259.742 50.9071 259.445C51.2079 259.143 51.3702 258.704 51.394 258.128L51.5007 255.548L52.344 255.583L52.138 260.562L51.3751 260.531L51.3518 259.635C51.1849 259.943 50.9437 260.181 50.6284 260.349C50.3197 260.517 49.9747 260.593 49.5932 260.578Z" fill="#0D152E"/>
<path d="M177.741 155.256C177.793 153.988 177.113 152.987 175.924 152.546C176.507 152.084 176.832 151.439 176.865 150.64C176.931 149.043 175.742 147.833 173.879 147.756L170.262 147.606L169.834 157.941L174.265 158.124C176.285 158.208 177.669 156.994 177.741 155.256ZM173.662 149.206C174.68 149.248 175.238 149.788 175.202 150.65C175.166 151.511 174.564 152.035 173.547 151.993L171.715 151.917L171.83 149.13L173.662 149.206ZM176.067 155.14C176.026 156.126 175.328 156.709 174.185 156.662L171.523 156.552L171.656 153.342L174.318 153.452C175.461 153.499 176.108 154.153 176.067 155.14Z" fill="#150F2E"/>
<path d="M177.753 154.41C177.616 156.584 179.432 158.557 181.642 158.602C183.879 158.741 185.852 156.925 185.895 154.747C186.032 152.572 184.215 150.615 181.974 150.569C179.768 150.446 177.798 152.2 177.753 154.41ZM184.204 154.692C184.146 156.086 183.067 157.139 181.705 157.083C180.358 157.027 179.369 155.92 179.428 154.495C179.487 153.07 180.566 152.017 181.928 152.073C183.259 152.128 184.263 153.267 184.204 154.692Z" fill="#150F2E"/>
<path d="M193.212 154.092C193.288 152.26 192.258 150.994 190.458 150.92C189.503 150.88 188.722 151.162 188.118 151.749L188.149 150.997L186.614 150.934L186.296 158.622L187.94 158.69L188.13 154.102C188.174 153.053 188.94 152.347 189.958 152.389C190.96 152.431 191.603 153.179 191.559 154.244L191.369 158.831L193.014 158.899L193.212 154.092Z" fill="#150F2E"/>
<path d="M200.277 154.542C200.363 152.475 199.157 151.28 197.263 151.201C195.932 151.146 194.767 151.631 193.953 152.711L194.868 153.722C195.542 152.981 196.184 152.631 197.045 152.667C198.094 152.71 198.665 153.314 198.621 154.379L198.601 154.88L196.424 154.79C194.686 154.718 193.554 155.534 193.499 156.865C193.444 158.196 194.472 159.132 196.085 159.199C197.134 159.242 197.994 158.917 198.586 158.267L198.55 159.128L200.085 159.192L200.277 154.542ZM198.545 156.211C198.502 157.26 197.593 157.991 196.482 157.945C195.683 157.912 195.151 157.514 195.177 156.872C195.203 156.245 195.702 155.952 196.578 155.988L198.551 156.07L198.545 156.211Z" fill="#150F2E"/>
<path d="M203.351 150.214C203.391 149.228 203.907 148.904 204.909 148.945C205.097 148.953 205.315 148.978 205.564 149.02L205.622 147.626C205.328 147.52 204.986 147.459 204.563 147.441C202.872 147.371 201.787 148.205 201.712 150.005L201.648 151.555L200.552 151.51L200.493 152.935L201.589 152.98L201.33 159.243L202.974 159.311L203.233 153.048L205.05 153.123L205.109 151.699L203.292 151.623L203.351 150.214ZM206.325 159.45L207.969 159.518L208.287 151.83L206.643 151.762L206.325 159.45ZM206.464 148.884C206.439 149.495 206.92 149.985 207.547 150.011C208.157 150.037 208.678 149.588 208.703 148.977C208.728 148.366 208.247 147.86 207.637 147.835C207.01 147.809 206.489 148.274 206.464 148.884Z" fill="#150F2E"/>
<path d="M215.362 148.06L215.156 153.055C214.605 152.327 213.698 151.881 212.634 151.837C210.506 151.702 208.755 153.465 208.709 155.706C208.615 157.976 210.141 159.78 212.301 159.87C213.444 159.917 214.45 159.488 215.047 158.713L215.002 159.809L216.536 159.872L217.022 148.129L215.362 148.06ZM215.066 155.969C214.997 157.644 213.851 158.428 212.645 158.378C211.283 158.322 210.324 157.231 210.385 155.76C210.446 154.288 211.538 153.298 212.853 153.352C214.043 153.401 215.135 154.309 215.066 155.969Z" fill="#150F2E"/>
<path d="M224.647 156.898C224.74 156.542 224.801 156.199 224.815 155.87C224.898 153.866 223.442 152.284 221.406 152.2C219.232 152.063 217.307 153.85 217.263 156.06C217.169 158.33 218.882 160.142 221.231 160.239C222.405 160.288 223.439 159.923 224.351 159.129L223.614 157.969C222.9 158.552 222.136 158.818 221.338 158.785C220.022 158.731 219.068 157.922 218.916 156.661L224.647 156.898ZM219 155.379C219.298 154.246 220.206 153.546 221.286 153.591C222.366 153.636 223.214 154.377 223.181 155.552L219 155.379Z" fill="#150F2E"/>
<circle cx="157.469" cy="152.128" r="1.98861" transform="rotate(2.36868 157.469 152.128)" stroke="#150F2E" stroke-width="1.32574"/>
<circle cx="157.469" cy="152.127" r="4.64009" transform="rotate(2.36868 157.469 152.127)" stroke="#150F2E" stroke-width="1.32574"/>
<path d="M164.756 152.429C164.589 156.452 161.193 159.579 157.169 159.413C153.145 159.246 150.019 155.849 150.185 151.826C150.351 147.802 153.748 144.675 157.772 144.842C161.795 145.008 164.922 148.405 164.756 152.429Z" stroke="#150F2E" stroke-width="1.32574"/>
</g>
</g>
<rect x="1.31934" y="62.2791" width="153.167" height="35.458" rx="14.4347" transform="rotate(2.47251 1.31934 62.2791)" fill="#3A3391"/>
<path d="M18.9162 83.3133C17.1233 83.2359 15.8322 81.7397 15.9374 79.3041C16.0242 76.9015 17.4585 75.4722 19.2345 75.5489C21.0951 75.6292 21.8764 76.7644 22.0239 78.0587L24.3243 78.158C24.1794 75.6268 22.6205 73.6616 19.2714 73.517C16.1254 73.3811 13.7235 75.6329 13.5701 79.1849C13.4145 82.7877 15.581 85.2028 18.7609 85.3401C22.1607 85.4869 23.817 83.6266 24.1943 81.1688L21.8939 81.0695C21.6523 82.3469 20.8106 83.3951 18.9162 83.3133ZM31.0086 85.869C34.3239 86.0121 36.892 83.8353 37.0497 80.1818C37.2067 76.5452 34.8344 74.189 31.5192 74.0458C28.2039 73.9027 25.6182 76.0957 25.4612 79.7323C25.3041 83.3689 27.6934 85.7258 31.0086 85.869ZM31.0955 83.8562C29.1842 83.7736 27.724 82.2702 27.8299 79.8176C27.9358 77.365 29.5202 75.993 31.4315 76.0756C33.3259 76.1574 34.7861 77.6608 34.6802 80.1134C34.5743 82.566 32.99 83.938 31.0955 83.8562ZM48.2034 74.8849L44.9269 83.6569L42.4187 74.6351L39.2557 74.4985L38.7716 86.1025L41.0212 86.1996L41.4068 77.2689L43.9981 86.3282L45.6219 86.3983L49.0036 77.546L48.6157 86.5276L50.8654 86.6247L51.3833 75.0222L48.2034 74.8849ZM53.5056 86.7387L55.8398 86.8395L56.3408 75.2363L54.0066 75.1355L53.5056 86.7387ZM66.4551 75.673L66.1045 83.7919L61.144 75.4437L58.962 75.3494L58.461 86.9527L60.7444 87.0513L61.0935 78.9662L66.0386 87.2799L68.2375 87.3749L68.7385 75.7716L66.4551 75.673ZM76.2535 81.6205L76.1761 83.4134L79.0854 83.539C78.7946 84.7804 77.6807 85.8508 75.8878 85.7734C73.9257 85.6886 72.7362 84.1969 72.8421 81.7443C72.9458 79.3424 74.3286 77.9279 76.3415 78.0148C78.1006 78.0907 78.851 79.1568 79.0057 80.282L81.3061 80.3813C81.1723 77.9861 79.5583 76.1202 76.4291 75.985C72.9616 75.8353 70.6429 78.1246 70.4917 81.6259C70.3361 85.2286 72.3835 87.6556 75.6649 87.7972C77.4916 87.8761 78.7239 87.2007 79.4818 86.1319L79.4073 87.8572L81.0818 87.9295L81.3448 81.8403L76.2535 81.6205ZM89.0634 79.8181C89.1007 78.9555 89.7639 78.5096 91.1678 78.5702C92.4702 78.6265 93.1932 79.1491 93.1627 80.2493L95.4969 80.3501C95.5925 78.1343 93.975 76.7427 91.2856 76.6266C88.647 76.5126 86.8125 77.7891 86.7271 79.7681C86.5277 84.3857 93.231 82.5908 93.1164 85.2464C93.0784 86.1259 92.263 86.5652 90.876 86.5053C89.3368 86.4388 88.5666 85.8294 88.6119 84.7807L86.2777 84.6799C86.1784 86.9803 87.7981 88.3212 90.6736 88.4453C93.4306 88.5644 95.346 87.3761 95.4336 85.3464C95.6403 80.5596 88.9539 82.3553 89.0634 79.8181ZM102.416 88.9524C105.731 89.0955 108.299 86.9187 108.457 83.2652C108.614 79.6286 106.241 77.2724 102.926 77.1292C99.611 76.9861 97.0253 79.179 96.8683 82.8156C96.7112 86.4522 99.1005 88.8092 102.416 88.9524ZM102.503 86.9395C100.591 86.857 99.1311 85.3536 99.237 82.901C99.3429 80.4484 100.927 79.0764 102.839 79.1589C104.733 79.2407 106.193 80.7442 106.087 83.1968C105.981 85.6494 104.397 87.0213 102.503 86.9395ZM115.316 89.5094C118.631 89.6526 121.2 87.4757 121.357 83.8222C121.514 80.1857 119.142 77.8294 115.827 77.6863C112.512 77.5431 109.926 79.7361 109.769 83.3727C109.612 87.0093 112.001 89.3663 115.316 89.5094ZM115.403 87.4966C113.492 87.4141 112.032 85.9106 112.138 83.458C112.243 81.0054 113.828 79.6334 115.739 79.716C117.634 79.7978 119.094 81.3012 118.988 83.7538C118.882 86.2064 117.298 87.5784 115.403 87.4966ZM131.073 78.4632L130.723 86.5821L125.762 78.2339L123.58 78.1397L123.079 89.7429L125.363 89.8415L125.712 81.7565L130.657 90.0701L132.856 90.1651L133.357 78.5618L131.073 78.4632Z" fill="white"/>
<rect x="1.31934" y="62.2791" width="153.167" height="35.458" rx="14.4347" transform="rotate(2.47251 1.31934 62.2791)" stroke="white" stroke-width="5.41301"/>
</g>
<defs>
<filter id="filter0_dd_10906_7139" x="-68.61" y="-53.7241" width="471.335" height="367.816" filterUnits="userSpaceOnUse" color-interpolation-filters="sRGB">
<feFlood flood-opacity="0" result="BackgroundImageFix"/>
<feColorMatrix in="SourceAlpha" type="matrix" values="0 0 0 0 0 0 0 0 0 0 0 0 0 0 0 0 0 0 127 0" result="hardAlpha"/>
<feOffset dx="-0.837295" dy="0.837295"/>
<feGaussianBlur stdDeviation="50.2377"/>
<feColorMatrix type="matrix" values="0 0 0 0 0 0 0 0 0 0 0 0 0 0 0 0 0 0 0.12 0"/>
<feBlend mode="normal" in2="BackgroundImageFix" result="effect1_dropShadow_10906_7139"/>
<feColorMatrix in="SourceAlpha" type="matrix" values="0 0 0 0 0 0 0 0 0 0 0 0 0 0 0 0 0 0 127 0" result="hardAlpha"/>
<feOffset dx="0.837295" dy="-0.837295"/>
<feGaussianBlur stdDeviation="50.2377"/>
<feColorMatrix type="matrix" values="0 0 0 0 0 0 0 0 0 0 0 0 0 0 0 0 0 0 0.12 0"/>
<feBlend mode="normal" in2="effect1_dropShadow_10906_7139" result="effect2_dropShadow_10906_7139"/>
<feBlend mode="normal" in="SourceGraphic" in2="effect2_dropShadow_10906_7139" result="shape"/>
</filter>
<filter id="filter1_dd_10906_7139" x="-116.313" y="20.7236" width="470.971" height="367.162" filterUnits="userSpaceOnUse" color-interpolation-filters="sRGB">
<feFlood flood-opacity="0" result="BackgroundImageFix"/>
<feColorMatrix in="SourceAlpha" type="matrix" values="0 0 0 0 0 0 0 0 0 0 0 0 0 0 0 0 0 0 127 0" result="hardAlpha"/>
<feOffset dx="-0.837295" dy="0.837295"/>
<feGaussianBlur stdDeviation="50.2377"/>
<feColorMatrix type="matrix" values="0 0 0 0 0 0 0 0 0 0 0 0 0 0 0 0 0 0 0.12 0"/>
<feBlend mode="normal" in2="BackgroundImageFix" result="effect1_dropShadow_10906_7139"/>
<feColorMatrix in="SourceAlpha" type="matrix" values="0 0 0 0 0 0 0 0 0 0 0 0 0 0 0 0 0 0 127 0" result="hardAlpha"/>
<feOffset dx="0.837295" dy="-0.837295"/>
<feGaussianBlur stdDeviation="50.2377"/>
<feColorMatrix type="matrix" values="0 0 0 0 0 0 0 0 0 0 0 0 0 0 0 0 0 0 0.12 0"/>
<feBlend mode="normal" in2="effect1_dropShadow_10906_7139" result="effect2_dropShadow_10906_7139"/>
<feBlend mode="normal" in="SourceGraphic" in2="effect2_dropShadow_10906_7139" result="shape"/>
</filter>
<linearGradient id="paint0_linear_10906_7139" x1="48.4341" y1="20.3566" x2="48.4341" y2="85.6656" gradientUnits="userSpaceOnUse">
<stop stop-color="#41DC6D" stop-opacity="0.32"/>
<stop offset="1" stop-color="#41DC6D" stop-opacity="0"/>
</linearGradient>
<linearGradient id="paint1_linear_10906_7139" x1="68.5649" y1="80.9459" x2="68.5649" y2="102.716" gradientUnits="userSpaceOnUse">
<stop stop-color="#F1F1F1"/>
<stop offset="0.48432" stop-color="white" stop-opacity="0.76"/>
<stop offset="1" stop-color="#EEEEEE" stop-opacity="0.9"/>
</linearGradient>
<linearGradient id="paint2_linear_10906_7139" x1="77.8413" y1="89.5034" x2="77.5474" y2="96.1953" gradientUnits="userSpaceOnUse">
<stop stop-color="#EDE6F4"/>
<stop offset="0.48432" stop-color="#EEE9F0" stop-opacity="0.840174"/>
<stop offset="1" stop-color="#E7E7E7" stop-opacity="0.67"/>
</linearGradient>
<linearGradient id="paint3_linear_10906_7139" x1="58.602" y1="88.6583" x2="58.3081" y2="95.3502" gradientUnits="userSpaceOnUse">
<stop stop-color="#FBF3FF"/>
<stop offset="0.48432" stop-color="#EEE9F0" stop-opacity="0.840174"/>
<stop offset="1" stop-color="#E7E7E7" stop-opacity="0.67"/>
</linearGradient>
<linearGradient id="paint4_linear_10906_7139" x1="68.5522" y1="81.5524" x2="67.5968" y2="103.301" gradientUnits="userSpaceOnUse">
<stop stop-color="#FBF3FF"/>
<stop offset="0.48432" stop-color="#EEE9F0" stop-opacity="0.840174"/>
<stop offset="1" stop-color="#E7E7E7" stop-opacity="0.67"/>
</linearGradient>
<linearGradient id="paint5_linear_10906_7139" x1="255.039" y1="169.957" x2="255.039" y2="196.193" gradientUnits="userSpaceOnUse">
<stop stop-color="#F59E00" stop-opacity="0.68"/>
<stop offset="1" stop-color="#F59E00"/>
</linearGradient>
<linearGradient id="paint6_linear_10906_7139" x1="144.91" y1="81.7296" x2="144.91" y2="235.56" gradientUnits="userSpaceOnUse">
<stop stop-color="#3A3391" stop-opacity="0.96"/>
<stop offset="1" stop-color="#19145C" stop-opacity="0.97"/>
</linearGradient>
<linearGradient id="paint7_linear_10906_7139" x1="22.7852" y1="54.4977" x2="22.7852" y2="119.807" gradientUnits="userSpaceOnUse">
<stop stop-color="#41DC6D" stop-opacity="0.32"/>
<stop offset="1" stop-color="#41DC6D" stop-opacity="0"/>
</linearGradient>
<linearGradient id="paint8_linear_10906_7139" x1="42.9164" y1="115.087" x2="42.9164" y2="136.857" gradientUnits="userSpaceOnUse">
<stop stop-color="#F1F1F1"/>
<stop offset="0.48432" stop-color="white" stop-opacity="0.76"/>
<stop offset="1" stop-color="#EEEEEE" stop-opacity="0.9"/>
</linearGradient>
<linearGradient id="paint9_linear_10906_7139" x1="52.1914" y1="123.645" x2="51.8974" y2="130.337" gradientUnits="userSpaceOnUse">
<stop stop-color="#EDE6F4"/>
<stop offset="0.48432" stop-color="#EEE9F0" stop-opacity="0.840174"/>
<stop offset="1" stop-color="#E7E7E7" stop-opacity="0.67"/>
</linearGradient>
<linearGradient id="paint10_linear_10906_7139" x1="32.9526" y1="122.8" x2="32.6587" y2="129.491" gradientUnits="userSpaceOnUse">
<stop stop-color="#FBF3FF"/>
<stop offset="0.48432" stop-color="#EEE9F0" stop-opacity="0.840174"/>
<stop offset="1" stop-color="#E7E7E7" stop-opacity="0.67"/>
</linearGradient>
<linearGradient id="paint11_linear_10906_7139" x1="42.9032" y1="115.694" x2="41.9478" y2="137.443" gradientUnits="userSpaceOnUse">
<stop stop-color="#FBF3FF"/>
<stop offset="0.48432" stop-color="#EEE9F0" stop-opacity="0.840174"/>
<stop offset="1" stop-color="#E7E7E7" stop-opacity="0.67"/>
</linearGradient>
<linearGradient id="paint12_linear_10906_7139" x1="229.661" y1="204.111" x2="229.661" y2="230.346" gradientUnits="userSpaceOnUse">
<stop stop-color="#F59E00" stop-opacity="0.68"/>
<stop offset="1" stop-color="#F59E00"/>
</linearGradient>
<linearGradient id="paint13_linear_10906_7139" x1="0.351719" y1="94.7814" x2="0.351719" y2="160.09" gradientUnits="userSpaceOnUse">
<stop stop-color="#41DC6D" stop-opacity="0.32"/>
<stop offset="1" stop-color="#41DC6D" stop-opacity="0"/>
</linearGradient>
<linearGradient id="paint14_linear_10906_7139" x1="20.5546" y1="155.355" x2="20.5546" y2="177.124" gradientUnits="userSpaceOnUse">
<stop stop-color="#F1F1F1"/>
<stop offset="0.48432" stop-color="white" stop-opacity="0.76"/>
<stop offset="1" stop-color="#EEEEEE" stop-opacity="0.9"/>
</linearGradient>
<linearGradient id="paint15_linear_10906_7139" x1="29.8528" y1="163.853" x2="29.576" y2="170.546" gradientUnits="userSpaceOnUse">
<stop stop-color="#EDE6F4"/>
<stop offset="0.48432" stop-color="#EEE9F0" stop-opacity="0.840174"/>
<stop offset="1" stop-color="#E7E7E7" stop-opacity="0.67"/>
</linearGradient>
<linearGradient id="paint16_linear_10906_7139" x1="10.6111" y1="163.057" x2="10.3342" y2="169.75" gradientUnits="userSpaceOnUse">
<stop stop-color="#FBF3FF"/>
<stop offset="0.48432" stop-color="#EEE9F0" stop-opacity="0.840174"/>
<stop offset="1" stop-color="#E7E7E7" stop-opacity="0.67"/>
</linearGradient>
<linearGradient id="paint17_linear_10906_7139" x1="20.543" y1="155.927" x2="19.6432" y2="177.678" gradientUnits="userSpaceOnUse">
<stop stop-color="#FBF3FF"/>
<stop offset="0.48432" stop-color="#EEE9F0" stop-opacity="0.840174"/>
<stop offset="1" stop-color="#E7E7E7" stop-opacity="0.67"/>
</linearGradient>
<linearGradient id="paint18_linear_10906_7139" x1="207.289" y1="243.852" x2="207.289" y2="270.088" gradientUnits="userSpaceOnUse">
<stop stop-color="#F59E00" stop-opacity="0.68"/>
<stop offset="1" stop-color="#F59E00"/>
</linearGradient>
<clipPath id="clip0_10906_7139">
<rect width="283" height="277" rx="16" fill="white"/>
</clipPath>
<clipPath id="clip1_10906_7139">
<rect x="39.4536" y="47.5886" width="262.212" height="153.831" rx="13.3967" transform="rotate(2.51533 39.4536 47.5886)" fill="white"/>
</clipPath>
<clipPath id="clip2_10906_7139">
<rect x="54.7495" y="80.9459" width="27.6307" height="21.7697" rx="3.34918" transform="rotate(2.51533 54.7495 80.9459)" fill="white"/>
</clipPath>
<clipPath id="clip3_10906_7139">
<rect x="13.8042" y="81.7296" width="262.212" height="153.831" rx="13.3967" transform="rotate(2.51533 13.8042 81.7296)" fill="white"/>
</clipPath>
<clipPath id="clip4_10906_7139">
<rect x="29.1011" y="115.087" width="27.6307" height="21.7697" rx="3.34918" transform="rotate(2.51533 29.1011 115.087)" fill="white"/>
</clipPath>
<clipPath id="clip5_10906_7139">
<rect x="-8.64258" y="122.036" width="262.212" height="153.831" rx="13.3967" transform="rotate(2.36868 -8.64258 122.036)" fill="white"/>
</clipPath>
<clipPath id="clip6_10906_7139">
<rect x="6.73926" y="155.355" width="27.6307" height="21.7697" rx="3.34918" transform="rotate(2.36868 6.73926 155.355)" fill="white"/>
</clipPath>
</defs>
</svg>
