<svg width="363" height="401" viewBox="0 0 363 401" fill="none" xmlns="http://www.w3.org/2000/svg">
<g clip-path="url(#clip0_10891_6798)">
<rect width="363" height="401" rx="40" fill="white"/>
<path d="M44.176 54.144V47.64H49.12C50.32 47.64 51.208 47.928 51.808 48.504C52.408 49.08 52.72 49.872 52.72 50.88C52.72 51.936 52.408 52.728 51.808 53.304C51.208 53.88 50.32 54.144 49.12 54.144H44.176ZM44.176 55.824H49.048C50.896 55.824 52.264 55.368 53.176 54.456C54.088 53.544 54.544 52.368 54.544 50.88C54.544 49.416 54.088 48.24 53.2 47.328C52.288 46.416 50.92 45.96 49.048 45.96H42.424V63H44.176V55.824ZM67.6844 50.784H66.0524V53.04C65.1404 51.36 63.5804 50.496 61.4204 50.496C59.6204 50.496 58.2044 51.12 57.1964 52.368C56.1644 53.616 55.6604 55.128 55.6604 56.904C55.6604 58.68 56.1644 60.192 57.1964 61.44C58.2044 62.688 59.6204 63.288 61.4204 63.288C63.5804 63.288 65.1404 62.448 66.0524 60.744V63H67.6844V50.784ZM57.3884 56.904C57.3884 55.536 57.7724 54.384 58.5644 53.448C59.3564 52.512 60.4124 52.032 61.7564 52.032C63.0764 52.032 64.1324 52.512 64.9004 53.424C65.6684 54.36 66.0524 55.512 66.0524 56.904C66.0524 58.296 65.6684 59.448 64.9004 60.36C64.1324 61.296 63.0764 61.752 61.7564 61.752C60.4124 61.752 59.3564 61.296 58.5644 60.36C57.7724 59.448 57.3884 58.296 57.3884 56.904ZM73.1971 67.992H74.9251L82.1731 50.784H80.3731L76.1731 61.032L72.0211 50.784H70.1731L75.2851 63L73.1971 67.992ZM102.021 63H103.797L108.069 50.784H106.269L102.933 60.984L99.6209 50.784H97.8449L94.4849 60.984L91.1969 50.784H89.3729L93.5969 63H95.3729L98.7089 52.944H98.7329L102.021 63ZM111.6 47.76C111.936 47.76 112.224 47.664 112.464 47.448C112.704 47.232 112.824 46.944 112.824 46.584C112.824 46.248 112.704 45.96 112.464 45.72C112.224 45.48 111.936 45.36 111.6 45.36C111.216 45.36 110.928 45.48 110.712 45.72C110.472 45.96 110.376 46.248 110.376 46.584C110.376 46.944 110.472 47.232 110.712 47.448C110.928 47.664 111.216 47.76 111.6 47.76ZM110.736 63H112.44V50.784H110.736V63ZM118.851 52.224H121.347V50.784H118.851V47.304H117.147V50.784H114.819V52.224H117.147V63H118.851V52.224ZM125.331 45H123.627V63H125.331V55.776C125.331 54.576 125.667 53.664 126.363 52.992C127.035 52.32 127.923 51.984 129.003 51.984C130.059 51.984 130.875 52.296 131.403 52.92C131.931 53.544 132.219 54.408 132.219 55.536V63H133.923V55.2C133.923 53.808 133.515 52.656 132.699 51.792C131.883 50.928 130.755 50.496 129.291 50.496C128.283 50.496 127.443 50.712 126.771 51.12C126.099 51.552 125.619 52.008 125.331 52.488V45ZM143.293 56.904C143.293 58.656 143.845 60.168 144.949 61.416C146.053 62.664 147.517 63.288 149.317 63.288C150.877 63.288 152.149 62.856 153.157 61.968C154.141 61.08 154.765 59.976 155.029 58.656H153.301C153.037 59.616 152.557 60.384 151.885 60.936C151.189 61.488 150.325 61.752 149.317 61.752C148.021 61.752 146.989 61.296 146.197 60.384C145.405 59.472 145.021 58.32 145.021 56.904C145.021 55.488 145.405 54.312 146.197 53.4C146.989 52.488 148.021 52.032 149.317 52.032C150.325 52.032 151.189 52.32 151.885 52.872C152.557 53.424 153.037 54.168 153.301 55.128H155.029C154.765 53.832 154.141 52.728 153.157 51.84C152.149 50.952 150.877 50.496 149.317 50.496C147.517 50.496 146.053 51.144 144.949 52.392C143.845 53.664 143.293 55.176 143.293 56.904ZM169.028 50.784H167.396V53.04C166.484 51.36 164.924 50.496 162.764 50.496C160.964 50.496 159.548 51.12 158.54 52.368C157.508 53.616 157.004 55.128 157.004 56.904C157.004 58.68 157.508 60.192 158.54 61.44C159.548 62.688 160.964 63.288 162.764 63.288C164.924 63.288 166.484 62.448 167.396 60.744V63H169.028V50.784ZM158.732 56.904C158.732 55.536 159.116 54.384 159.908 53.448C160.7 52.512 161.756 52.032 163.1 52.032C164.42 52.032 165.476 52.512 166.244 53.424C167.012 54.36 167.396 55.512 167.396 56.904C167.396 58.296 167.012 59.448 166.244 60.36C165.476 61.296 164.42 61.752 163.1 61.752C161.756 61.752 160.7 61.296 159.908 60.36C159.116 59.448 158.732 58.296 158.732 56.904ZM179.173 50.688L178.765 50.664C177.757 50.664 176.917 50.88 176.269 51.288C175.597 51.696 175.141 52.152 174.853 52.68V50.784H173.221V63H174.925V56.064C174.925 54.84 175.261 53.904 175.933 53.256C176.605 52.608 177.469 52.272 178.573 52.272C178.765 52.272 178.981 52.296 179.173 52.296V50.688ZM190.504 52.992C189.568 51.336 188.056 50.496 185.944 50.496C184.144 50.496 182.728 51.12 181.72 52.368C180.688 53.616 180.184 55.128 180.184 56.904C180.184 58.68 180.688 60.192 181.72 61.44C182.728 62.688 184.144 63.288 185.944 63.288C188.104 63.288 189.664 62.448 190.576 60.744V63H192.208V45H190.504V52.992ZM190.576 56.904C190.576 58.296 190.192 59.448 189.424 60.36C188.656 61.296 187.6 61.752 186.28 61.752C184.936 61.752 183.88 61.296 183.088 60.36C182.296 59.448 181.912 58.296 181.912 56.904C181.912 55.512 182.296 54.36 183.088 53.424C183.88 52.512 184.936 52.032 186.28 52.032C187.6 52.032 188.656 52.512 189.424 53.424C190.192 54.336 190.576 55.512 190.576 56.904ZM200.312 63.288C201.873 63.288 203.073 62.952 203.913 62.232C204.753 61.536 205.185 60.696 205.185 59.688C205.185 58.896 204.993 58.248 204.609 57.72C204.225 57.216 203.769 56.88 203.217 56.688C202.641 56.52 202.041 56.352 201.393 56.208C200.745 56.064 200.145 55.968 199.593 55.872C199.017 55.776 198.561 55.584 198.177 55.272C197.793 54.984 197.625 54.552 197.625 54.024C197.625 53.448 197.865 52.944 198.345 52.56C198.825 52.176 199.545 51.984 200.457 51.984C201.368 51.984 202.089 52.224 202.593 52.656C203.073 53.088 203.361 53.664 203.457 54.36H205.161C205.065 53.352 204.633 52.464 203.913 51.672C203.169 50.904 202.041 50.496 200.505 50.496C199.113 50.496 198.009 50.856 197.193 51.552C196.377 52.272 195.969 53.112 195.969 54.096C195.969 55.032 196.209 55.752 196.737 56.256C197.265 56.784 197.889 57.12 198.633 57.264C199.377 57.432 200.121 57.576 200.865 57.672C201.585 57.792 202.209 58.008 202.737 58.32C203.265 58.632 203.529 59.112 203.529 59.736C203.529 60.36 203.241 60.864 202.665 61.248C202.089 61.632 201.321 61.8 200.312 61.8C199.281 61.8 198.489 61.584 197.937 61.104C197.385 60.648 197.073 60 197.025 59.184H195.297C195.369 60.384 195.801 61.368 196.617 62.136C197.433 62.904 198.657 63.288 200.312 63.288ZM43.912 87.992C43.912 83.936 44.824 80.264 46.696 77H44.968C43.096 80 42.16 83.672 42.16 87.992C42.16 92.336 43.096 96.008 44.968 98.984H46.696C44.824 95.744 43.912 92.072 43.912 87.992ZM48.8183 86.48C48.8183 89.072 49.5863 91.184 51.1223 92.864C52.6583 94.544 54.6983 95.36 57.2423 95.36C59.3063 95.36 61.0823 94.784 62.5223 93.632C63.9623 92.48 64.8743 90.944 65.2823 89H63.4343C63.0983 90.44 62.3543 91.592 61.2503 92.432C60.1223 93.296 58.7783 93.704 57.2423 93.704C55.2503 93.704 53.6423 93.056 52.4423 91.712C51.2423 90.392 50.6423 88.64 50.6423 86.48C50.6423 84.32 51.2423 82.592 52.4423 81.248C53.6423 79.928 55.2503 79.256 57.2423 79.256C58.7783 79.256 60.1223 79.688 61.2503 80.528C62.3543 81.392 63.0983 82.52 63.4343 83.96H65.2823C64.8743 82.04 63.9623 80.48 62.5223 79.328C61.0823 78.176 59.3063 77.6 57.2423 77.6C54.6983 77.6 52.6583 78.44 51.1223 80.12C49.5863 81.8 48.8183 83.912 48.8183 86.48ZM73.7123 95.288C75.5843 95.288 77.0723 94.664 78.2243 93.416C79.3763 92.168 79.9523 90.656 79.9523 88.904C79.9523 87.152 79.3763 85.64 78.2243 84.392C77.0723 83.144 75.5843 82.496 73.7123 82.496C71.8403 82.496 70.3523 83.144 69.2003 84.392C68.0483 85.64 67.4963 87.152 67.4963 88.904C67.4963 90.656 68.0483 92.168 69.2003 93.416C70.3523 94.664 71.8403 95.288 73.7123 95.288ZM69.2243 88.904C69.2243 87.512 69.6323 86.336 70.4483 85.424C71.2643 84.512 72.3683 84.032 73.7123 84.032C75.0563 84.032 76.1363 84.512 76.9763 85.424C77.7923 86.336 78.2243 87.512 78.2243 88.904C78.2243 90.296 77.7923 91.472 76.9763 92.384C76.1363 93.296 75.0563 93.752 73.7123 93.752C72.3683 93.752 71.2883 93.296 70.4723 92.384C69.6323 91.472 69.2243 90.296 69.2243 88.904ZM93.2048 87.872C93.2048 86.624 93.5168 85.664 94.1888 84.992C94.8608 84.32 95.7008 83.984 96.7088 83.984C97.7168 83.984 98.4848 84.32 98.9888 84.944C99.4928 85.592 99.7568 86.456 99.7568 87.536V95H101.461V87.2C101.461 85.856 101.053 84.728 100.285 83.84C99.5168 82.952 98.4128 82.496 96.9968 82.496C95.9888 82.496 95.1008 82.736 94.3808 83.192C93.6368 83.648 93.0848 84.2 92.7008 84.848C91.9808 83.288 90.6368 82.496 88.7168 82.496C86.9168 82.496 85.6208 83.216 84.8528 84.656V82.784H83.2208V95H84.9248V87.728C84.9248 86.576 85.2368 85.664 85.9088 84.992C86.5568 84.32 87.3968 83.984 88.4288 83.984C89.4608 83.984 90.2288 84.32 90.7328 84.944C91.2368 85.568 91.5008 86.432 91.5008 87.536V95H93.2048V87.872ZM106.397 79.76C106.733 79.76 107.021 79.664 107.261 79.448C107.501 79.232 107.621 78.944 107.621 78.584C107.621 78.248 107.501 77.96 107.261 77.72C107.021 77.48 106.733 77.36 106.397 77.36C106.013 77.36 105.725 77.48 105.509 77.72C105.269 77.96 105.173 78.248 105.173 78.584C105.173 78.944 105.269 79.232 105.509 79.448C105.725 79.664 106.013 79.76 106.397 79.76ZM105.533 95H107.237V82.784H105.533V95ZM113.072 82.784H111.44V95H113.144V87.728C113.144 86.552 113.48 85.64 114.176 84.968C114.848 84.32 115.736 83.984 116.816 83.984C117.872 83.984 118.688 84.296 119.216 84.92C119.744 85.544 120.032 86.408 120.032 87.536V95H121.736V87.2C121.736 85.808 121.328 84.656 120.512 83.792C119.696 82.928 118.568 82.496 117.104 82.496C116.048 82.496 115.184 82.736 114.512 83.168C113.84 83.624 113.36 84.128 113.072 84.656V82.784ZM135.239 85.016C134.279 83.336 132.743 82.496 130.631 82.496C128.855 82.496 127.463 83.12 126.431 84.32C125.375 85.544 124.871 87.008 124.871 88.736C124.871 90.464 125.375 91.952 126.431 93.152C127.463 94.376 128.855 94.976 130.631 94.976C132.695 94.976 134.207 94.16 135.167 92.504V94.784C135.167 95.96 134.807 96.92 134.111 97.64C133.391 98.36 132.431 98.72 131.207 98.72C130.223 98.72 129.383 98.528 128.711 98.096C128.039 97.664 127.583 97.088 127.343 96.368H125.591C125.831 97.424 126.407 98.336 127.343 99.104C128.279 99.872 129.551 100.256 131.159 100.256C132.983 100.256 134.399 99.728 135.383 98.624C136.367 97.544 136.871 96.128 136.871 94.4V82.784H135.239V85.016ZM135.239 88.736C135.239 90.104 134.831 91.232 134.063 92.12C133.295 93.032 132.239 93.464 130.943 93.464C129.623 93.464 128.567 93.032 127.775 92.12C126.983 91.208 126.599 90.08 126.599 88.736C126.599 87.392 126.983 86.288 127.775 85.376C128.567 84.488 129.623 84.032 130.943 84.032C132.239 84.032 133.295 84.488 134.063 85.376C134.831 86.264 135.239 87.392 135.239 88.736ZM151.094 95.288C152.654 95.288 153.854 94.952 154.694 94.232C155.534 93.536 155.966 92.696 155.966 91.688C155.966 90.896 155.774 90.248 155.39 89.72C155.006 89.216 154.55 88.88 153.998 88.688C153.422 88.52 152.822 88.352 152.174 88.208C151.526 88.064 150.926 87.968 150.374 87.872C149.798 87.776 149.342 87.584 148.958 87.272C148.574 86.984 148.406 86.552 148.406 86.024C148.406 85.448 148.646 84.944 149.126 84.56C149.606 84.176 150.326 83.984 151.238 83.984C152.15 83.984 152.87 84.224 153.374 84.656C153.854 85.088 154.142 85.664 154.238 86.36H155.942C155.846 85.352 155.414 84.464 154.694 83.672C153.95 82.904 152.822 82.496 151.286 82.496C149.894 82.496 148.79 82.856 147.974 83.552C147.158 84.272 146.75 85.112 146.75 86.096C146.75 87.032 146.99 87.752 147.518 88.256C148.046 88.784 148.67 89.12 149.414 89.264C150.158 89.432 150.902 89.576 151.646 89.672C152.366 89.792 152.99 90.008 153.518 90.32C154.046 90.632 154.31 91.112 154.31 91.736C154.31 92.36 154.022 92.864 153.446 93.248C152.87 93.632 152.102 93.8 151.094 93.8C150.062 93.8 149.27 93.584 148.718 93.104C148.166 92.648 147.854 92 147.806 91.184H146.078C146.15 92.384 146.582 93.368 147.398 94.136C148.214 94.904 149.438 95.288 151.094 95.288ZM164.58 95.288C166.452 95.288 167.94 94.664 169.092 93.416C170.244 92.168 170.82 90.656 170.82 88.904C170.82 87.152 170.244 85.64 169.092 84.392C167.94 83.144 166.452 82.496 164.58 82.496C162.708 82.496 161.22 83.144 160.068 84.392C158.916 85.64 158.364 87.152 158.364 88.904C158.364 90.656 158.916 92.168 160.068 93.416C161.22 94.664 162.708 95.288 164.58 95.288ZM160.092 88.904C160.092 87.512 160.5 86.336 161.316 85.424C162.132 84.512 163.236 84.032 164.58 84.032C165.924 84.032 167.004 84.512 167.844 85.424C168.66 86.336 169.092 87.512 169.092 88.904C169.092 90.296 168.66 91.472 167.844 92.384C167.004 93.296 165.924 93.752 164.58 93.752C163.236 93.752 162.156 93.296 161.34 92.384C160.5 91.472 160.092 90.296 160.092 88.904ZM179.392 95.288C181.264 95.288 182.752 94.664 183.904 93.416C185.056 92.168 185.632 90.656 185.632 88.904C185.632 87.152 185.056 85.64 183.904 84.392C182.752 83.144 181.264 82.496 179.392 82.496C177.52 82.496 176.032 83.144 174.88 84.392C173.728 85.64 173.176 87.152 173.176 88.904C173.176 90.656 173.728 92.168 174.88 93.416C176.032 94.664 177.52 95.288 179.392 95.288ZM174.904 88.904C174.904 87.512 175.312 86.336 176.128 85.424C176.944 84.512 178.048 84.032 179.392 84.032C180.736 84.032 181.816 84.512 182.656 85.424C183.472 86.336 183.904 87.512 183.904 88.904C183.904 90.296 183.472 91.472 182.656 92.384C181.816 93.296 180.736 93.752 179.392 93.752C178.048 93.752 176.968 93.296 176.152 92.384C175.312 91.472 174.904 90.296 174.904 88.904ZM190.533 82.784H188.901V95H190.605V87.728C190.605 86.552 190.941 85.64 191.637 84.968C192.309 84.32 193.197 83.984 194.277 83.984C195.333 83.984 196.149 84.296 196.677 84.92C197.205 85.544 197.493 86.408 197.493 87.536V95H199.197V87.2C199.197 85.808 198.789 84.656 197.973 83.792C197.157 82.928 196.029 82.496 194.565 82.496C193.509 82.496 192.645 82.736 191.973 83.168C191.301 83.624 190.821 84.128 190.533 84.656V82.784ZM204.804 87.992C204.804 92.048 203.868 95.72 201.996 98.984H203.724C205.596 95.96 206.556 92.312 206.556 87.992C206.556 83.696 205.596 80.024 203.724 77H201.996C203.868 80.312 204.804 83.96 204.804 87.992Z" fill="#150F2E"/>
<g clip-path="url(#clip1_10891_6798)">
<rect x="40" y="135" width="283" height="277" rx="16" fill="#F9F8FF"/>
<circle cx="70" cy="165" r="6" fill="#CED9E8"/>
<circle cx="90" cy="165" r="6" fill="#CED9E8"/>
<circle cx="110" cy="165" r="6" fill="#CED9E8"/>
<g filter="url(#filter0_dd_10891_6798)">
<g clip-path="url(#clip2_10891_6798)">
<rect x="79.4536" y="182.589" width="262.212" height="153.831" rx="13.3967" transform="rotate(2.51533 79.4536 182.589)" fill="#22B94C"/>
<circle cx="88.4341" cy="188.011" r="32.6545" transform="rotate(2.51533 88.4341 188.011)" fill="url(#paint0_linear_10891_6798)"/>
<g clip-path="url(#clip3_10891_6798)">
<rect x="94.7495" y="215.946" width="27.6307" height="21.7697" rx="3.34918" transform="rotate(2.51533 94.7495 215.946)" fill="url(#paint1_linear_10891_6798)"/>
<path d="M113.784 224.116C112.878 224.076 111.965 224.479 111.503 225.295C111.042 226.108 110.813 226.82 110.794 227.537C110.775 228.253 110.965 228.955 111.306 229.747C111.695 230.649 112.6 231.188 113.559 231.23L121.721 231.588C123.222 231.654 124.493 230.49 124.559 228.989L124.632 227.316C124.698 225.815 123.534 224.544 122.033 224.478L113.784 224.116Z" fill="url(#paint2_linear_10891_6798)" stroke="black" stroke-width="0.418647"/>
<path d="M102.678 223.628C103.584 223.668 104.458 224.15 104.847 225.002C105.234 225.853 105.4 226.582 105.356 227.298C105.312 228.013 105.062 228.695 104.652 229.454C104.186 230.319 103.238 230.776 102.278 230.734L94.1164 230.376C92.615 230.31 91.4513 229.039 91.5173 227.538L91.5908 225.865C91.6567 224.363 92.9274 223.199 94.4288 223.265L102.678 223.628Z" fill="url(#paint3_linear_10891_6798)" stroke="black" stroke-width="0.418647"/>
<mask id="path-12-inside-1_10891_6798" fill="white">
<path fill-rule="evenodd" clip-rule="evenodd" d="M111.685 225.398C112.039 224.773 112.693 224.408 113.4 224.336C112.891 219.922 110.976 216.659 108.552 216.552C106.128 216.446 103.935 219.529 103.041 223.881C103.739 224.014 104.358 224.436 104.656 225.089C105.412 226.749 105.271 227.865 104.468 229.355C104.119 230.003 103.466 230.406 102.748 230.504C103.254 234.925 105.17 238.195 107.597 238.301C110.024 238.408 112.219 235.318 113.111 230.959C112.404 230.798 111.789 230.34 111.498 229.664C110.828 228.109 110.786 226.985 111.685 225.398Z"/>
</mask>
<path fill-rule="evenodd" clip-rule="evenodd" d="M111.685 225.398C112.039 224.773 112.693 224.408 113.4 224.336C112.891 219.922 110.976 216.659 108.552 216.552C106.128 216.446 103.935 219.529 103.041 223.881C103.739 224.014 104.358 224.436 104.656 225.089C105.412 226.749 105.271 227.865 104.468 229.355C104.119 230.003 103.466 230.406 102.748 230.504C103.254 234.925 105.17 238.195 107.597 238.301C110.024 238.408 112.219 235.318 113.111 230.959C112.404 230.798 111.789 230.34 111.498 229.664C110.828 228.109 110.786 226.985 111.685 225.398Z" fill="url(#paint4_linear_10891_6798)"/>
<path d="M113.4 224.336L113.442 224.752L113.864 224.709L113.815 224.288L113.4 224.336ZM111.685 225.398L111.321 225.192L111.685 225.398ZM103.041 223.881L102.631 223.796L102.545 224.212L102.962 224.292L103.041 223.881ZM104.656 225.089L105.037 224.916L104.656 225.089ZM104.468 229.355L104.1 229.156L104.468 229.355ZM102.748 230.504L102.691 230.089L102.285 230.145L102.332 230.552L102.748 230.504ZM113.111 230.959L113.521 231.043L113.603 230.642L113.204 230.551L113.111 230.959ZM111.498 229.664L111.113 229.829L111.498 229.664ZM113.357 223.919C112.539 224.003 111.752 224.429 111.321 225.192L112.049 225.604C112.325 225.116 112.847 224.813 113.442 224.752L113.357 223.919ZM108.534 216.971C109.548 217.015 110.527 217.725 111.337 219.047C112.142 220.363 112.734 222.219 112.984 224.384L113.815 224.288C113.556 222.039 112.937 220.057 112.051 218.61C111.17 217.172 109.98 216.196 108.571 216.134L108.534 216.971ZM103.451 223.965C103.889 221.83 104.642 220.033 105.559 218.794C106.482 217.547 107.519 216.926 108.534 216.971L108.571 216.134C107.161 216.072 105.89 216.94 104.886 218.296C103.877 219.659 103.086 221.579 102.631 223.796L103.451 223.965ZM105.037 224.916C104.674 224.118 103.928 223.624 103.12 223.469L102.962 224.292C103.55 224.404 104.043 224.753 104.275 225.263L105.037 224.916ZM104.837 229.554C105.253 228.781 105.518 228.068 105.565 227.311C105.611 226.551 105.434 225.788 105.037 224.916L104.275 225.263C104.634 226.051 104.765 226.675 104.729 227.26C104.693 227.848 104.486 228.439 104.1 229.156L104.837 229.554ZM102.805 230.919C103.638 230.805 104.416 230.334 104.837 229.554L104.1 229.156C103.821 229.672 103.294 230.007 102.691 230.089L102.805 230.919ZM107.615 237.883C106.6 237.838 105.62 237.127 104.809 235.802C104.004 234.484 103.412 232.624 103.164 230.456L102.332 230.552C102.59 232.804 103.209 234.79 104.095 236.239C104.976 237.68 106.167 238.657 107.578 238.719L107.615 237.883ZM112.701 230.875C112.263 233.013 111.51 234.814 110.593 236.056C109.669 237.305 108.631 237.928 107.615 237.883L107.578 238.719C108.99 238.781 110.262 237.912 111.266 236.554C112.275 235.188 113.066 233.264 113.521 231.043L112.701 230.875ZM111.113 229.829C111.464 230.644 112.198 231.181 113.018 231.367L113.204 230.551C112.61 230.416 112.114 230.036 111.882 229.498L111.113 229.829ZM111.321 225.192C110.848 226.025 110.605 226.77 110.585 227.532C110.564 228.29 110.766 229.023 111.113 229.829L111.882 229.498C111.56 228.749 111.406 228.143 111.422 227.554C111.437 226.968 111.622 226.358 112.049 225.604L111.321 225.192Z" fill="black" mask="url(#path-12-inside-1_10891_6798)"/>
<circle cx="108.405" cy="219.898" r="0.837295" transform="rotate(2.51533 108.405 219.898)" fill="black"/>
</g>
<path d="M137.811 235.342C139.309 233.585 140.175 231.376 140.269 229.069C140.363 226.762 139.68 224.49 138.329 222.617M133.707 232.197C134.548 231.311 135.047 230.154 135.115 228.934C135.182 227.713 134.814 226.509 134.075 225.535M137.69 229.039C137.61 230.626 137.043 232.15 136.066 233.403C136.064 233.406 136.06 233.406 136.057 233.404V233.404C136.054 233.402 136.054 233.398 136.056 233.395C137.031 232.144 137.597 230.622 137.677 229.038C137.757 227.454 137.347 225.883 136.502 224.54C136.5 224.537 136.501 224.533 136.504 224.531V224.531C136.507 224.529 136.511 224.53 136.513 224.533C137.359 225.878 137.77 227.451 137.69 229.039ZM132.535 228.872C132.488 229.416 132.27 229.93 131.912 230.342C131.911 230.342 131.911 230.342 131.91 230.342V230.342C131.91 230.341 131.91 230.341 131.91 230.34C132.268 229.929 132.486 229.415 132.533 228.872C132.58 228.329 132.454 227.785 132.172 227.318C132.172 227.318 132.172 227.317 132.172 227.317V227.317C132.173 227.316 132.173 227.317 132.174 227.317C132.456 227.784 132.582 228.328 132.535 228.872Z" stroke="white" stroke-width="1.03105" stroke-linecap="round"/>
<circle cx="281.935" cy="317.499" r="13.1176" transform="rotate(2.51533 281.935 317.499)" fill="#E40613"/>
<circle cx="295.039" cy="318.075" r="13.1176" transform="rotate(2.51533 295.039 318.075)" fill="url(#paint5_linear_10891_6798)"/>
<path d="M93.1948 319.339C92.6795 319.317 92.2353 319.203 91.8621 318.999C91.4889 318.795 91.2059 318.521 91.0131 318.177C90.8204 317.834 90.7337 317.441 90.7531 316.999L91.6364 317.038C91.6244 317.313 91.6768 317.57 91.7937 317.809C91.9108 318.043 92.0867 318.235 92.3215 318.386C92.5632 318.53 92.8647 318.611 93.2261 318.627C93.7012 318.647 94.0743 318.55 94.3453 318.334C94.6162 318.118 94.7592 317.839 94.7742 317.498C94.7866 317.217 94.7362 316.99 94.6231 316.817C94.5103 316.638 94.3525 316.49 94.1497 316.374C93.9537 316.258 93.7236 316.154 93.4594 316.062C93.202 315.97 92.9316 315.868 92.6482 315.755C92.1144 315.544 91.7231 315.295 91.4741 315.01C91.2255 314.717 91.111 314.347 91.1307 313.898C91.1405 313.523 91.242 313.196 91.4354 312.916C91.629 312.629 91.8933 312.413 92.2282 312.267C92.5702 312.114 92.9687 312.048 93.4237 312.068C93.8721 312.088 94.2565 312.188 94.5771 312.37C94.9043 312.552 95.1518 312.794 95.3196 313.097C95.494 313.399 95.5763 313.738 95.5666 314.113L94.6832 314.074C94.6918 313.88 94.65 313.687 94.5578 313.496C94.466 313.297 94.3189 313.133 94.1168 313.004C93.9213 312.874 93.6697 312.803 93.3618 312.789C92.9807 312.766 92.6619 312.849 92.4055 313.039C92.1558 313.229 92.0231 313.502 92.0075 313.856C91.9943 314.157 92.0678 314.392 92.2281 314.56C92.395 314.728 92.63 314.873 92.9331 314.993C93.2366 315.107 93.5861 315.24 93.9817 315.391C94.311 315.526 94.606 315.68 94.8666 315.852C95.1272 316.025 95.3256 316.241 95.4616 316.502C95.6044 316.763 95.6671 317.091 95.6497 317.486C95.635 317.821 95.5341 318.135 95.3468 318.428C95.1599 318.715 94.885 318.944 94.5221 319.116C94.1659 319.288 93.7235 319.363 93.1948 319.339ZM98.682 319.46C98.227 319.44 97.8738 319.314 97.6225 319.081C97.3712 318.849 97.2582 318.445 97.2835 317.87L97.4039 315.129L96.5406 315.091L96.5719 314.379L97.4352 314.417L97.5981 313.227L98.3309 313.259L98.2784 314.454L99.7439 314.518L99.7126 315.231L98.2471 315.166L98.1267 317.907C98.1129 318.221 98.167 318.438 98.2892 318.557C98.4116 318.67 98.6335 318.733 98.9547 318.748L99.4766 318.77L99.4449 319.493L98.682 319.46ZM102.692 319.757C102.217 319.736 101.8 319.61 101.442 319.38C101.083 319.143 100.806 318.825 100.609 318.428C100.418 318.031 100.335 317.568 100.358 317.039C100.381 316.517 100.504 316.067 100.729 315.688C100.954 315.302 101.255 315.01 101.632 314.812C102.017 314.608 102.453 314.516 102.942 314.538C103.424 314.559 103.834 314.688 104.172 314.924C104.517 315.153 104.776 315.45 104.947 315.813C105.119 316.175 105.196 316.561 105.178 316.969C105.175 317.043 105.168 317.116 105.158 317.19C105.155 317.263 105.152 317.347 105.147 317.441L101.183 317.266C101.186 317.649 101.259 317.97 101.402 318.231C101.551 318.486 101.741 318.682 101.969 318.82C102.204 318.957 102.456 319.032 102.724 319.044C103.072 319.059 103.366 318.992 103.608 318.841C103.849 318.691 104.029 318.481 104.148 318.211L104.981 318.248C104.827 318.704 104.553 319.077 104.158 319.368C103.77 319.653 103.281 319.782 102.692 319.757ZM102.89 315.25C102.489 315.232 102.125 315.34 101.8 315.574C101.482 315.801 101.289 316.148 101.221 316.614L104.353 316.752C104.353 316.303 104.214 315.945 103.938 315.678C103.661 315.411 103.312 315.268 102.89 315.25ZM107.413 319.843L105.745 314.782L106.628 314.82L107.941 319.052L109.63 314.952L110.493 314.99L108.387 319.886L107.413 319.843ZM113.191 320.218C112.716 320.197 112.299 320.071 111.94 319.841C111.582 319.604 111.304 319.287 111.107 318.889C110.917 318.492 110.833 318.029 110.856 317.5C110.879 316.978 111.003 316.528 111.227 316.149C111.452 315.763 111.753 315.471 112.131 315.273C112.515 315.069 112.952 314.977 113.44 314.999C113.922 315.02 114.332 315.149 114.67 315.385C115.016 315.615 115.274 315.911 115.446 316.274C115.618 316.637 115.695 317.022 115.677 317.43C115.674 317.504 115.667 317.578 115.657 317.651C115.654 317.724 115.65 317.808 115.646 317.902L111.681 317.728C111.684 318.11 111.757 318.432 111.9 318.693C112.05 318.947 112.239 319.143 112.468 319.281C112.703 319.419 112.955 319.493 113.222 319.505C113.57 319.52 113.865 319.453 114.106 319.302C114.347 319.152 114.528 318.942 114.647 318.673L115.48 318.709C115.326 319.165 115.051 319.538 114.656 319.83C114.268 320.114 113.78 320.244 113.191 320.218ZM113.389 315.711C112.987 315.693 112.624 315.801 112.299 316.035C111.98 316.262 111.787 316.609 111.72 317.076L114.852 317.213C114.851 316.764 114.713 316.406 114.436 316.139C114.16 315.872 113.81 315.729 113.389 315.711ZM119.329 320.367L119.647 313.139L120.49 313.176L120.299 317.523L122.429 315.514L123.463 315.56L121.156 317.711L123.525 320.551L122.451 320.504L120.286 317.824L120.172 320.404L119.329 320.367ZM125.999 320.78C125.584 320.762 125.243 320.677 124.974 320.524C124.706 320.372 124.51 320.175 124.387 319.935C124.263 319.695 124.208 319.438 124.22 319.163C124.242 318.655 124.453 318.272 124.853 318.015C125.254 317.757 125.788 317.643 126.457 317.673L127.802 317.732L127.805 317.672C127.824 317.237 127.725 316.904 127.507 316.673C127.29 316.435 126.99 316.308 126.609 316.291C126.281 316.277 125.993 316.348 125.744 316.505C125.503 316.655 125.345 316.886 125.271 317.198L124.408 317.16C124.457 316.8 124.591 316.501 124.81 316.263C125.035 316.025 125.307 315.849 125.627 315.735C125.948 315.615 126.285 315.563 126.64 315.579C127.336 315.609 127.85 315.82 128.181 316.21C128.52 316.593 128.675 317.093 128.648 317.709L128.514 320.77L127.761 320.737L127.75 319.842C127.597 320.116 127.379 320.348 127.096 320.537C126.82 320.719 126.454 320.8 125.999 320.78ZM126.161 320.073C126.482 320.088 126.76 320.016 126.995 319.859C127.237 319.702 127.423 319.492 127.556 319.23C127.688 318.967 127.76 318.689 127.773 318.394L127.774 318.384L126.499 318.328C126.004 318.307 125.649 318.378 125.434 318.543C125.225 318.701 125.116 318.908 125.105 319.162C125.093 319.423 125.178 319.638 125.358 319.807C125.545 319.969 125.813 320.058 126.161 320.073ZM129.779 320.826L129.997 315.847L130.76 315.88L130.771 316.776C130.946 316.469 131.187 316.231 131.497 316.064C131.806 315.896 132.151 315.821 132.532 315.838C133.121 315.863 133.582 316.065 133.914 316.441C134.253 316.812 134.406 317.368 134.373 318.111L134.246 321.022L133.402 320.985L133.526 318.164C133.572 317.127 133.166 316.59 132.31 316.552C131.882 316.533 131.517 316.675 131.215 316.977C130.92 317.272 130.761 317.708 130.735 318.283L130.622 320.863L129.779 320.826ZM137.335 321.278C136.746 321.252 136.285 321.055 135.953 320.685C135.621 320.308 135.471 319.748 135.503 319.005L135.631 316.094L136.475 316.131L136.351 318.952C136.305 319.989 136.707 320.527 137.557 320.564C137.992 320.583 138.357 320.445 138.651 320.149C138.953 319.848 139.116 319.409 139.142 318.833L139.255 316.254L140.098 316.291L139.879 321.269L139.117 321.236L139.096 320.34C138.928 320.648 138.686 320.885 138.37 321.052C138.061 321.22 137.716 321.295 137.335 321.278Z" fill="white"/>
<path d="M265.751 216.286C265.806 215.018 265.129 214.016 263.941 213.572C264.525 213.111 264.852 212.466 264.887 211.668C264.957 210.071 263.771 208.858 261.908 208.776L258.291 208.617L257.837 218.951L262.268 219.145C264.288 219.234 265.674 218.024 265.751 216.286ZM261.687 210.225C262.705 210.27 263.262 210.812 263.224 211.673C263.186 212.534 262.583 213.057 261.565 213.012L259.733 212.932L259.856 210.145L261.687 210.225ZM264.078 216.166C264.034 217.152 263.334 217.733 262.191 217.683L259.53 217.566L259.671 214.357L262.332 214.473C263.475 214.524 264.121 215.179 264.078 216.166Z" fill="white"/>
<path d="M265.765 215.44C265.623 217.614 267.434 219.592 269.644 219.642C271.88 219.787 273.858 217.976 273.907 215.798C274.049 213.623 272.237 211.661 269.996 211.61C267.79 211.482 265.815 213.23 265.765 215.44ZM272.215 215.739C272.154 217.132 271.072 218.183 269.71 218.123C268.364 218.064 267.377 216.954 267.44 215.529C267.503 214.104 268.584 213.054 269.946 213.114C271.277 213.172 272.278 214.314 272.215 215.739Z" fill="white"/>
<path d="M281.225 215.162C281.306 213.33 280.279 212.062 278.479 211.983C277.524 211.941 276.743 212.22 276.137 212.805L276.17 212.054L274.635 211.986L274.298 219.674L275.942 219.746L276.143 215.159C276.189 214.11 276.957 213.406 277.975 213.451C278.977 213.495 279.619 214.245 279.572 215.309L279.37 219.897L281.014 219.969L281.225 215.162Z" fill="white"/>
<path d="M288.289 215.629C288.38 213.563 287.177 212.365 285.283 212.282C283.952 212.223 282.786 212.705 281.97 213.783L282.882 214.796C283.558 214.057 284.201 213.709 285.062 213.746C286.111 213.793 286.68 214.398 286.633 215.463L286.611 215.964L284.435 215.868C282.697 215.792 281.564 216.605 281.505 217.935C281.447 219.266 282.472 220.205 284.085 220.276C285.134 220.322 285.995 219.999 286.588 219.351L286.55 220.212L288.085 220.279L288.289 215.629ZM286.553 217.294C286.507 218.343 285.596 219.072 284.485 219.023C283.686 218.988 283.155 218.588 283.183 217.946C283.211 217.32 283.71 217.028 284.586 217.067L286.559 217.153L286.553 217.294Z" fill="white"/>
<path d="M291.373 211.31C291.417 210.324 291.933 210.001 292.935 210.045C293.123 210.053 293.341 210.079 293.59 210.121L293.652 208.728C293.358 208.621 293.016 208.558 292.593 208.54C290.902 208.466 289.815 209.296 289.736 211.097L289.668 212.647L288.572 212.599L288.509 214.023L289.605 214.071L289.33 220.334L290.974 220.406L291.249 214.144L293.065 214.223L293.128 212.799L291.311 212.719L291.373 211.31ZM294.324 220.553L295.968 220.626L296.306 212.938L294.662 212.866L294.324 220.553ZM294.49 209.988C294.464 210.599 294.944 211.09 295.57 211.118C296.181 211.145 296.702 210.697 296.729 210.086C296.756 209.476 296.276 208.968 295.666 208.942C295.039 208.914 294.517 209.377 294.49 209.988Z" fill="white"/>
<path d="M303.39 209.187L303.171 214.181C302.623 213.451 301.717 213.004 300.652 212.957C298.525 212.816 296.769 214.574 296.718 216.815C296.618 219.086 298.139 220.894 300.299 220.988C301.442 221.039 302.449 220.612 303.048 219.839L303 220.935L304.534 221.002L305.05 209.26L303.39 209.187ZM303.074 217.095C303.001 218.77 301.853 219.551 300.647 219.498C299.285 219.438 298.329 218.345 298.394 216.873C298.459 215.402 299.553 214.414 300.868 214.472C302.058 214.524 303.147 215.435 303.074 217.095Z" fill="white"/>
<path d="M312.653 218.049C312.747 217.692 312.809 217.35 312.823 217.021C312.911 215.017 311.459 213.432 309.424 213.342C307.25 213.2 305.32 214.981 305.27 217.191C305.171 219.461 306.879 221.278 309.228 221.381C310.402 221.432 311.437 221.07 312.351 220.279L311.617 219.117C310.902 219.697 310.137 219.962 309.339 219.927C308.023 219.869 307.071 219.058 306.922 217.797L312.653 218.049ZM307.01 216.515C307.311 215.383 308.22 214.685 309.3 214.733C310.38 214.78 311.226 215.523 311.19 216.698L307.01 216.515Z" fill="white"/>
<circle cx="245.487" cy="213.105" r="1.98861" transform="rotate(2.51533 245.487 213.105)" stroke="white" stroke-width="1.32574"/>
<circle cx="245.487" cy="213.105" r="4.64009" transform="rotate(2.51533 245.487 213.105)" stroke="white" stroke-width="1.32574"/>
<path d="M252.773 213.424C252.596 217.447 249.192 220.566 245.168 220.389C241.145 220.212 238.027 216.807 238.204 212.784C238.381 208.761 241.785 205.643 245.808 205.82C249.832 205.996 252.95 209.401 252.773 213.424Z" stroke="white" stroke-width="1.32574"/>
</g>
</g>
<g clip-path="url(#clip4_10891_6798)">
<rect x="53.8042" y="216.73" width="262.212" height="153.831" rx="13.3967" transform="rotate(2.51533 53.8042 216.73)" fill="url(#paint6_linear_10891_6798)"/>
<circle cx="62.7852" cy="222.152" r="32.6545" transform="rotate(2.51533 62.7852 222.152)" fill="url(#paint7_linear_10891_6798)"/>
<g clip-path="url(#clip5_10891_6798)">
<rect x="69.1011" y="250.087" width="27.6307" height="21.7697" rx="3.34918" transform="rotate(2.51533 69.1011 250.087)" fill="url(#paint8_linear_10891_6798)"/>
<path d="M88.1341 258.257C87.2276 258.217 86.3149 258.621 85.8531 259.436C85.3923 260.25 85.1636 260.961 85.1443 261.678C85.1251 262.394 85.3151 263.096 85.656 263.888C86.0447 264.79 86.9496 265.329 87.9088 265.371L96.0707 265.729C97.5721 265.795 98.8428 264.632 98.9087 263.13L98.9822 261.457C99.0482 259.956 97.8845 258.685 96.383 258.619L88.1341 258.257Z" fill="url(#paint9_linear_10891_6798)" stroke="black" stroke-width="0.418647"/>
<path d="M77.0283 257.769C77.9348 257.809 78.8087 258.291 79.1971 259.144C79.5848 259.995 79.7503 260.723 79.7065 261.44C79.6629 262.154 79.4122 262.837 79.0031 263.596C78.5368 264.461 77.5881 264.918 76.6289 264.875L68.467 264.517C66.9656 264.451 65.8019 263.18 65.8679 261.679L65.9414 260.006C66.0073 258.504 67.2779 257.341 68.7794 257.407L77.0283 257.769Z" fill="url(#paint10_linear_10891_6798)" stroke="black" stroke-width="0.418647"/>
<mask id="path-28-inside-2_10891_6798" fill="white">
<path fill-rule="evenodd" clip-rule="evenodd" d="M86.0364 259.54C86.3902 258.915 87.0441 258.55 87.7507 258.477C87.2418 254.064 85.3275 250.8 82.9032 250.694C80.4791 250.587 78.286 253.67 77.392 258.022C78.0898 258.156 78.7094 258.577 79.0072 259.231C79.7634 260.891 79.6228 262.006 78.8194 263.496C78.4699 264.145 77.8173 264.547 77.0988 264.645C77.6053 269.066 79.5211 272.336 81.9478 272.443C84.3746 272.549 86.5696 269.46 87.4619 265.101C86.7551 264.94 86.1406 264.482 85.8495 263.806C85.1798 262.25 85.1375 261.127 86.0364 259.54Z"/>
</mask>
<path fill-rule="evenodd" clip-rule="evenodd" d="M86.0364 259.54C86.3902 258.915 87.0441 258.55 87.7507 258.477C87.2418 254.064 85.3275 250.8 82.9032 250.694C80.4791 250.587 78.286 253.67 77.392 258.022C78.0898 258.156 78.7094 258.577 79.0072 259.231C79.7634 260.891 79.6228 262.006 78.8194 263.496C78.4699 264.145 77.8173 264.547 77.0988 264.645C77.6053 269.066 79.5211 272.336 81.9478 272.443C84.3746 272.549 86.5696 269.46 87.4619 265.101C86.7551 264.94 86.1406 264.482 85.8495 263.806C85.1798 262.25 85.1375 261.127 86.0364 259.54Z" fill="url(#paint11_linear_10891_6798)"/>
<path d="M87.7507 258.477L87.7933 258.894L88.2151 258.851L88.1666 258.429L87.7507 258.477ZM86.0364 259.54L85.6721 259.333L86.0364 259.54ZM77.392 258.022L76.9819 257.938L76.8966 258.353L77.3132 258.433L77.392 258.022ZM79.0072 259.231L78.6262 259.404L78.6262 259.404L79.0072 259.231ZM78.8194 263.496L79.1879 263.695L79.1879 263.695L78.8194 263.496ZM77.0988 264.645L77.0421 264.231L76.6363 264.286L76.6829 264.693L77.0988 264.645ZM87.4619 265.101L87.872 265.185L87.9541 264.784L87.5549 264.693L87.4619 265.101ZM85.8495 263.806L85.4649 263.971L85.4649 263.971L85.8495 263.806ZM87.7081 258.061C86.8901 258.145 86.1036 258.571 85.6721 259.333L86.4007 259.746C86.6768 259.258 87.1982 258.955 87.7933 258.894L87.7081 258.061ZM82.8849 251.112C83.8992 251.157 84.8783 251.866 85.6881 253.189C86.4931 254.504 87.0852 256.361 87.3348 258.525L88.1666 258.429C87.9072 256.181 87.2877 254.198 86.4023 252.752C85.5216 251.313 84.3315 250.338 82.9216 250.276L82.8849 251.112ZM77.8021 258.106C78.2406 255.972 78.9931 254.175 79.9103 252.935C80.833 251.688 81.8705 251.068 82.8849 251.112L82.9216 250.276C81.5118 250.214 80.2407 251.081 79.2373 252.437C78.2285 253.8 77.4375 255.72 76.9819 257.938L77.8021 258.106ZM79.3882 259.057C79.025 258.26 78.2787 257.766 77.4709 257.611L77.3132 258.433C77.9008 258.546 78.3938 258.894 78.6262 259.404L79.3882 259.057ZM79.1879 263.695C79.6044 262.922 79.8698 262.21 79.916 261.453C79.9624 260.692 79.7854 259.929 79.3882 259.057L78.6262 259.404C78.9852 260.192 79.116 260.817 79.0803 261.402C79.0444 261.99 78.8377 262.58 78.4508 263.298L79.1879 263.695ZM77.1555 265.06C77.9892 264.946 78.7671 264.476 79.1879 263.695L78.4508 263.298C78.1727 263.814 77.6454 264.148 77.0421 264.231L77.1555 265.06ZM81.9662 272.024C80.9508 271.98 79.9707 271.269 79.1604 269.943C78.355 268.626 77.7632 266.766 77.5147 264.598L76.6829 264.693C76.941 266.945 77.5603 268.931 78.446 270.38C79.327 271.821 80.5181 272.799 81.9295 272.861L81.9662 272.024ZM87.0517 265.017C86.6141 267.155 85.8615 268.956 84.9436 270.198C84.0203 271.447 82.9816 272.069 81.9662 272.024L81.9295 272.861C83.3408 272.923 84.613 272.054 85.617 270.695C86.6264 269.329 87.4174 267.406 87.872 265.185L87.0517 265.017ZM85.4649 263.971C85.8155 264.785 86.5488 265.322 87.3689 265.509L87.5549 264.693C86.9614 264.557 86.4657 264.178 86.234 263.64L85.4649 263.971ZM85.6721 259.333C85.1999 260.167 84.9567 260.912 84.9362 261.673C84.9159 262.432 85.1178 263.165 85.4649 263.971L86.234 263.64C85.9115 262.891 85.7574 262.285 85.7732 261.696C85.789 261.11 85.974 260.499 86.4007 259.746L85.6721 259.333Z" fill="black" mask="url(#path-28-inside-2_10891_6798)"/>
<circle cx="82.7558" cy="254.04" r="0.837295" transform="rotate(2.51533 82.7558 254.04)" fill="black"/>
</g>
<path d="M112.161 269.483C113.66 267.726 114.526 265.518 114.62 263.21C114.714 260.903 114.031 258.631 112.68 256.758M108.058 266.339C108.899 265.452 109.398 264.295 109.465 263.075C109.533 261.855 109.164 260.65 108.426 259.676M112.041 263.18C111.961 264.767 111.394 266.291 110.417 267.544C110.415 267.547 110.411 267.548 110.408 267.545V267.545C110.405 267.543 110.404 267.539 110.406 267.536C111.382 266.285 111.948 264.764 112.028 263.179C112.107 261.595 111.697 260.024 110.853 258.681C110.851 258.678 110.852 258.674 110.855 258.672V258.672C110.858 258.67 110.862 258.671 110.864 258.674C111.71 260.019 112.121 261.593 112.041 263.18ZM106.886 263.013C106.839 263.557 106.62 264.071 106.262 264.483C106.262 264.483 106.261 264.483 106.261 264.483V264.483C106.26 264.483 106.26 264.482 106.261 264.482C106.619 264.07 106.837 263.556 106.884 263.013C106.931 262.47 106.804 261.926 106.523 261.459C106.522 261.459 106.523 261.458 106.523 261.458V261.458C106.523 261.458 106.524 261.458 106.524 261.458C106.806 261.925 106.933 262.47 106.886 263.013Z" stroke="white" stroke-width="1.03105" stroke-linecap="round"/>
<circle cx="256.557" cy="351.652" r="13.1176" transform="rotate(2.51533 256.557 351.652)" fill="#E40613"/>
<circle cx="269.661" cy="352.228" r="13.1176" transform="rotate(2.51533 269.661 352.228)" fill="url(#paint12_linear_10891_6798)"/>
<path d="M68.3288 353.515C67.673 353.486 67.1041 353.31 66.6222 352.987C66.1405 352.658 65.7744 352.216 65.5238 351.662C65.2735 351.101 65.1641 350.463 65.1956 349.747C65.227 349.03 65.392 348.404 65.6905 347.867C65.9957 347.331 66.4093 346.92 66.9314 346.635C67.4602 346.349 68.0726 346.222 68.7685 346.253C69.5582 346.287 70.2056 346.507 70.7108 346.911C71.2227 347.316 71.5409 347.856 71.6654 348.532L70.6918 348.489C70.6166 348.064 70.4071 347.719 70.0633 347.456C69.7262 347.193 69.2833 347.05 68.7346 347.026C68.2193 347.003 67.7658 347.1 67.3741 347.318C66.9826 347.529 66.6704 347.843 66.4375 348.262C66.2112 348.681 66.085 349.189 66.0588 349.784C66.0327 350.38 66.1139 350.897 66.3026 351.334C66.4912 351.771 66.7644 352.115 67.1222 352.366C67.4802 352.609 67.9035 352.742 68.392 352.763C69.1415 352.796 69.7165 352.604 70.1171 352.185C70.5179 351.76 70.7619 351.168 70.8489 350.407L68.8213 350.318L68.8504 349.656L71.7413 349.783L71.5763 353.537L70.8034 353.503L70.7839 352.345C70.5117 352.742 70.1867 353.043 69.8089 353.248C69.4312 353.453 68.9378 353.542 68.3288 353.515ZM75.0927 353.812C74.6176 353.791 74.2007 353.665 73.842 353.435C73.4837 353.198 73.206 352.881 73.0089 352.483C72.8185 352.086 72.7349 351.623 72.7581 351.095C72.781 350.573 72.9048 350.122 73.1293 349.743C73.354 349.357 73.6552 349.065 74.0326 348.868C74.4171 348.663 74.8536 348.572 75.3421 348.593C75.8239 348.614 76.2339 348.743 76.5722 348.979C76.9175 349.209 77.176 349.505 77.3478 349.868C77.5196 350.231 77.5965 350.616 77.5786 351.025C77.5754 351.098 77.5688 351.172 77.5588 351.245C77.5556 351.319 77.5519 351.402 77.5478 351.496L73.5829 351.322C73.5862 351.704 73.6592 352.026 73.802 352.287C73.9517 352.542 74.1409 352.738 74.3695 352.875C74.6048 353.013 74.8563 353.088 75.124 353.099C75.472 353.115 75.7666 353.047 76.0079 352.897C76.2492 352.746 76.4294 352.536 76.5485 352.267L77.3816 352.303C77.2275 352.759 76.953 353.133 76.558 353.424C76.17 353.708 75.6816 353.838 75.0927 353.812ZM75.2907 349.305C74.8892 349.287 74.5257 349.395 74.2003 349.629C73.8819 349.857 73.689 350.203 73.6216 350.67L76.7534 350.807C76.753 350.358 76.6145 350 76.3379 349.733C76.0614 349.466 75.7123 349.323 75.2907 349.305ZM80.8377 354.064C80.3693 354.044 79.9524 353.918 79.5871 353.688C79.2217 353.457 78.9372 353.143 78.7334 352.745C78.5366 352.341 78.4498 351.874 78.473 351.346C78.4962 350.817 78.6268 350.363 78.8647 349.985C79.1029 349.6 79.414 349.308 79.7982 349.111C80.189 348.913 80.6187 348.825 81.0871 348.846C81.5555 348.866 81.9724 348.992 82.3378 349.222C82.7031 349.453 82.9842 349.77 83.181 350.175C83.3847 350.572 83.475 351.036 83.4518 351.564C83.4286 352.093 83.2979 352.55 83.0597 352.935C82.8218 353.313 82.5074 353.601 82.1166 353.799C81.7325 353.996 81.3062 354.085 80.8377 354.064ZM80.8695 353.342C81.1572 353.354 81.428 353.296 81.6818 353.166C81.9355 353.036 82.1456 352.834 82.3118 352.56C82.4781 352.286 82.5703 351.941 82.5885 351.526C82.6068 351.111 82.5451 350.76 82.4035 350.472C82.2687 350.185 82.0805 349.965 81.8391 349.814C81.5976 349.662 81.3364 349.581 81.0553 349.568C80.7676 349.556 80.4968 349.614 80.2431 349.744C79.9893 349.873 79.7793 350.075 79.613 350.35C79.4467 350.624 79.3545 350.969 79.3363 351.383C79.3181 351.798 79.3797 352.15 79.5213 352.438C79.6629 352.725 79.851 352.945 80.0857 353.096C80.3272 353.247 80.5884 353.329 80.8695 353.342ZM84.5148 354.105L84.7335 349.126L85.4964 349.16L85.5248 350.117C85.6931 349.795 85.9388 349.545 86.2618 349.365C86.5849 349.184 86.9773 349.104 87.439 349.125L87.4002 350.008L87.1693 349.998C86.8749 349.985 86.6015 350.026 86.3492 350.123C86.0972 350.212 85.8922 350.377 85.7341 350.619C85.576 350.86 85.4874 351.198 85.4682 351.633L85.358 354.142L84.5148 354.105ZM90.08 352.781C89.7989 352.768 89.5429 352.72 89.3119 352.636L88.7893 353.086C88.8606 353.143 88.9488 353.194 89.0541 353.239C89.1664 353.277 89.3256 353.317 89.5315 353.36C89.7378 353.396 90.0276 353.439 90.4009 353.489C91.068 353.565 91.5397 353.74 91.816 354.014C92.0923 354.287 92.2212 354.635 92.2027 355.056C92.19 355.344 92.0977 355.615 91.9256 355.869C91.7602 356.123 91.5099 356.327 91.1746 356.48C90.8461 356.633 90.4275 356.698 89.9189 356.676C89.4706 356.656 89.075 356.578 88.7324 356.443C88.3894 356.314 88.1261 356.124 87.9427 355.875C87.7589 355.632 87.6749 355.33 87.6908 354.969C87.699 354.781 87.7582 354.58 87.8683 354.363C87.9781 354.153 88.1744 353.958 88.4573 353.775C88.3127 353.709 88.1884 353.64 88.0842 353.568C87.9871 353.49 87.8969 353.406 87.8138 353.315L87.8239 353.084L88.7142 352.278C88.334 351.926 88.156 351.476 88.1801 350.927C88.1945 350.599 88.2846 350.305 88.4502 350.044C88.6159 349.783 88.8494 349.582 89.1506 349.441C89.4521 349.293 89.8136 349.229 90.2352 349.247C90.5229 349.26 90.7822 349.312 91.0129 349.402L92.8498 349.483L92.822 350.115L91.8867 350.114C92.0684 350.404 92.1512 350.733 92.135 351.101C92.1206 351.429 92.0273 351.723 91.8549 351.984C91.6892 352.245 91.4556 352.449 91.1541 352.597C90.8596 352.738 90.5016 352.799 90.08 352.781ZM90.1104 352.088C90.4651 352.104 90.7501 352.026 90.9655 351.854C91.1879 351.676 91.3067 351.413 91.322 351.065C91.337 350.724 91.2414 350.458 91.0352 350.268C90.8359 350.072 90.559 349.966 90.2043 349.95C89.843 349.934 89.5511 350.015 89.3287 350.193C89.1133 350.365 88.9981 350.621 88.9832 350.962C88.9679 351.31 89.0598 351.583 89.2591 351.779C89.4653 351.969 89.749 352.072 90.1104 352.088ZM88.5174 354.925C88.5027 355.259 88.6324 355.513 88.9064 355.686C89.1801 355.866 89.5278 355.965 89.9493 355.983C90.3642 356.001 90.6995 355.926 90.955 355.756C91.2172 355.586 91.355 355.351 91.3682 355.05C91.3776 354.836 91.2988 354.645 91.1319 354.476C90.9647 354.315 90.6474 354.21 90.1802 354.163C89.8133 354.12 89.4969 354.073 89.231 354.021C88.9501 354.156 88.7626 354.305 88.6682 354.469C88.5736 354.639 88.5233 354.791 88.5174 354.925ZM95.6193 354.714C95.1442 354.693 94.7273 354.567 94.3687 354.337C94.0103 354.1 93.7326 353.783 93.5355 353.385C93.3451 352.988 93.2615 352.525 93.2847 351.996C93.3077 351.474 93.4314 351.024 93.6559 350.645C93.8807 350.259 94.1818 349.967 94.5593 349.769C94.9437 349.565 95.3802 349.473 95.8687 349.495C96.3505 349.516 96.7606 349.645 97.0988 349.881C97.4441 350.111 97.7026 350.407 97.8744 350.77C98.0462 351.133 98.1232 351.518 98.1052 351.926C98.102 352 98.0954 352.073 98.0855 352.147C98.0823 352.22 98.0786 352.304 98.0745 352.398L94.1095 352.224C94.1128 352.606 94.1859 352.928 94.3286 353.189C94.4783 353.443 94.6675 353.639 94.8961 353.777C95.1315 353.914 95.383 353.989 95.6506 354.001C95.9986 354.016 96.2932 353.949 96.5345 353.798C96.7758 353.648 96.956 353.438 97.0751 353.168L97.9083 353.205C97.7541 353.661 97.4796 354.034 97.0846 354.325C96.6967 354.61 96.2082 354.74 95.6193 354.714ZM95.8173 350.207C95.4158 350.189 95.0523 350.297 94.727 350.531C94.4085 350.758 94.2156 351.105 94.1482 351.572L97.28 351.709C97.2796 351.26 97.1412 350.902 96.8646 350.635C96.588 350.368 96.2389 350.225 95.8173 350.207ZM104.884 355.121C104.195 355.09 103.606 354.914 103.117 354.59C102.636 354.261 102.269 353.819 102.019 353.265C101.769 352.704 101.659 352.062 101.691 351.34C101.723 350.624 101.887 350.001 102.186 349.471C102.484 348.934 102.888 348.523 103.396 348.237C103.912 347.951 104.514 347.823 105.203 347.853C106.006 347.889 106.65 348.111 107.135 348.521C107.627 348.925 107.928 349.475 108.038 350.17L107.105 350.129C107.017 349.69 106.811 349.332 106.488 349.056C106.172 348.774 105.733 348.621 105.171 348.596C104.669 348.574 104.225 348.672 103.84 348.89C103.456 349.101 103.15 349.419 102.923 349.845C102.704 350.264 102.581 350.775 102.554 351.378C102.528 351.98 102.605 352.503 102.787 352.947C102.976 353.384 103.252 353.728 103.617 353.979C103.982 354.223 104.415 354.356 104.917 354.378C105.479 354.403 105.929 354.295 106.269 354.055C106.615 353.809 106.851 353.474 106.976 353.05L107.91 353.091C107.74 353.761 107.392 354.275 106.867 354.634C106.348 354.994 105.687 355.156 104.884 355.121ZM111.245 355.4C110.777 355.38 110.36 355.254 109.995 355.023C109.629 354.793 109.345 354.479 109.141 354.081C108.944 353.676 108.857 353.21 108.881 352.681C108.904 352.153 109.034 351.699 109.272 351.321C109.511 350.936 109.822 350.644 110.206 350.447C110.597 350.249 111.026 350.161 111.495 350.181C111.963 350.202 112.38 350.327 112.745 350.558C113.111 350.789 113.392 351.106 113.589 351.51C113.792 351.908 113.883 352.371 113.859 352.9C113.836 353.429 113.706 353.886 113.467 354.271C113.229 354.649 112.915 354.937 112.524 355.134C112.14 355.332 111.714 355.421 111.245 355.4ZM111.277 354.677C111.565 354.69 111.836 354.632 112.089 354.502C112.343 354.372 112.553 354.17 112.719 353.896C112.886 353.622 112.978 353.277 112.996 352.862C113.014 352.447 112.953 352.096 112.811 351.808C112.676 351.521 112.488 351.301 112.247 351.15C112.005 350.998 111.744 350.916 111.463 350.904C111.175 350.891 110.904 350.95 110.651 351.08C110.397 351.209 110.187 351.411 110.021 351.685C109.854 351.96 109.762 352.304 109.744 352.719C109.726 353.134 109.787 353.486 109.929 353.773C110.071 354.061 110.259 354.281 110.493 354.432C110.735 354.583 110.996 354.665 111.277 354.677ZM114.922 355.441L115.24 348.214L116.083 348.251L115.766 355.478L114.922 355.441ZM117.148 355.539L117.465 348.311L118.308 348.348L117.991 355.576L117.148 355.539ZM120.152 349.576C119.985 349.569 119.847 349.509 119.737 349.397C119.635 349.278 119.588 349.136 119.595 348.968C119.602 348.808 119.662 348.676 119.774 348.574C119.892 348.472 120.035 348.424 120.202 348.432C120.363 348.439 120.498 348.498 120.607 348.61C120.716 348.722 120.767 348.859 120.76 349.019C120.752 349.187 120.689 349.325 120.571 349.433C120.452 349.536 120.313 349.583 120.152 349.576ZM119.463 355.64L119.682 350.662L120.525 350.699L120.306 355.677L119.463 355.64ZM121.774 355.742L121.993 350.763L122.756 350.797L122.767 351.692C122.941 351.385 123.183 351.147 123.492 350.98C123.801 350.812 124.147 350.737 124.528 350.754C125.117 350.78 125.577 350.981 125.91 351.358C126.249 351.728 126.402 352.284 126.369 353.027L126.241 355.938L125.398 355.901L125.522 353.08C125.568 352.043 125.162 351.506 124.306 351.468C123.877 351.449 123.512 351.591 123.211 351.893C122.916 352.188 122.756 352.624 122.731 353.199L122.618 355.779L121.774 355.742ZM129.421 356.199C128.825 356.172 128.337 356 127.955 355.682C127.573 355.363 127.36 354.945 127.316 354.427L128.179 354.464C128.221 354.728 128.349 354.961 128.561 355.165C128.78 355.362 129.081 355.47 129.462 355.486C129.817 355.502 130.081 355.44 130.255 355.3C130.429 355.153 130.52 354.976 130.529 354.769C130.543 354.468 130.441 354.262 130.225 354.152C130.015 354.042 129.714 353.939 129.323 353.841C129.058 353.776 128.794 353.687 128.53 353.575C128.267 353.463 128.049 353.312 127.876 353.124C127.704 352.928 127.624 352.68 127.637 352.379C127.657 351.944 127.833 351.596 128.166 351.336C128.506 351.069 128.954 350.948 129.509 350.973C130.038 350.996 130.464 351.149 130.787 351.431C131.117 351.707 131.298 352.09 131.33 352.581L130.496 352.545C130.474 352.289 130.372 352.087 130.191 351.938C130.017 351.783 129.776 351.698 129.468 351.685C129.167 351.672 128.93 351.725 128.757 351.845C128.591 351.965 128.503 352.129 128.494 352.336C128.485 352.537 128.582 352.699 128.785 352.822C128.994 352.945 129.277 353.054 129.635 353.151C129.94 353.231 130.227 353.327 130.497 353.44C130.774 353.546 130.995 353.7 131.161 353.901C131.333 354.097 131.412 354.375 131.396 354.736C131.383 355.185 131.196 355.549 130.835 355.828C130.481 356.101 130.01 356.224 129.421 356.199Z" fill="white"/>
<path d="M240.354 250.883C240.409 249.615 239.732 248.612 238.544 248.168C239.128 247.708 239.455 247.063 239.49 246.265C239.56 244.668 238.374 243.455 236.511 243.373L232.894 243.214L232.44 253.547L236.871 253.742C238.891 253.831 240.277 252.621 240.354 250.883ZM236.29 244.822C237.308 244.867 237.865 245.409 237.827 246.27C237.789 247.131 237.186 247.654 236.168 247.609L234.336 247.528L234.459 244.742L236.29 244.822ZM238.681 250.762C238.637 251.749 237.937 252.33 236.794 252.28L234.133 252.163L234.274 248.953L236.935 249.07C238.078 249.12 238.724 249.776 238.681 250.762Z" fill="white"/>
<path d="M240.368 250.037C240.226 252.211 242.037 254.188 244.247 254.238C246.483 254.384 248.461 252.572 248.51 250.394C248.652 248.22 246.84 246.258 244.599 246.207C242.393 246.078 240.418 247.827 240.368 250.037ZM246.818 250.336C246.757 251.729 245.675 252.78 244.313 252.72C242.967 252.661 241.98 251.551 242.043 250.126C242.106 248.701 243.187 247.651 244.549 247.71C245.88 247.769 246.881 248.911 246.818 250.336Z" fill="white"/>
<path d="M255.828 249.759C255.909 247.927 254.882 246.658 253.082 246.579C252.127 246.537 251.346 246.817 250.74 247.402L250.773 246.65L249.238 246.583L248.901 254.27L250.545 254.342L250.746 249.755C250.792 248.706 251.56 248.003 252.578 248.047C253.58 248.091 254.222 248.841 254.175 249.906L253.973 254.493L255.617 254.565L255.828 249.759Z" fill="white"/>
<path d="M262.892 250.226C262.983 248.159 261.78 246.961 259.886 246.878C258.555 246.82 257.389 247.302 256.573 248.38L257.485 249.392C258.161 248.653 258.804 248.305 259.665 248.343C260.714 248.389 261.283 248.994 261.236 250.059L261.214 250.56L259.038 250.465C257.3 250.388 256.167 251.201 256.108 252.532C256.05 253.863 257.075 254.802 258.688 254.873C259.737 254.919 260.598 254.596 261.191 253.947L261.153 254.808L262.688 254.876L262.892 250.226ZM261.156 251.891C261.11 252.94 260.199 253.669 259.088 253.62C258.289 253.585 257.758 253.185 257.786 252.543C257.814 251.917 258.313 251.625 259.19 251.663L261.162 251.75L261.156 251.891Z" fill="white"/>
<path d="M265.976 245.906C266.02 244.92 266.536 244.598 267.538 244.642C267.726 244.65 267.944 244.675 268.193 244.718L268.255 243.324C267.961 243.217 267.619 243.155 267.196 243.136C265.505 243.062 264.418 243.893 264.339 245.693L264.271 247.243L263.175 247.195L263.112 248.62L264.208 248.668L263.933 254.931L265.577 255.003L265.852 248.74L267.668 248.82L267.731 247.395L265.915 247.316L265.976 245.906ZM268.927 255.15L270.571 255.222L270.909 247.535L269.265 247.463L268.927 255.15ZM269.093 244.585C269.067 245.195 269.547 245.687 270.173 245.714C270.784 245.741 271.305 245.293 271.332 244.683C271.359 244.072 270.879 243.565 270.269 243.538C269.643 243.511 269.12 243.974 269.093 244.585Z" fill="white"/>
<path d="M277.993 243.783L277.774 248.778C277.226 248.048 276.32 247.6 275.255 247.553C273.128 247.413 271.372 249.171 271.321 251.412C271.221 253.682 272.742 255.49 274.902 255.585C276.045 255.635 277.052 255.209 277.651 254.435L277.603 255.531L279.137 255.598L279.653 243.856L277.993 243.783ZM277.677 251.691C277.604 253.366 276.456 254.147 275.25 254.094C273.888 254.035 272.932 252.942 272.997 251.47C273.062 249.998 274.156 249.011 275.471 249.069C276.661 249.121 277.75 250.032 277.677 251.691Z" fill="white"/>
<path d="M287.256 252.645C287.35 252.289 287.412 251.946 287.426 251.617C287.514 249.613 286.062 248.028 284.027 247.939C281.853 247.796 279.923 249.578 279.873 251.788C279.774 254.058 281.482 255.874 283.831 255.977C285.005 256.029 286.04 255.666 286.954 254.875L286.22 253.714C285.505 254.294 284.74 254.558 283.942 254.523C282.626 254.465 281.674 253.655 281.525 252.394L287.256 252.645ZM281.613 251.111C281.914 249.979 282.823 249.282 283.903 249.329C284.983 249.377 285.829 250.12 285.793 251.295L281.613 251.111Z" fill="white"/>
<circle cx="220.09" cy="247.702" r="1.98861" transform="rotate(2.51533 220.09 247.702)" stroke="white" stroke-width="1.32574"/>
<circle cx="220.091" cy="247.702" r="4.64009" transform="rotate(2.51533 220.091 247.702)" stroke="white" stroke-width="1.32574"/>
<path d="M227.376 248.022C227.199 252.045 223.795 255.163 219.771 254.986C215.748 254.809 212.63 251.405 212.807 247.382C212.984 243.358 216.388 240.24 220.411 240.417C224.435 240.594 227.553 243.998 227.376 248.022Z" stroke="white" stroke-width="1.32574"/>
</g>
<g filter="url(#filter1_dd_10891_6798)">
<g clip-path="url(#clip6_10891_6798)">
<rect x="31.3574" y="257.036" width="262.212" height="153.831" rx="13.3967" transform="rotate(2.36868 31.3574 257.036)" fill="#D7D1F0"/>
<circle cx="40.3517" cy="262.436" r="32.6545" transform="rotate(2.36868 40.3517 262.436)" fill="url(#paint13_linear_10891_6798)"/>
<g clip-path="url(#clip7_10891_6798)">
<rect x="46.7393" y="290.355" width="27.6307" height="21.7697" rx="3.34918" transform="rotate(2.36868 46.7393 290.355)" fill="url(#paint14_linear_10891_6798)"/>
<path d="M65.7945 298.476C64.8879 298.438 63.9762 298.844 63.5165 299.661C63.0578 300.476 62.8309 301.187 62.8135 301.905C62.7961 302.621 62.9878 303.322 63.3309 304.113C63.7218 305.015 64.6281 305.551 65.5874 305.59L73.7502 305.928C75.2518 305.99 76.5194 304.823 76.5815 303.322L76.6508 301.648C76.7129 300.147 75.5459 298.879 74.0443 298.817L65.7945 298.476Z" fill="url(#paint15_linear_10891_6798)" stroke="black" stroke-width="0.418647"/>
<path d="M54.6866 298.016C55.5933 298.054 56.4684 298.534 56.859 299.385C57.2489 300.235 57.4162 300.964 57.3743 301.68C57.3325 302.395 57.0835 303.078 56.6763 303.838C56.2123 304.704 55.2648 305.163 54.3055 305.124L46.1427 304.786C44.6411 304.724 43.4742 303.456 43.5363 301.955L43.6055 300.282C43.6676 298.78 44.9352 297.613 46.4368 297.675L54.6866 298.016Z" fill="url(#paint16_linear_10891_6798)" stroke="black" stroke-width="0.418647"/>
<mask id="path-44-inside-3_10891_6798" fill="white">
<path fill-rule="evenodd" clip-rule="evenodd" d="M63.6979 299.764C64.0503 299.138 64.7036 298.771 65.4103 298.697C64.8901 294.285 62.9674 291.027 60.543 290.927C58.1185 290.826 55.9334 293.915 55.0505 298.269C55.7485 298.401 56.3691 298.82 56.6685 299.473C57.429 301.131 57.2912 302.247 56.4916 303.739C56.1439 304.388 55.4924 304.793 54.7743 304.893C55.2921 309.312 57.2162 312.577 59.6432 312.678C62.0702 312.778 64.2574 309.683 65.1384 305.322C64.4309 305.163 63.8149 304.706 63.5219 304.03C62.8483 302.477 62.8031 301.354 63.6979 299.764Z"/>
</mask>
<path fill-rule="evenodd" clip-rule="evenodd" d="M63.6979 299.764C64.0503 299.138 64.7036 298.771 65.4103 298.697C64.8901 294.285 62.9674 291.027 60.543 290.927C58.1185 290.826 55.9334 293.915 55.0505 298.269C55.7485 298.401 56.3691 298.82 56.6685 299.473C57.429 301.131 57.2912 302.247 56.4916 303.739C56.1439 304.388 55.4924 304.793 54.7743 304.893C55.2921 309.312 57.2162 312.577 59.6432 312.678C62.0702 312.778 64.2574 309.683 65.1384 305.322C64.4309 305.163 63.8149 304.706 63.5219 304.03C62.8483 302.477 62.8031 301.354 63.6979 299.764Z" fill="url(#paint17_linear_10891_6798)"/>
<path d="M65.4103 298.697L65.4538 299.114L65.8757 299.07L65.8261 298.648L65.4103 298.697ZM63.6979 299.764L64.0628 299.969L63.6979 299.764ZM55.0505 298.269L54.6402 298.185L54.5559 298.601L54.9727 298.68L55.0505 298.269ZM56.6685 299.473L56.288 299.648L56.6685 299.473ZM56.4916 303.739L56.8606 303.937L56.4916 303.739ZM54.7743 304.893L54.7164 304.478L54.3108 304.535L54.3585 304.941L54.7743 304.893ZM65.1384 305.322L65.5488 305.405L65.6299 305.003L65.2303 304.913L65.1384 305.322ZM63.5219 304.03L63.1378 304.197L63.5219 304.03ZM65.3667 298.281C64.5486 298.367 63.7629 298.795 63.3331 299.559L64.0628 299.969C64.3378 299.481 64.8587 299.176 65.4538 299.114L65.3667 298.281ZM60.5257 291.345C61.5401 291.387 62.5211 292.094 63.3342 293.414C64.1426 294.728 64.7394 296.582 64.9945 298.746L65.8261 298.648C65.561 296.4 64.9363 294.42 64.0472 292.975C63.1629 291.539 61.9703 290.567 60.5603 290.508L60.5257 291.345ZM55.4608 298.352C55.8938 296.216 56.6418 294.417 57.5558 293.175C58.4753 291.926 59.5112 291.303 60.5257 291.345L60.5603 290.508C59.1503 290.45 57.8814 291.321 56.8815 292.679C55.8762 294.045 55.0901 295.967 54.6402 298.185L55.4608 298.352ZM57.0491 299.299C56.6839 298.502 55.9365 298.01 55.1284 297.857L54.9727 298.68C55.5605 298.791 56.0543 299.138 56.288 299.648L57.0491 299.299ZM56.8606 303.937C57.2752 303.163 57.5388 302.45 57.583 301.693C57.6275 300.932 57.4485 300.169 57.0491 299.299L56.288 299.648C56.649 300.435 56.7814 301.059 56.7472 301.644C56.7128 302.232 56.5076 302.823 56.1226 303.542L56.8606 303.937ZM54.8321 305.307C55.6654 305.191 56.4419 304.719 56.8606 303.937L56.1226 303.542C55.8458 304.058 55.3195 304.394 54.7164 304.478L54.8321 305.307ZM59.6605 312.259C58.645 312.217 57.6631 311.509 56.8494 310.186C56.0406 308.87 55.444 307.012 55.1901 304.844L54.3585 304.941C54.6223 307.193 55.2467 309.177 56.1361 310.624C57.0208 312.063 58.2144 313.037 59.6259 313.096L59.6605 312.259ZM64.7281 305.239C64.2959 307.378 63.5479 309.181 62.6332 310.425C61.7131 311.677 60.6761 312.301 59.6605 312.259L59.6259 313.096C61.0374 313.154 62.3074 312.282 63.3079 310.921C64.3138 309.552 65.0999 307.627 65.5488 305.405L64.7281 305.239ZM63.1378 304.197C63.4906 305.011 64.2257 305.546 65.0466 305.73L65.2303 304.913C64.6361 304.78 64.1392 304.402 63.906 303.864L63.1378 304.197ZM63.3331 299.559C62.8631 300.394 62.6217 301.139 62.6032 301.901C62.5848 302.659 62.7886 303.392 63.1378 304.197L63.906 303.864C63.5816 303.116 63.426 302.51 63.4403 301.921C63.4545 301.335 63.638 300.724 64.0628 299.969L63.3331 299.559Z" fill="black" mask="url(#path-44-inside-3_10891_6798)"/>
<circle cx="60.405" cy="294.272" r="0.837295" transform="rotate(2.36868 60.405 294.272)" fill="black"/>
</g>
<path d="M89.8493 309.64C91.3436 307.88 92.2037 305.669 92.2918 303.361C92.3798 301.054 91.6908 298.784 90.3351 296.914M85.7379 306.506C86.5768 305.617 87.0726 304.46 87.1369 303.239C87.2012 302.019 86.8297 300.815 86.0889 299.843M89.7128 303.337C89.6369 304.925 89.0738 306.45 88.1001 307.706C88.0979 307.709 88.0937 307.709 88.0908 307.707V307.707C88.0879 307.705 88.0873 307.701 88.0896 307.698C89.0615 306.444 89.6237 304.921 89.6995 303.337C89.7753 301.752 89.361 300.183 88.5131 298.842C88.5112 298.839 88.5121 298.835 88.5152 298.833V298.833C88.5183 298.831 88.5224 298.832 88.5244 298.835C89.3737 300.178 89.7887 301.75 89.7128 303.337ZM84.5573 303.184C84.5116 303.728 84.2945 304.243 83.9374 304.655C83.9371 304.655 83.9365 304.656 83.9361 304.655V304.655C83.9357 304.655 83.9356 304.654 83.936 304.654C84.2928 304.242 84.5097 303.727 84.5554 303.184C84.6011 302.64 84.4732 302.097 84.1902 301.631C84.1899 301.63 84.1901 301.63 84.1905 301.629V301.629C84.191 301.629 84.1916 301.629 84.1919 301.63C84.4751 302.096 84.603 302.64 84.5573 303.184Z" stroke="white" stroke-width="1.03105" stroke-linecap="round"/>
<circle cx="234.183" cy="391.428" r="13.1176" transform="rotate(2.36868 234.183 391.428)" fill="#E40613"/>
<circle cx="247.289" cy="391.97" r="13.1176" transform="rotate(2.36868 247.289 391.97)" fill="url(#paint18_linear_10891_6798)"/>
<path d="M45.4485 393.752C44.9332 393.73 44.4887 393.618 44.115 393.415C43.7412 393.212 43.4575 392.939 43.2639 392.595C43.0703 392.252 42.9826 391.86 43.0009 391.418L43.8843 391.454C43.873 391.729 43.926 391.986 44.0435 392.225C44.1612 392.458 44.3377 392.65 44.5728 392.8C44.8149 392.944 45.1166 393.024 45.478 393.039C45.9532 393.059 46.326 392.96 46.5964 392.743C46.8669 392.526 47.0091 392.247 47.0232 391.906C47.0349 391.625 46.9839 391.398 46.8704 391.226C46.7571 391.047 46.5989 390.9 46.3959 390.784C46.1996 390.669 45.9692 390.565 45.7048 390.474C45.4471 390.383 45.1765 390.281 44.8928 390.169C44.3585 389.959 43.9665 389.711 43.7168 389.426C43.4674 389.134 43.352 388.764 43.3705 388.316C43.3794 387.941 43.4801 387.613 43.6727 387.333C43.8655 387.046 44.1293 386.829 44.4639 386.682C44.8054 386.528 45.2037 386.461 45.6588 386.48C46.1072 386.498 46.492 386.598 46.813 386.779C47.1407 386.96 47.3888 387.202 47.5573 387.503C47.7325 387.806 47.8157 388.144 47.8069 388.519L46.9235 388.483C46.9315 388.289 46.8892 388.096 46.7966 387.904C46.7042 387.706 46.5568 387.543 46.3543 387.413C46.1585 387.285 45.9067 387.214 45.5988 387.201C45.2176 387.179 44.8991 387.263 44.6431 387.453C44.3939 387.644 44.2619 387.917 44.2473 388.272C44.2348 388.573 44.3089 388.807 44.4696 388.975C44.6369 389.143 44.8723 389.286 45.1758 389.406C45.4795 389.519 45.8293 389.651 46.2254 389.802C46.555 389.936 46.8504 390.089 47.1114 390.261C47.3725 390.432 47.5714 390.648 47.7081 390.909C47.8515 391.169 47.915 391.497 47.8987 391.892C47.8849 392.227 47.7847 392.541 47.5983 392.835C47.4121 393.122 47.1377 393.352 46.7753 393.525C46.4195 393.698 45.9773 393.773 45.4485 393.752ZM50.9361 393.858C50.481 393.839 50.1275 393.714 49.8756 393.482C49.6237 393.251 49.5097 392.847 49.5335 392.271L49.6468 389.531L48.7835 389.495L48.813 388.782L49.6763 388.818L49.8362 387.628L50.569 387.658L50.5196 388.853L51.9853 388.913L51.9558 389.626L50.4901 389.566L50.3768 392.306C50.3637 392.621 50.4185 392.838 50.5409 392.957C50.6636 393.069 50.8856 393.132 51.2069 393.145L51.7289 393.167L51.699 393.889L50.9361 393.858ZM54.9471 394.145C54.4719 394.125 54.0547 394 53.6955 393.771C53.3365 393.535 53.058 393.218 52.8599 392.821C52.6685 392.425 52.5837 391.962 52.6056 391.433C52.6272 390.911 52.7497 390.46 52.9733 390.081C53.1971 389.694 53.4974 389.402 53.8744 389.203C54.2583 388.997 54.6946 388.905 55.1831 388.925C55.665 388.945 56.0754 389.073 56.4143 389.308C56.7601 389.537 57.0194 389.832 57.1921 390.195C57.3648 390.557 57.4428 390.943 57.4259 391.351C57.4228 391.425 57.4164 391.498 57.4067 391.571C57.4036 391.645 57.4002 391.729 57.3963 391.822L53.4309 391.658C53.4352 392.041 53.5091 392.362 53.6525 392.623C53.8029 392.877 53.9926 393.073 54.2215 393.209C54.4572 393.347 54.7089 393.421 54.9766 393.432C55.3246 393.446 55.6191 393.378 55.86 393.227C56.1008 393.076 56.2805 392.866 56.3989 392.596L57.2322 392.63C57.0792 393.086 56.8056 393.46 56.4114 393.753C56.0242 394.038 55.5361 394.169 54.9471 394.145ZM55.1336 389.637C54.732 389.62 54.3688 389.729 54.044 389.964C53.7262 390.192 53.5342 390.54 53.468 391.006L56.6001 391.136C56.5986 390.686 56.4592 390.329 56.1819 390.063C55.9047 389.796 55.5552 389.654 55.1336 389.637ZM59.6684 394.219L57.9871 389.162L58.8705 389.198L60.194 393.426L61.8722 389.322L62.7355 389.358L60.6422 394.259L59.6684 394.219ZM65.4468 394.579C64.9717 394.559 64.5545 394.435 64.1952 394.205C63.8363 393.969 63.5577 393.653 63.3596 393.256C63.1682 392.859 63.0834 392.396 63.1053 391.867C63.1269 391.345 63.2495 390.895 63.473 390.515C63.6968 390.129 63.9972 389.836 64.3741 389.637C64.7581 389.432 65.1943 389.339 65.6829 389.359C66.1647 389.379 66.5751 389.507 66.914 389.742C67.2598 389.971 67.5191 390.267 67.6918 390.629C67.8646 390.992 67.9425 391.377 67.9256 391.785C67.9225 391.859 67.9162 391.932 67.9064 392.006C67.9034 392.079 67.8999 392.163 67.896 392.257L63.9307 392.093C63.9349 392.475 64.0088 392.796 64.1522 393.057C64.3026 393.311 64.4923 393.507 64.7213 393.644C64.9569 393.781 65.2086 393.855 65.4763 393.866C65.8243 393.88 66.1188 393.812 66.3597 393.661C66.6006 393.51 66.7802 393.3 66.8987 393.03L67.7319 393.064C67.5789 393.521 67.3054 393.895 66.9111 394.187C66.5239 394.473 66.0358 394.603 65.4468 394.579ZM65.6333 390.071C65.2317 390.055 64.8686 390.164 64.5438 390.398C64.2259 390.627 64.0339 390.974 63.9677 391.44L67.0998 391.57C67.0983 391.121 66.9589 390.763 66.6816 390.497C66.4044 390.231 66.0549 390.089 65.6333 390.071ZM71.5855 394.712L71.8845 387.484L72.7277 387.519L72.5479 391.866L74.6726 389.852L75.7066 389.895L73.405 392.052L75.7818 394.886L74.7076 394.841L72.5355 392.167L72.4287 394.747L71.5855 394.712ZM78.2564 395.109C77.8414 395.092 77.4997 395.007 77.2311 394.855C76.9625 394.703 76.7661 394.507 76.642 394.268C76.5178 394.028 76.4614 393.771 76.4728 393.496C76.4938 392.988 76.7041 392.604 77.1036 392.346C77.5031 392.088 78.0375 391.972 78.7068 392L80.052 392.056L80.0545 391.995C80.0725 391.56 79.9723 391.228 79.7539 390.997C79.5357 390.76 79.2359 390.634 78.8544 390.618C78.5265 390.605 78.2386 390.677 77.9907 390.834C77.7499 390.985 77.5928 391.216 77.5195 391.528L76.6562 391.493C76.7046 391.133 76.8377 390.833 77.0554 390.594C77.2798 390.355 77.5519 390.179 77.8717 390.065C78.1918 389.944 78.5292 389.891 78.8839 389.905C79.58 389.934 80.0942 390.143 80.4267 390.532C80.7662 390.915 80.9232 391.414 80.8978 392.03L80.7711 395.092L80.0182 395.061L80.005 394.165C79.8528 394.441 79.6353 394.673 79.3526 394.862C79.0769 395.045 78.7115 395.128 78.2564 395.109ZM78.4164 394.401C78.7376 394.415 79.0155 394.342 79.25 394.184C79.4911 394.027 79.6775 393.817 79.809 393.554C79.9406 393.291 80.0124 393.013 80.0246 392.718L80.025 392.708L78.7501 392.655C78.2548 392.635 77.8998 392.707 77.6852 392.873C77.4775 393.032 77.3684 393.238 77.3578 393.493C77.3471 393.754 77.432 393.968 77.6128 394.137C77.8005 394.299 78.0684 394.387 78.4164 394.401ZM82.0362 395.144L82.2421 390.165L83.0051 390.197L83.0183 391.092C83.192 390.784 83.4331 390.546 83.7418 390.378C84.0504 390.21 84.3955 390.133 84.7769 390.149C85.3659 390.174 85.8269 390.374 86.16 390.749C86.5 391.119 86.6547 391.675 86.6239 392.418L86.5035 395.329L85.6602 395.294L85.7769 392.473C85.8198 391.436 85.413 390.9 84.5563 390.864C84.128 390.846 83.7634 390.989 83.4626 391.292C83.1688 391.588 83.01 392.024 82.9862 392.599L82.8794 395.179L82.0362 395.144ZM89.5932 395.578C89.0042 395.553 88.5431 395.357 88.2097 394.987C87.8767 394.612 87.7255 394.052 87.7562 393.309L87.8767 390.398L88.7199 390.433L88.6032 393.254C88.5603 394.291 88.9639 394.828 89.8138 394.863C90.2489 394.881 90.6133 394.742 90.9071 394.445C91.2079 394.143 91.3702 393.704 91.394 393.128L91.5007 390.548L92.344 390.583L92.138 395.562L91.3751 395.531L91.3518 394.635C91.1849 394.943 90.9437 395.181 90.6284 395.349C90.3197 395.517 89.9747 395.593 89.5932 395.578Z" fill="#0D152E"/>
<path d="M217.741 290.256C217.793 288.988 217.113 287.987 215.924 287.546C216.507 287.084 216.832 286.439 216.865 285.64C216.931 284.043 215.742 282.833 213.879 282.756L210.262 282.606L209.834 292.941L214.265 293.124C216.285 293.208 217.669 291.994 217.741 290.256ZM213.662 284.206C214.68 284.248 215.238 284.788 215.202 285.65C215.166 286.511 214.564 287.035 213.547 286.993L211.715 286.917L211.83 284.13L213.662 284.206ZM216.067 290.14C216.026 291.126 215.328 291.709 214.185 291.662L211.523 291.552L211.656 288.342L214.318 288.452C215.461 288.499 216.108 289.153 216.067 290.14Z" fill="#150F2E"/>
<path d="M217.753 289.41C217.616 291.584 219.432 293.557 221.642 293.602C223.879 293.741 225.852 291.925 225.895 289.747C226.032 287.572 224.215 285.615 221.974 285.569C219.768 285.446 217.798 287.2 217.753 289.41ZM224.204 289.692C224.146 291.086 223.067 292.139 221.705 292.083C220.358 292.027 219.369 290.92 219.428 289.495C219.487 288.07 220.566 287.017 221.928 287.073C223.259 287.128 224.263 288.267 224.204 289.692Z" fill="#150F2E"/>
<path d="M233.212 289.092C233.288 287.26 232.258 285.994 230.458 285.92C229.503 285.88 228.722 286.162 228.118 286.749L228.149 285.997L226.614 285.934L226.296 293.622L227.94 293.69L228.13 289.102C228.174 288.053 228.94 287.347 229.958 287.389C230.96 287.431 231.603 288.179 231.559 289.244L231.369 293.831L233.014 293.899L233.212 289.092Z" fill="#150F2E"/>
<path d="M240.277 289.542C240.363 287.475 239.157 286.28 237.263 286.201C235.932 286.146 234.767 286.631 233.953 287.711L234.868 288.722C235.542 287.981 236.184 287.631 237.045 287.667C238.094 287.71 238.665 288.314 238.621 289.379L238.601 289.88L236.424 289.79C234.686 289.718 233.554 290.534 233.499 291.865C233.444 293.196 234.472 294.132 236.085 294.199C237.134 294.242 237.994 293.917 238.586 293.267L238.55 294.128L240.085 294.192L240.277 289.542ZM238.545 291.211C238.502 292.26 237.593 292.991 236.482 292.945C235.683 292.912 235.151 292.514 235.177 291.872C235.203 291.245 235.702 290.952 236.578 290.988L238.551 291.07L238.545 291.211Z" fill="#150F2E"/>
<path d="M243.351 285.214C243.391 284.228 243.907 283.904 244.909 283.945C245.097 283.953 245.315 283.978 245.564 284.02L245.622 282.626C245.328 282.52 244.986 282.459 244.563 282.441C242.872 282.371 241.787 283.205 241.712 285.005L241.648 286.555L240.552 286.51L240.493 287.935L241.589 287.98L241.33 294.243L242.974 294.311L243.233 288.048L245.05 288.123L245.109 286.699L243.292 286.623L243.351 285.214ZM246.325 294.45L247.969 294.518L248.287 286.83L246.643 286.762L246.325 294.45ZM246.464 283.884C246.439 284.495 246.92 284.985 247.547 285.011C248.157 285.037 248.678 284.588 248.703 283.977C248.728 283.366 248.247 282.86 247.637 282.835C247.01 282.809 246.489 283.274 246.464 283.884Z" fill="#150F2E"/>
<path d="M255.362 283.06L255.156 288.055C254.605 287.327 253.698 286.881 252.634 286.837C250.506 286.702 248.755 288.465 248.709 290.706C248.615 292.976 250.141 294.78 252.301 294.87C253.444 294.917 254.45 294.488 255.047 293.713L255.002 294.809L256.536 294.872L257.022 283.129L255.362 283.06ZM255.066 290.969C254.997 292.644 253.851 293.428 252.645 293.378C251.283 293.322 250.324 292.231 250.385 290.76C250.446 289.288 251.538 288.298 252.853 288.352C254.043 288.401 255.135 289.309 255.066 290.969Z" fill="#150F2E"/>
<path d="M264.647 291.898C264.74 291.542 264.801 291.199 264.815 290.87C264.898 288.866 263.442 287.284 261.406 287.2C259.232 287.063 257.307 288.85 257.263 291.06C257.169 293.33 258.882 295.142 261.231 295.239C262.405 295.288 263.439 294.923 264.351 294.129L263.614 292.969C262.9 293.552 262.136 293.818 261.338 293.785C260.022 293.731 259.068 292.922 258.916 291.661L264.647 291.898ZM259 290.379C259.298 289.246 260.206 288.546 261.286 288.591C262.366 288.636 263.214 289.377 263.181 290.552L259 290.379Z" fill="#150F2E"/>
<circle cx="197.469" cy="287.128" r="1.98861" transform="rotate(2.36868 197.469 287.128)" stroke="#150F2E" stroke-width="1.32574"/>
<circle cx="197.469" cy="287.127" r="4.64009" transform="rotate(2.36868 197.469 287.127)" stroke="#150F2E" stroke-width="1.32574"/>
<path d="M204.756 287.429C204.589 291.452 201.193 294.579 197.169 294.413C193.145 294.246 190.019 290.849 190.185 286.826C190.351 282.802 193.748 279.675 197.772 279.842C201.795 280.008 204.922 283.405 204.756 287.429Z" stroke="#150F2E" stroke-width="1.32574"/>
</g>
</g>
<rect x="41.3193" y="197.279" width="153.167" height="35.458" rx="14.4347" transform="rotate(2.47251 41.3193 197.279)" fill="#3A3391"/>
<path d="M58.9162 218.313C57.1233 218.236 55.8322 216.74 55.9374 214.304C56.0242 211.901 57.4585 210.472 59.2345 210.549C61.0951 210.629 61.8764 211.764 62.0239 213.059L64.3243 213.158C64.1794 210.627 62.6205 208.662 59.2714 208.517C56.1254 208.381 53.7235 210.633 53.5701 214.185C53.4145 217.788 55.581 220.203 58.7609 220.34C62.1607 220.487 63.817 218.627 64.1943 216.169L61.8939 216.069C61.6523 217.347 60.8106 218.395 58.9162 218.313ZM71.0086 220.869C74.3239 221.012 76.892 218.835 77.0497 215.182C77.2067 211.545 74.8344 209.189 71.5192 209.046C68.2039 208.903 65.6182 211.096 65.4612 214.732C65.3041 218.369 67.6934 220.726 71.0086 220.869ZM71.0955 218.856C69.1842 218.774 67.724 217.27 67.8299 214.818C67.9358 212.365 69.5202 210.993 71.4315 211.076C73.3259 211.157 74.7861 212.661 74.6802 215.113C74.5743 217.566 72.99 218.938 71.0955 218.856ZM88.2034 209.885L84.9269 218.657L82.4187 209.635L79.2557 209.499L78.7716 221.103L81.0212 221.2L81.4068 212.269L83.9981 221.328L85.6219 221.398L89.0036 212.546L88.6157 221.528L90.8654 221.625L91.3833 210.022L88.2034 209.885ZM93.5056 221.739L95.8398 221.84L96.3408 210.236L94.0066 210.135L93.5056 221.739ZM106.455 210.673L106.104 218.792L101.144 210.444L98.962 210.349L98.461 221.953L100.744 222.051L101.094 213.966L106.039 222.28L108.237 222.375L108.739 210.772L106.455 210.673ZM116.254 216.62L116.176 218.413L119.085 218.539C118.795 219.78 117.681 220.851 115.888 220.773C113.926 220.689 112.736 219.197 112.842 216.744C112.946 214.342 114.329 212.928 116.341 213.015C118.101 213.091 118.851 214.157 119.006 215.282L121.306 215.381C121.172 212.986 119.558 211.12 116.429 210.985C112.962 210.835 110.643 213.125 110.492 216.626C110.336 220.229 112.383 222.656 115.665 222.797C117.492 222.876 118.724 222.201 119.482 221.132L119.407 222.857L121.082 222.929L121.345 216.84L116.254 216.62ZM129.063 214.818C129.101 213.955 129.764 213.51 131.168 213.57C132.47 213.626 133.193 214.149 133.163 215.249L135.497 215.35C135.593 213.134 133.975 211.743 131.286 211.627C128.647 211.513 126.813 212.789 126.727 214.768C126.528 219.386 133.231 217.591 133.116 220.246C133.078 221.126 132.263 221.565 130.876 221.505C129.337 221.439 128.567 220.829 128.612 219.781L126.278 219.68C126.178 221.98 127.798 223.321 130.674 223.445C133.431 223.564 135.346 222.376 135.434 220.346C135.64 215.56 128.954 217.355 129.063 214.818ZM142.416 223.952C145.731 224.096 148.299 221.919 148.457 218.265C148.614 214.629 146.241 212.272 142.926 212.129C139.611 211.986 137.025 214.179 136.868 217.816C136.711 221.452 139.101 223.809 142.416 223.952ZM142.503 221.94C140.591 221.857 139.131 220.354 139.237 217.901C139.343 215.448 140.927 214.076 142.839 214.159C144.733 214.241 146.193 215.744 146.087 218.197C145.981 220.649 144.397 222.021 142.503 221.94ZM155.316 224.509C158.631 224.653 161.2 222.476 161.357 218.822C161.514 215.186 159.142 212.829 155.827 212.686C152.512 212.543 149.926 214.736 149.769 218.373C149.612 222.009 152.001 224.366 155.316 224.509ZM155.403 222.497C153.492 222.414 152.032 220.911 152.138 218.458C152.243 216.005 153.828 214.633 155.739 214.716C157.634 214.798 159.094 216.301 158.988 218.754C158.882 221.206 157.298 222.578 155.403 222.497ZM171.073 213.463L170.723 221.582L165.762 213.234L163.58 213.14L163.079 224.743L165.363 224.842L165.712 216.756L170.657 225.07L172.856 225.165L173.357 213.562L171.073 213.463Z" fill="white"/>
<rect x="41.3193" y="197.279" width="153.167" height="35.458" rx="14.4347" transform="rotate(2.47251 41.3193 197.279)" stroke="white" stroke-width="5.41301"/>
</g>
</g>
<defs>
<filter id="filter0_dd_10891_6798" x="-28.61" y="81.2759" width="471.335" height="367.816" filterUnits="userSpaceOnUse" color-interpolation-filters="sRGB">
<feFlood flood-opacity="0" result="BackgroundImageFix"/>
<feColorMatrix in="SourceAlpha" type="matrix" values="0 0 0 0 0 0 0 0 0 0 0 0 0 0 0 0 0 0 127 0" result="hardAlpha"/>
<feOffset dx="-0.837295" dy="0.837295"/>
<feGaussianBlur stdDeviation="50.2377"/>
<feColorMatrix type="matrix" values="0 0 0 0 0 0 0 0 0 0 0 0 0 0 0 0 0 0 0.12 0"/>
<feBlend mode="normal" in2="BackgroundImageFix" result="effect1_dropShadow_10891_6798"/>
<feColorMatrix in="SourceAlpha" type="matrix" values="0 0 0 0 0 0 0 0 0 0 0 0 0 0 0 0 0 0 127 0" result="hardAlpha"/>
<feOffset dx="0.837295" dy="-0.837295"/>
<feGaussianBlur stdDeviation="50.2377"/>
<feColorMatrix type="matrix" values="0 0 0 0 0 0 0 0 0 0 0 0 0 0 0 0 0 0 0.12 0"/>
<feBlend mode="normal" in2="effect1_dropShadow_10891_6798" result="effect2_dropShadow_10891_6798"/>
<feBlend mode="normal" in="SourceGraphic" in2="effect2_dropShadow_10891_6798" result="shape"/>
</filter>
<filter id="filter1_dd_10891_6798" x="-76.3132" y="155.724" width="470.971" height="367.162" filterUnits="userSpaceOnUse" color-interpolation-filters="sRGB">
<feFlood flood-opacity="0" result="BackgroundImageFix"/>
<feColorMatrix in="SourceAlpha" type="matrix" values="0 0 0 0 0 0 0 0 0 0 0 0 0 0 0 0 0 0 127 0" result="hardAlpha"/>
<feOffset dx="-0.837295" dy="0.837295"/>
<feGaussianBlur stdDeviation="50.2377"/>
<feColorMatrix type="matrix" values="0 0 0 0 0 0 0 0 0 0 0 0 0 0 0 0 0 0 0.12 0"/>
<feBlend mode="normal" in2="BackgroundImageFix" result="effect1_dropShadow_10891_6798"/>
<feColorMatrix in="SourceAlpha" type="matrix" values="0 0 0 0 0 0 0 0 0 0 0 0 0 0 0 0 0 0 127 0" result="hardAlpha"/>
<feOffset dx="0.837295" dy="-0.837295"/>
<feGaussianBlur stdDeviation="50.2377"/>
<feColorMatrix type="matrix" values="0 0 0 0 0 0 0 0 0 0 0 0 0 0 0 0 0 0 0.12 0"/>
<feBlend mode="normal" in2="effect1_dropShadow_10891_6798" result="effect2_dropShadow_10891_6798"/>
<feBlend mode="normal" in="SourceGraphic" in2="effect2_dropShadow_10891_6798" result="shape"/>
</filter>
<linearGradient id="paint0_linear_10891_6798" x1="88.4341" y1="155.357" x2="88.4341" y2="220.666" gradientUnits="userSpaceOnUse">
<stop stop-color="#41DC6D" stop-opacity="0.32"/>
<stop offset="1" stop-color="#41DC6D" stop-opacity="0"/>
</linearGradient>
<linearGradient id="paint1_linear_10891_6798" x1="108.565" y1="215.946" x2="108.565" y2="237.716" gradientUnits="userSpaceOnUse">
<stop stop-color="#F1F1F1"/>
<stop offset="0.48432" stop-color="white" stop-opacity="0.76"/>
<stop offset="1" stop-color="#EEEEEE" stop-opacity="0.9"/>
</linearGradient>
<linearGradient id="paint2_linear_10891_6798" x1="117.841" y1="224.503" x2="117.547" y2="231.195" gradientUnits="userSpaceOnUse">
<stop stop-color="#EDE6F4"/>
<stop offset="0.48432" stop-color="#EEE9F0" stop-opacity="0.840174"/>
<stop offset="1" stop-color="#E7E7E7" stop-opacity="0.67"/>
</linearGradient>
<linearGradient id="paint3_linear_10891_6798" x1="98.602" y1="223.658" x2="98.3081" y2="230.35" gradientUnits="userSpaceOnUse">
<stop stop-color="#FBF3FF"/>
<stop offset="0.48432" stop-color="#EEE9F0" stop-opacity="0.840174"/>
<stop offset="1" stop-color="#E7E7E7" stop-opacity="0.67"/>
</linearGradient>
<linearGradient id="paint4_linear_10891_6798" x1="108.552" y1="216.552" x2="107.597" y2="238.301" gradientUnits="userSpaceOnUse">
<stop stop-color="#FBF3FF"/>
<stop offset="0.48432" stop-color="#EEE9F0" stop-opacity="0.840174"/>
<stop offset="1" stop-color="#E7E7E7" stop-opacity="0.67"/>
</linearGradient>
<linearGradient id="paint5_linear_10891_6798" x1="295.039" y1="304.957" x2="295.039" y2="331.193" gradientUnits="userSpaceOnUse">
<stop stop-color="#F59E00" stop-opacity="0.68"/>
<stop offset="1" stop-color="#F59E00"/>
</linearGradient>
<linearGradient id="paint6_linear_10891_6798" x1="184.91" y1="216.73" x2="184.91" y2="370.56" gradientUnits="userSpaceOnUse">
<stop stop-color="#3A3391" stop-opacity="0.96"/>
<stop offset="1" stop-color="#19145C" stop-opacity="0.97"/>
</linearGradient>
<linearGradient id="paint7_linear_10891_6798" x1="62.7852" y1="189.498" x2="62.7852" y2="254.807" gradientUnits="userSpaceOnUse">
<stop stop-color="#41DC6D" stop-opacity="0.32"/>
<stop offset="1" stop-color="#41DC6D" stop-opacity="0"/>
</linearGradient>
<linearGradient id="paint8_linear_10891_6798" x1="82.9164" y1="250.087" x2="82.9164" y2="271.857" gradientUnits="userSpaceOnUse">
<stop stop-color="#F1F1F1"/>
<stop offset="0.48432" stop-color="white" stop-opacity="0.76"/>
<stop offset="1" stop-color="#EEEEEE" stop-opacity="0.9"/>
</linearGradient>
<linearGradient id="paint9_linear_10891_6798" x1="92.1914" y1="258.645" x2="91.8974" y2="265.337" gradientUnits="userSpaceOnUse">
<stop stop-color="#EDE6F4"/>
<stop offset="0.48432" stop-color="#EEE9F0" stop-opacity="0.840174"/>
<stop offset="1" stop-color="#E7E7E7" stop-opacity="0.67"/>
</linearGradient>
<linearGradient id="paint10_linear_10891_6798" x1="72.9526" y1="257.8" x2="72.6587" y2="264.491" gradientUnits="userSpaceOnUse">
<stop stop-color="#FBF3FF"/>
<stop offset="0.48432" stop-color="#EEE9F0" stop-opacity="0.840174"/>
<stop offset="1" stop-color="#E7E7E7" stop-opacity="0.67"/>
</linearGradient>
<linearGradient id="paint11_linear_10891_6798" x1="82.9032" y1="250.694" x2="81.9478" y2="272.443" gradientUnits="userSpaceOnUse">
<stop stop-color="#FBF3FF"/>
<stop offset="0.48432" stop-color="#EEE9F0" stop-opacity="0.840174"/>
<stop offset="1" stop-color="#E7E7E7" stop-opacity="0.67"/>
</linearGradient>
<linearGradient id="paint12_linear_10891_6798" x1="269.661" y1="339.111" x2="269.661" y2="365.346" gradientUnits="userSpaceOnUse">
<stop stop-color="#F59E00" stop-opacity="0.68"/>
<stop offset="1" stop-color="#F59E00"/>
</linearGradient>
<linearGradient id="paint13_linear_10891_6798" x1="40.3517" y1="229.781" x2="40.3517" y2="295.09" gradientUnits="userSpaceOnUse">
<stop stop-color="#41DC6D" stop-opacity="0.32"/>
<stop offset="1" stop-color="#41DC6D" stop-opacity="0"/>
</linearGradient>
<linearGradient id="paint14_linear_10891_6798" x1="60.5546" y1="290.355" x2="60.5546" y2="312.124" gradientUnits="userSpaceOnUse">
<stop stop-color="#F1F1F1"/>
<stop offset="0.48432" stop-color="white" stop-opacity="0.76"/>
<stop offset="1" stop-color="#EEEEEE" stop-opacity="0.9"/>
</linearGradient>
<linearGradient id="paint15_linear_10891_6798" x1="69.8528" y1="298.853" x2="69.576" y2="305.546" gradientUnits="userSpaceOnUse">
<stop stop-color="#EDE6F4"/>
<stop offset="0.48432" stop-color="#EEE9F0" stop-opacity="0.840174"/>
<stop offset="1" stop-color="#E7E7E7" stop-opacity="0.67"/>
</linearGradient>
<linearGradient id="paint16_linear_10891_6798" x1="50.6111" y1="298.057" x2="50.3342" y2="304.75" gradientUnits="userSpaceOnUse">
<stop stop-color="#FBF3FF"/>
<stop offset="0.48432" stop-color="#EEE9F0" stop-opacity="0.840174"/>
<stop offset="1" stop-color="#E7E7E7" stop-opacity="0.67"/>
</linearGradient>
<linearGradient id="paint17_linear_10891_6798" x1="60.543" y1="290.927" x2="59.6432" y2="312.678" gradientUnits="userSpaceOnUse">
<stop stop-color="#FBF3FF"/>
<stop offset="0.48432" stop-color="#EEE9F0" stop-opacity="0.840174"/>
<stop offset="1" stop-color="#E7E7E7" stop-opacity="0.67"/>
</linearGradient>
<linearGradient id="paint18_linear_10891_6798" x1="247.289" y1="378.852" x2="247.289" y2="405.088" gradientUnits="userSpaceOnUse">
<stop stop-color="#F59E00" stop-opacity="0.68"/>
<stop offset="1" stop-color="#F59E00"/>
</linearGradient>
<clipPath id="clip0_10891_6798">
<rect width="363" height="401" rx="40" fill="white"/>
</clipPath>
<clipPath id="clip1_10891_6798">
<rect x="40" y="135" width="283" height="277" rx="16" fill="white"/>
</clipPath>
<clipPath id="clip2_10891_6798">
<rect x="79.4536" y="182.589" width="262.212" height="153.831" rx="13.3967" transform="rotate(2.51533 79.4536 182.589)" fill="white"/>
</clipPath>
<clipPath id="clip3_10891_6798">
<rect x="94.7495" y="215.946" width="27.6307" height="21.7697" rx="3.34918" transform="rotate(2.51533 94.7495 215.946)" fill="white"/>
</clipPath>
<clipPath id="clip4_10891_6798">
<rect x="53.8042" y="216.73" width="262.212" height="153.831" rx="13.3967" transform="rotate(2.51533 53.8042 216.73)" fill="white"/>
</clipPath>
<clipPath id="clip5_10891_6798">
<rect x="69.1011" y="250.087" width="27.6307" height="21.7697" rx="3.34918" transform="rotate(2.51533 69.1011 250.087)" fill="white"/>
</clipPath>
<clipPath id="clip6_10891_6798">
<rect x="31.3574" y="257.036" width="262.212" height="153.831" rx="13.3967" transform="rotate(2.36868 31.3574 257.036)" fill="white"/>
</clipPath>
<clipPath id="clip7_10891_6798">
<rect x="46.7393" y="290.355" width="27.6307" height="21.7697" rx="3.34918" transform="rotate(2.36868 46.7393 290.355)" fill="white"/>
</clipPath>
</defs>
</svg>
