<svg width="39" height="39" viewBox="0 0 39 39" fill="none" xmlns="http://www.w3.org/2000/svg">
<circle cx="19.3885" cy="19.3885" r="19.3885" fill="#D4EBFF"/>
<path fill-rule="evenodd" clip-rule="evenodd" d="M28.1049 11.4774C29.5397 12.9651 30.5731 14.793 31.108 16.7894L19.8774 19.7987C18.4703 19.4566 16.9599 19.4526 15.4626 19.8538C12.1384 20.7445 9.75698 23.3972 9.05384 26.5378C8.13549 25.1069 7.52411 23.4964 7.26361 21.8082C6.94839 19.7655 7.15725 17.6762 7.8706 15.7363C8.58395 13.7964 9.77839 12.0695 11.3419 10.7177C12.9054 9.36581 14.7866 8.43328 16.8092 8.00757C18.8318 7.58185 20.9294 7.67692 22.9051 8.28384C24.8809 8.89075 26.6701 9.98964 28.1049 11.4774Z" fill="#1E88E5"/>
<path fill-rule="evenodd" clip-rule="evenodd" d="M8.80417 13.7645C10.3703 11.0996 12.9436 9.0248 16.1651 8.1616C22.6742 6.4175 29.3647 10.2803 31.1088 16.7893C31.1832 17.0672 31.2475 17.3454 31.3017 17.6235C29.1799 21.2223 25.2637 23.6369 20.7836 23.6369C14.8414 23.6369 9.89129 19.3891 8.80417 13.7645Z" fill="#003049"/>
<path fill-rule="evenodd" clip-rule="evenodd" d="M13.35 9.36928C16.0387 7.84455 19.3047 7.33433 22.5262 8.19754C29.0352 9.94163 32.898 16.6321 31.1539 23.1412C31.0795 23.4191 30.996 23.6921 30.9039 23.9601C27.2669 26.0158 22.6681 26.1489 18.7882 23.9088C13.6421 20.9377 11.4791 14.784 13.35 9.36928Z" fill="#1E88E5"/>
<path fill-rule="evenodd" clip-rule="evenodd" d="M16.1651 8.1616C12.9436 9.0248 10.3703 11.0996 8.80417 13.7645C9.70225 18.4111 13.2367 22.118 17.7889 23.2667C13.3682 20.1125 11.604 14.4194 13.3489 9.36924C16.0377 7.84452 19.3036 7.33429 22.5251 8.1975C24.0277 8.60009 25.3892 9.26625 26.5733 10.1329C23.6885 8.00474 19.897 7.16165 16.1651 8.1616Z" fill="#0D47A1"/>
<path d="M17.8005 14.265C18.0808 15.3111 17.46 16.3863 16.4139 16.6666C15.3678 16.9469 14.2925 16.3261 14.0122 15.28C13.7319 14.2339 14.3527 13.1587 15.3988 12.8784C16.4449 12.5981 17.5202 13.2189 17.8005 14.265Z" fill="#0D47A1"/>
</svg>
