<svg width="257" height="56" viewBox="0 0 257 56" fill="none" xmlns="http://www.w3.org/2000/svg">
<circle cx="27.9231" cy="27.9231" r="27.9231" fill="#D4EBFF"/>
<path fill-rule="evenodd" clip-rule="evenodd" d="M40.4753 16.5292C42.5417 18.6718 44.0299 21.3042 44.8003 24.1795L28.6262 28.5133C26.5998 28.0207 24.4244 28.0149 22.268 28.5927C17.4807 29.8755 14.0509 33.6959 13.0383 38.219C11.7157 36.1582 10.8352 33.8387 10.46 31.4075C10.0061 28.4656 10.3069 25.4566 11.3342 22.6628C12.3616 19.869 14.0818 17.382 16.3335 15.4351C18.5852 13.4881 21.2946 12.1451 24.2075 11.532C27.1203 10.9189 30.1412 11.0558 32.9867 11.9299C35.8322 12.804 38.409 14.3866 40.4753 16.5292Z" fill="#1E88E5"/>
<path fill-rule="evenodd" clip-rule="evenodd" d="M12.6776 19.8232C14.9331 15.9853 18.6391 12.9972 23.2787 11.754C32.653 9.24219 42.2885 14.8053 44.8003 24.1795C44.9075 24.5797 45 24.9803 45.0782 25.3808C42.0224 30.5638 36.3823 34.0413 29.9301 34.0413C21.3723 34.0413 14.2432 27.9237 12.6776 19.8232Z" fill="#003049"/>
<path fill-rule="evenodd" clip-rule="evenodd" d="M19.2229 13.4932C23.0952 11.2974 27.7987 10.5625 32.4383 11.8057C41.8126 14.3175 47.3756 23.9531 44.8638 33.3273C44.7566 33.7275 44.6364 34.1207 44.5038 34.5066C39.2659 37.4673 32.6428 37.6589 27.055 34.4328C19.6436 30.1538 16.5285 21.2914 19.2229 13.4932Z" fill="#1E88E5"/>
<path fill-rule="evenodd" clip-rule="evenodd" d="M23.2787 11.754C18.6391 12.9972 14.9331 15.9853 12.6776 19.8232C13.971 26.5152 19.0612 31.8538 25.6172 33.5081C19.2506 28.9655 16.7098 20.7664 19.2229 13.4932C23.0951 11.2974 27.7987 10.5625 32.4383 11.8057C34.6022 12.3855 36.563 13.3449 38.2683 14.5931C34.1137 11.5281 28.6533 10.3139 23.2787 11.754Z" fill="#0D47A1"/>
<path d="M25.6339 20.5439C26.0376 22.0505 25.1435 23.599 23.637 24.0027C22.1304 24.4064 20.5818 23.5123 20.1781 22.0058C19.7745 20.4992 20.6685 18.9506 22.1751 18.5469C23.6817 18.1432 25.2302 19.0373 25.6339 20.5439Z" fill="#0D47A1"/>
<path d="M73.834 15C76.232 15 78.212 15.792 79.774 17.376C81.336 18.938 82.117 20.929 82.117 23.349C82.117 25.769 81.336 27.771 79.774 29.355C78.212 30.917 76.232 31.698 73.834 31.698H69.346V38.1H64V15H73.834ZM73.009 27.342C74.087 27.342 74.967 26.968 75.649 26.22C76.353 25.472 76.705 24.515 76.705 23.349C76.705 22.183 76.353 21.226 75.649 20.478C74.967 19.73 74.087 19.356 73.009 19.356H69.346V27.342H73.009Z" fill="#1E88E5"/>
<path d="M94.3237 21.765C98.1957 21.765 100.132 23.932 100.132 28.266V38.1H95.0497V29.916C95.0497 28.552 94.8297 27.562 94.3897 26.946C93.9717 26.33 93.2567 26.022 92.2447 26.022C90.1987 26.022 89.1757 27.276 89.1757 29.784V38.1H84.1267V15H89.1757V24.504C90.1217 22.678 91.8377 21.765 94.3237 21.765Z" fill="#1E88E5"/>
<path d="M110.174 38.529C107.864 38.529 106.038 37.748 104.696 36.186C103.354 34.624 102.683 32.611 102.683 30.147C102.683 27.727 103.376 25.725 104.762 24.141C106.148 22.557 107.974 21.765 110.24 21.765C111.362 21.765 112.363 22.007 113.243 22.491C114.123 22.975 114.783 23.635 115.223 24.471V22.194H120.239V38.1H115.223V35.856C114.783 36.648 114.101 37.297 113.177 37.803C112.275 38.287 111.274 38.529 110.174 38.529ZM111.626 34.338C112.836 34.338 113.771 33.942 114.431 33.15C115.091 32.358 115.421 31.357 115.421 30.147C115.421 28.959 115.091 27.969 114.431 27.177C113.771 26.385 112.836 25.989 111.626 25.989C110.482 25.989 109.558 26.374 108.854 27.144C108.172 27.914 107.831 28.915 107.831 30.147C107.831 31.379 108.172 32.391 108.854 33.183C109.558 33.953 110.482 34.338 111.626 34.338Z" fill="#1E88E5"/>
<path d="M124.098 38.1V15H129.147V38.1H124.098Z" fill="#1E88E5"/>
<path d="M140.241 38.595C137.645 38.595 135.577 37.825 134.037 36.285C132.497 34.723 131.727 32.677 131.727 30.147C131.727 27.617 132.497 25.582 134.037 24.042C135.577 22.502 137.645 21.732 140.241 21.732C142.595 21.732 144.509 22.315 145.983 23.481C147.457 24.647 148.293 26.231 148.491 28.233H143.442C143.068 26.737 142.012 25.989 140.274 25.989C139.174 25.989 138.316 26.352 137.7 27.078C137.084 27.804 136.776 28.827 136.776 30.147C136.776 31.467 137.084 32.49 137.7 33.216C138.316 33.942 139.174 34.305 140.274 34.305C142.012 34.305 143.068 33.601 143.442 32.193H148.491C148.293 34.151 147.457 35.713 145.983 36.879C144.509 38.023 142.595 38.595 140.241 38.595Z" fill="#1E88E5"/>
<path d="M165.589 36.219C164.005 37.803 161.871 38.595 159.187 38.595C156.503 38.595 154.358 37.803 152.752 36.219C151.146 34.635 150.343 32.611 150.343 30.147C150.343 27.683 151.146 25.67 152.752 24.108C154.358 22.524 156.503 21.732 159.187 21.732C161.871 21.732 164.005 22.524 165.589 24.108C167.195 25.67 167.998 27.683 167.998 30.147C167.998 32.611 167.195 34.635 165.589 36.219ZM159.187 34.305C160.353 34.305 161.277 33.92 161.959 33.15C162.641 32.38 162.982 31.379 162.982 30.147C162.982 28.915 162.641 27.914 161.959 27.144C161.277 26.374 160.353 25.989 159.187 25.989C157.999 25.989 157.064 26.374 156.382 27.144C155.722 27.914 155.392 28.915 155.392 30.147C155.392 31.379 155.722 32.38 156.382 33.15C157.064 33.92 157.999 34.305 159.187 34.305Z" fill="#1E88E5"/>
<path d="M170.567 38.1V22.194H175.616V24.504C176.562 22.678 178.278 21.765 180.764 21.765C184.636 21.765 186.572 23.932 186.572 28.266V38.1H181.49V29.916C181.49 28.552 181.27 27.562 180.83 26.946C180.412 26.33 179.697 26.022 178.685 26.022C176.639 26.022 175.616 27.276 175.616 29.784V38.1H170.567Z" fill="#1E88E5"/>
<path d="M193.263 38.496L187.521 22.59H192.801L195.672 32.226L198.378 22.59H203.295L206.001 32.226L208.872 22.59H214.119L208.41 38.496H203.889L200.82 28.827L197.784 38.496H193.263Z" fill="#0D47A1"/>
<path d="M220.797 20.28C220.203 20.874 219.455 21.171 218.553 21.171C217.651 21.171 216.903 20.874 216.309 20.28C215.737 19.686 215.451 18.96 215.451 18.102C215.451 17.222 215.737 16.485 216.309 15.891C216.903 15.297 217.651 15 218.553 15C219.455 15 220.203 15.308 220.797 15.924C221.391 16.518 221.688 17.244 221.688 18.102C221.688 18.96 221.391 19.686 220.797 20.28ZM216.012 38.496V22.59H221.061V38.496H216.012Z" fill="#0D47A1"/>
<path d="M231.265 38.991C228.977 38.991 227.151 38.496 225.787 37.506C224.423 36.516 223.741 35.251 223.741 33.711H228.757C228.757 34.261 228.999 34.712 229.483 35.064C229.967 35.416 230.594 35.592 231.364 35.592C231.914 35.592 232.354 35.46 232.684 35.196C233.036 34.932 233.212 34.569 233.212 34.107C233.212 33.381 232.827 32.93 232.057 32.754L228.163 31.764C226.865 31.434 225.875 30.873 225.193 30.081C224.511 29.289 224.17 28.321 224.17 27.177C224.17 25.681 224.786 24.471 226.018 23.547C227.25 22.601 228.9 22.128 230.968 22.128C233.256 22.128 235.005 22.568 236.215 23.448C237.447 24.328 238.063 25.538 238.063 27.078H233.08C233.08 26.528 232.882 26.099 232.486 25.791C232.112 25.483 231.584 25.329 230.902 25.329C230.352 25.329 229.912 25.45 229.582 25.692C229.252 25.934 229.087 26.253 229.087 26.649C229.087 27.353 229.538 27.826 230.44 28.068L234.202 29.091C235.456 29.421 236.435 29.971 237.139 30.741C237.865 31.489 238.228 32.413 238.228 33.513C238.228 35.163 237.601 36.494 236.347 37.506C235.115 38.496 233.421 38.991 231.265 38.991Z" fill="#0D47A1"/>
<path d="M256.769 29.718C256.769 30.378 256.725 31.115 256.637 31.929H244.889C244.933 32.963 245.285 33.766 245.945 34.338C246.605 34.91 247.496 35.196 248.618 35.196C250.158 35.196 251.148 34.701 251.588 33.711H256.538C256.296 35.273 255.438 36.549 253.964 37.539C252.512 38.507 250.73 38.991 248.618 38.991C245.912 38.991 243.778 38.243 242.216 36.747C240.654 35.251 239.873 33.183 239.873 30.543C239.873 27.947 240.654 25.901 242.216 24.405C243.778 22.887 245.857 22.128 248.453 22.128C250.917 22.128 252.919 22.832 254.459 24.24C255.999 25.648 256.769 27.474 256.769 29.718ZM244.889 28.794H251.786C251.764 27.738 251.467 26.924 250.895 26.352C250.323 25.78 249.498 25.494 248.42 25.494C247.342 25.494 246.484 25.802 245.846 26.418C245.23 27.012 244.911 27.804 244.889 28.794Z" fill="#0D47A1"/>
</svg>
