<svg width="283" height="266" viewBox="0 0 283 266" fill="none" xmlns="http://www.w3.org/2000/svg">
<g clip-path="url(#clip0_10906_6912)">
<rect width="283" height="277" rx="16" fill="#F9F8FF"/>
<circle cx="30" cy="30" r="6" fill="#CED9E8"/>
<circle cx="50" cy="30" r="6" fill="#CED9E8"/>
<circle cx="70" cy="30" r="6" fill="#CED9E8"/>
<g clip-path="url(#clip1_10906_6912)">
<rect x="24" y="95" width="236" height="56" rx="16" fill="#3A3391"/>
<text fill="white" xml:space="preserve" style="white-space: pre" font-family="Lota Grotesque" font-size="10" font-weight="bold" letter-spacing="0em"><tspan x="69.7144" y="112.358">You sent money to &#10;</tspan><tspan x="69.7144" y="124.358">Awobangalee</tspan></text>
<text fill="white" xml:space="preserve" style="white-space: pre" font-family="DM Sans" font-size="7.56456" letter-spacing="0em"><tspan x="69.7144" y="140.734">Sunday at 2:56pm</tspan></text>
<path d="M36.1033 115.461C36.1033 108.777 41.5221 103.358 48.2066 103.358V103.358C54.891 103.358 60.3099 108.777 60.3099 115.461V115.461C60.3099 122.146 54.891 127.565 48.2066 127.565V127.565C41.5221 127.565 36.1033 122.146 36.1033 115.461V115.461Z" fill="#EFFAF9"/>
<line x1="50.1135" y1="113.307" x2="45.5669" y2="117.853" stroke="#1C5E59" stroke-width="1.13468" stroke-linecap="round" stroke-linejoin="round"/>
<path d="M48.1072 112.668H50.7512V115.312" stroke="#1C5E59" stroke-width="1.13468" stroke-linecap="round" stroke-linejoin="round"/>
<text fill="white" xml:space="preserve" style="white-space: pre" font-family="Lota Grotesque" font-size="14" font-weight="bold" letter-spacing="0em"><tspan x="201.847" y="127.506">$2000</tspan></text>
</g>
<g clip-path="url(#clip2_10906_6912)">
<rect x="24" y="162" width="236" height="56" rx="16" fill="#F2F0FA"/>
<text fill="#150F2E" xml:space="preserve" style="white-space: pre" font-family="Lota Grotesque" font-size="10" font-weight="bold" letter-spacing="0em"><tspan x="69.7144" y="179.358">You sent money to &#10;</tspan><tspan x="69.7144" y="191.358">awo@gmail.com</tspan></text>
<text fill="#43495C" xml:space="preserve" style="white-space: pre" font-family="DM Sans" font-size="7.56456" letter-spacing="0em"><tspan x="69.7144" y="207.734">Sunday at 2:56pm</tspan></text>
<path d="M36.1033 182.461C36.1033 175.777 41.5221 170.358 48.2066 170.358V170.358C54.891 170.358 60.3099 175.777 60.3099 182.461V182.461C60.3099 189.146 54.891 194.565 48.2066 194.565V194.565C41.5221 194.565 36.1033 189.146 36.1033 182.461V182.461Z" fill="#EFFAF9"/>
<line x1="50.1135" y1="180.307" x2="45.5669" y2="184.853" stroke="#1C5E59" stroke-width="1.13468" stroke-linecap="round" stroke-linejoin="round"/>
<path d="M48.1072 179.668H50.7512V182.312" stroke="#1C5E59" stroke-width="1.13468" stroke-linecap="round" stroke-linejoin="round"/>
<text fill="#150F2E" xml:space="preserve" style="white-space: pre" font-family="Lota Grotesque" font-size="14" font-weight="bold" letter-spacing="0em"><tspan x="210.337" y="194.506">$400</tspan></text>
</g>
<g clip-path="url(#clip3_10906_6912)">
<rect x="24" y="229" width="236" height="56" rx="16" fill="#BAF2CA"/>
<text fill="#150F2E" xml:space="preserve" style="white-space: pre" font-family="Lota Grotesque" font-size="10" font-weight="bold" letter-spacing="0em"><tspan x="69.7144" y="246.358">You sent money to &#10;</tspan><tspan x="69.7144" y="258.358">MoMoney/+2458582844</tspan></text>
<path d="M36.1033 249.461C36.1033 242.777 41.5221 237.358 48.2066 237.358V237.358C54.891 237.358 60.3099 242.777 60.3099 249.461V249.461C60.3099 256.146 54.891 261.565 48.2066 261.565V261.565C41.5221 261.565 36.1033 256.146 36.1033 249.461V249.461Z" fill="#EFFAF9"/>
<line x1="50.1135" y1="247.307" x2="45.5669" y2="251.853" stroke="#1C5E59" stroke-width="1.13468" stroke-linecap="round" stroke-linejoin="round"/>
<path d="M48.1072 246.668H50.7512V249.312" stroke="#1C5E59" stroke-width="1.13468" stroke-linecap="round" stroke-linejoin="round"/>
<text fill="#150F2E" xml:space="preserve" style="white-space: pre" font-family="Lota Grotesque" font-size="14" font-weight="bold" letter-spacing="0em"><tspan x="212.415" y="261.506">$236</tspan></text>
</g>
<path d="M60.0151 68.467C60.0151 66.8151 59.077 65.5506 57.5066 65.0408C58.2408 64.4086 58.6283 63.552 58.6283 62.5119C58.6283 60.4317 57.0172 58.9225 54.5902 58.9225H49.8792V72.3827H55.6507C58.2816 72.3827 60.0151 70.7308 60.0151 68.467ZM54.3863 60.8192C55.7119 60.8192 56.4665 61.4922 56.4665 62.6139C56.4665 63.7355 55.7119 64.4493 54.3863 64.4493H52.0002V60.8192H54.3863ZM57.8329 68.4058C57.8329 69.6907 56.956 70.4861 55.4672 70.4861H52.0002V66.3052H55.4672C56.956 66.3052 57.8329 67.121 57.8329 68.4058Z" fill="#150F2E"/>
<path d="M59.9859 67.3657C59.9247 70.2005 62.3924 72.6682 65.268 72.6071C68.1844 72.6682 70.6521 70.2005 70.5909 67.3657C70.6521 64.5309 68.1844 62.0836 65.268 62.1448C62.3924 62.104 59.9247 64.4901 59.9859 67.3657ZM68.3884 67.3861C68.3884 69.2012 67.0423 70.6288 65.268 70.6288C63.5141 70.6288 62.1681 69.242 62.1681 67.3861C62.1681 65.5302 63.5141 64.1026 65.2884 64.1026C67.0219 64.1026 68.3884 65.5302 68.3884 67.3861Z" fill="#150F2E"/>
<path d="M80.0698 66.1217C80.0698 63.7355 78.6626 62.1448 76.3172 62.1448C75.0732 62.1448 74.0739 62.5527 73.3193 63.3481V62.3691H71.3206V72.3827H73.462V66.4072C73.462 65.0408 74.4206 64.0823 75.7462 64.0823C77.0514 64.0823 77.9284 65.0204 77.9284 66.4072V72.3827H80.0698V66.1217Z" fill="#150F2E"/>
<path d="M89.2798 66.3256C89.2798 63.6336 87.6483 62.1448 85.1806 62.1448C83.4471 62.1448 81.9583 62.8382 80.959 64.2862L82.203 65.5506C83.0392 64.5513 83.855 64.0619 84.9766 64.0619C86.3431 64.0619 87.118 64.8164 87.118 66.2033V66.8559H84.2832C82.0195 66.8559 80.5919 67.9776 80.5919 69.7111C80.5919 71.4446 81.9787 72.6071 84.0793 72.6071C85.4457 72.6071 86.547 72.138 87.2812 71.261V72.3827H89.2798V66.3256ZM87.118 68.5894C87.118 69.9558 85.976 70.9551 84.528 70.9551C83.4879 70.9551 82.7741 70.4657 82.7741 69.6295C82.7741 68.8137 83.4063 68.4058 84.5484 68.4058H87.118V68.5894Z" fill="#150F2E"/>
<path d="M93.0433 60.5336C93.0433 59.2488 93.6959 58.8001 95.0012 58.8001C95.2459 58.8001 95.5314 58.8205 95.8577 58.8613V57.0462C95.4703 56.9239 95.0216 56.8627 94.4709 56.8627C92.2683 56.8627 90.9019 58.0048 90.9019 60.3501V62.3691H89.4743V64.225H90.9019V72.3827H93.0433V64.225H95.4091V62.3691H93.0433V60.5336ZM97.4077 72.3827H99.5491V62.3691H97.4077V72.3827ZM97.0202 58.637C97.0202 59.4324 97.6728 60.0442 98.4886 60.0442C99.284 60.0442 99.9366 59.4324 99.9366 58.637C99.9366 57.8416 99.284 57.2094 98.4886 57.2094C97.6728 57.2094 97.0202 57.8416 97.0202 58.637Z" fill="#150F2E"/>
<path d="M108.546 57.087V63.5928C107.791 62.675 106.588 62.1448 105.201 62.1448C102.427 62.0836 100.245 64.4697 100.306 67.3861C100.306 70.3433 102.387 72.6071 105.201 72.6071C106.69 72.6071 107.975 71.9952 108.709 70.9551V72.3827H110.707V57.087H108.546ZM108.586 67.3861C108.586 69.5683 107.138 70.6492 105.568 70.6492C103.794 70.6492 102.489 69.2828 102.489 67.3657C102.489 65.4487 103.855 64.1026 105.568 64.1026C107.118 64.1026 108.586 65.2243 108.586 67.3861Z" fill="#150F2E"/>
<path d="M121.094 68.0795C121.195 67.6105 121.257 67.1618 121.257 66.7335C121.257 64.123 119.278 62.1448 116.627 62.1448C113.792 62.0836 111.386 64.5105 111.447 67.3861C111.447 70.3433 113.772 72.6071 116.831 72.6071C118.361 72.6071 119.686 72.0768 120.828 70.9959L119.809 69.5275C118.911 70.3229 117.932 70.7104 116.892 70.7104C115.179 70.7104 113.894 69.7111 113.629 68.0795H121.094ZM113.67 66.4072C113.996 64.9184 115.138 63.9599 116.546 63.9599C117.953 63.9599 119.095 64.8776 119.115 66.4072H113.67Z" fill="#150F2E"/>
<circle cx="33.489" cy="65.489" r="2.58791" stroke="#3A3391" stroke-width="1.72527"/>
<circle cx="33.4889" cy="65.489" r="6.03846" stroke="#22B94C" stroke-width="1.72527"/>
<path d="M42.978 65.489C42.978 70.7296 38.7296 74.978 33.489 74.978C28.2484 74.978 24 70.7296 24 65.489C24 60.2484 28.2484 56 33.489 56C38.7296 56 42.978 60.2484 42.978 65.489Z" stroke="#3A3391" stroke-width="1.72527"/>
</g>
<defs>
<clipPath id="clip0_10906_6912">
<rect width="283" height="277" rx="16" fill="white"/>
</clipPath>
<clipPath id="clip1_10906_6912">
<rect x="24" y="95" width="236" height="56" rx="16" fill="white"/>
</clipPath>
<clipPath id="clip2_10906_6912">
<rect x="24" y="162" width="236" height="56" rx="16" fill="white"/>
</clipPath>
<clipPath id="clip3_10906_6912">
<rect x="24" y="229" width="236" height="56" rx="16" fill="white"/>
</clipPath>
</defs>
</svg>
